<svg xmlns="http://www.w3.org/2000/svg" xmlns:xlink="http://www.w3.org/1999/xlink" width="500" zoomAndPan="magnify" viewBox="0 0 375 374.999991" height="500" preserveAspectRatio="xMidYMid meet" version="1.0"><path fill="#1e81ce" d="M 187.5 23.4375 C 97.007812 23.4375 23.4375 97.007812 23.4375 187.5 C 23.4375 277.992188 97.007812 351.5625 187.5 351.5625 C 277.992188 351.5625 351.5625 277.992188 351.5625 187.5 C 351.5625 97.007812 277.992188 23.4375 187.5 23.4375 Z M 187.5 23.4375 " fill-opacity="1" fill-rule="nonzero"/><path fill="#ffffff" d="M 187.503906 230.703125 C 176.746094 217.175781 170.421875 205.3125 168.3125 195.167969 C 166.203125 186.921875 167.046875 180.367188 170.628906 175.507812 C 174.425781 169.796875 180.121094 167.050781 187.503906 167.050781 C 194.886719 167.050781 200.582031 169.796875 204.375 175.507812 C 207.960938 180.367188 208.804688 186.921875 206.695312 195.167969 C 204.375 205.527344 198.050781 217.363281 187.503906 230.703125 Z M 246.386719 261.992188 C 228.460938 269.8125 210.722656 257.339844 195.539062 240.429688 C 220.65625 208.90625 225.296875 184.386719 214.519531 168.507812 C 208.195312 159.417969 199.125 154.976562 187.503906 154.976562 C 164.09375 154.976562 151.207031 174.851562 156.269531 197.914062 C 159.222656 210.386719 167.023438 224.574219 179.46875 240.429688 C 170.136719 250.796875 157.890625 262.554688 143.191406 263.894531 C 121.890625 267.066406 105.207031 246.347656 112.800781 224.972656 L 166.8125 112.886719 C 171.425781 104.460938 177.113281 97.242188 187.480469 97.242188 C 195.074219 97.242188 200.980469 101.683594 203.511719 105.277344 L 262.164062 224.972656 C 267.910156 239.4375 260.621094 255.828125 246.386719 261.992188 Z M 273.59375 220.746094 L 223.378906 116.058594 C 213.886719 96.609375 207.140625 84.960938 187.503906 84.960938 C 168.101562 84.960938 159.855469 98.492188 151.417969 116.058594 L 101.414062 220.746094 C 90.65625 250.363281 112.800781 276.367188 139.609375 276.367188 C 141.296875 276.367188 142.96875 276.15625 144.667969 276.15625 C 158.589844 274.464844 172.949219 265.585938 187.503906 249.710938 C 202.054688 265.566406 216.417969 274.464844 230.339844 276.15625 C 232.039062 276.15625 233.714844 276.367188 235.402344 276.367188 C 262.207031 276.386719 284.351562 250.363281 273.59375 220.746094 Z M 273.59375 220.746094 " fill-opacity="1" fill-rule="nonzero"/></svg>