<svg id="Capa_1" data-name="Capa 1" xmlns="http://www.w3.org/2000/svg" viewBox="0 0 137 153"><defs><style>.cls-1{fill:#009cb7;}</style></defs><title>COMMER</title><path class="cls-1" d="M82.22,34.91l.82.35A4.93,4.93,0,0,1,86,41Q82.33,59.84,78.7,78.72a1.09,1.09,0,0,0,.17.88C81.41,82,82.39,85,82.72,88.39c.14,1.46.29,2.92.45,4.46a8.5,8.5,0,0,1,4.92.8c.12,0,.4-.11.55-.23,6.11-4.82,14.22-2.59,17.07,4.69a1.29,1.29,0,0,0,.73.64,9.18,9.18,0,0,1,6.25,9.16,9.07,9.07,0,0,1-7.31,8.41,8.61,8.61,0,0,1-5-.42,1,1,0,0,0-1.18.18A11.8,11.8,0,0,1,83,115.47a1,1,0,0,0-.9-.2,8.4,8.4,0,0,1-6.84-.68,1,1,0,0,0-.86,0,25.14,25.14,0,0,1-13.38,4.28,45.47,45.47,0,0,1-21.87-4.1A18.87,18.87,0,0,1,30,106.38a13.29,13.29,0,0,1-.81-2,2.83,2.83,0,0,1,2.42-4c2.53-.47,5.08-.91,7.58-1.53a46.31,46.31,0,0,0,17.33-7.8A22.36,22.36,0,0,0,63.88,82a8.8,8.8,0,0,1,4.46-4.53,1.37,1.37,0,0,0,.84-1.08C70.4,70,71.65,63.54,72.89,57.11,74.06,51,75.22,45,76.41,38.89a4.82,4.82,0,0,1,3.3-3.76c.18-.06.34-.15.51-.22ZM64.84,86.35a1.94,1.94,0,0,0-.25.27,29.53,29.53,0,0,1-9,8.47,56.45,56.45,0,0,1-19.25,7.32c-1.52.32-3,.58-4.78.91.65,1.21,1.21,2.32,1.84,3.38a.86.86,0,0,0,.74.29c5.58-.9,11.07-2.07,16.15-4.69a1.39,1.39,0,0,1,2.06.56,1.41,1.41,0,0,1-.86,2,51.58,51.58,0,0,1-12.1,4.11c-1,.22-2.09.41-3.28.64a21.56,21.56,0,0,0,5.63,3.3,1.25,1.25,0,0,0,.8-.07c2.81-1,5.69-1.89,8.41-3.1,5.66-2.51,10.67-5.93,14.3-11.1a1.4,1.4,0,0,1,2-.45,1.35,1.35,0,0,1,.23,2.06,58.88,58.88,0,0,1-4.65,5.2,43.54,43.54,0,0,1-14.29,8.35l-1.82.69v.31c2.91.42,5.81.86,8.71,1.27a1.34,1.34,0,0,0,.78-.23c1.74-1.08,3.55-2.07,5.18-3.31a51.88,51.88,0,0,0,4.07-3.79,1.4,1.4,0,0,1,2.4.3,1.37,1.37,0,0,1-.41,1.66c-1.79,1.66-3.61,3.28-5.42,4.91l-.57.5a22.81,22.81,0,0,0,11.24-3.72,2.56,2.56,0,0,0-.13-.3c-2.67-4.51-1.41-9.3,3.11-11.92a1.12,1.12,0,0,0,.49-.66A8.48,8.48,0,0,1,79.9,94.1c.19-.12.44-.36.43-.53-.1-1.65-.24-3.29-.37-4.95C74.48,90,69.33,90.32,64.84,86.35Zm45.06,21.08a6.23,6.23,0,0,0-5.06-6.17,1.84,1.84,0,0,1-1.62-1.51,7.88,7.88,0,0,0-13.44-3.54c-.87.9-1.36,1-2.39.3a5.42,5.42,0,0,0-8.45,4.06,1.89,1.89,0,0,1-1.36,1.83A5.41,5.41,0,1,0,82,112.28c1.24-.62,1.63-.53,2.49.52a9,9,0,0,0,13.52.64c1.13-1.16,1.31-1.19,2.72-.46A6.29,6.29,0,0,0,109.9,107.43ZM76,77.52c.06-.24.13-.56.19-.88q2.72-14,5.42-28c.55-2.8,1.12-5.6,1.6-8.42a2,2,0,0,0-2.51-2.42,2.27,2.27,0,0,0-1.66,2.07l-6.3,32.6c-.27,1.4-.53,2.81-.78,4.13Zm3.34,8.33a8.31,8.31,0,0,0-4.86-5.79,5.9,5.9,0,0,0-7.62,2.31c-.93,1.48-.84,1.22.31,2.28a6.56,6.56,0,0,0,1.15.8C71.94,87.49,75.62,86.78,79.37,85.85Z"/><path class="cls-1" d="M45.81,46.25l5.65,1,17.77,3.15c1.06.19,1.61.82,1.47,1.64s-.89,1.28-2,1.09L45.62,49.06c-1-.18-1.51-.75-1.42-1.61A1.41,1.41,0,0,1,45.81,46.25Z"/><path class="cls-1" d="M111.27,83.2a4.88,4.88,0,1,1-4.88-4.93A4.87,4.87,0,0,1,111.27,83.2Zm-4.87,2a2.07,2.07,0,0,0,2.09-2,2.09,2.09,0,1,0-4.18-.07A2.07,2.07,0,0,0,106.4,85.25Z"/><path class="cls-1" d="M48.4,61.07l4.93.86,13.09,2.31c.74.13,1.34.42,1.47,1.24A1.41,1.41,0,0,1,66.09,67c-2.54-.44-5.07-.9-7.61-1.35L48.34,63.9c-1.2-.2-1.79-1-1.45-1.93A1.43,1.43,0,0,1,48.4,61.07Z"/><path class="cls-1" d="M69.31,58.82a1.41,1.41,0,0,1-1.79,1.34l-10.24-1.8-4.42-.78c-1.08-.19-1.64-.86-1.46-1.74s.91-1.21,2-1L67.94,57.4A1.43,1.43,0,0,1,69.31,58.82Z"/><path class="cls-1" d="M97.28,78.26a4.18,4.18,0,1,1,4.23-4.14A4.2,4.2,0,0,1,97.28,78.26Zm0-5.55a1.37,1.37,0,0,0-.08,2.74,1.37,1.37,0,1,0,.08-2.74Z"/><path class="cls-1" d="M52.6,88.21c-.24.31-.46.85-.84,1a1.7,1.7,0,0,1-1.45-.09A17.32,17.32,0,0,1,48,86.8,1.26,1.26,0,0,1,48,85.05a1.17,1.17,0,0,1,1.65-.26,34.47,34.47,0,0,1,2.65,2.62C52.48,87.55,52.48,87.82,52.6,88.21Z"/><path class="cls-1" d="M45.09,83.14c-1.16,0-3.79-2.58-3.68-3.44a1.69,1.69,0,0,1,.71-1.18,1.65,1.65,0,0,1,1.44.1A13.69,13.69,0,0,1,45.91,81,1.68,1.68,0,0,1,46,82.4C45.84,82.78,45.29,83,45.09,83.14Z"/><path class="cls-1" d="M48.88,83.28c-.32-.24-.85-.46-1-.83a1.58,1.58,0,0,1,0-1.38,20,20,0,0,1,2.5-2.54,1.21,1.21,0,0,1,1.73.18,1.19,1.19,0,0,1,.19,1.66c-.79.92-1.69,1.75-2.57,2.59A2.94,2.94,0,0,1,48.88,83.28Z"/><path class="cls-1" d="M42.79,67.09c.44,0,.88,0,1.32,0a1.43,1.43,0,0,1,1.43,1.34,1.39,1.39,0,0,1-1.31,1.44,24.69,24.69,0,0,1-3,0A1.37,1.37,0,0,1,40,68.42a1.41,1.41,0,0,1,1.43-1.33C41.85,67.07,42.32,67.09,42.79,67.09Z"/><path class="cls-1" d="M42.55,89.56c-.31-.25-.86-.47-1-.85a1.73,1.73,0,0,1,.11-1.45A19.32,19.32,0,0,1,44,84.9a1.22,1.22,0,0,1,1.74.06A1.2,1.2,0,0,1,46,86.68a33.06,33.06,0,0,1-2.58,2.58C43.26,89.41,43,89.42,42.55,89.56Z"/><path class="cls-1" d="M34.42,67.09c.48,0,.95,0,1.42,0a1.37,1.37,0,0,1,1.29,1.3,1.32,1.32,0,0,1-1.2,1.45,22.22,22.22,0,0,1-3.16,0,1.34,1.34,0,0,1-1.21-1.44,1.4,1.4,0,0,1,1.36-1.32c.5,0,1,0,1.5,0Z"/><path class="cls-1" d="M39.91,72.74c0,.5,0,1,0,1.5a1.3,1.3,0,0,1-1.34,1.21,1.27,1.27,0,0,1-1.36-1.17,26.94,26.94,0,0,1,0-3.24,1.36,1.36,0,0,1,2.68,0,13.14,13.14,0,0,1,0,1.66Z"/><path class="cls-1" d="M39.92,64.33c0,.47,0,1,0,1.41a1.33,1.33,0,0,1-1.32,1.33,1.3,1.3,0,0,1-1.4-1.24c0-1,0-2,0-3.08a1.3,1.3,0,0,1,1.4-1.24,1.33,1.33,0,0,1,1.32,1.32C40,63.33,39.92,63.83,39.92,64.33Z"/><path class="cls-1" d="M95.61,96.46a5.12,5.12,0,0,1,4.9,3.9,1.44,1.44,0,0,1-1,1.84,1.42,1.42,0,0,1-1.71-1.07c-.72-2-2.41-2.47-4-1a1.39,1.39,0,0,1-2.07,0,1.43,1.43,0,0,1,.09-2A5.14,5.14,0,0,1,95.61,96.46Z"/></svg>