<svg xmlns="http://www.w3.org/2000/svg" xmlns:xlink="http://www.w3.org/1999/xlink" width="137" zoomAndPan="magnify" viewBox="0 0 102.75 114.749996" height="153" preserveAspectRatio="xMidYMid meet" version="1.0"><path fill="#009cb7" d="M 29.734375 93.507812 L 29.621094 93.507812 C 29.523438 93.328125 29.441406 93.140625 29.328125 92.972656 C 27.085938 89.484375 24.839844 86.042969 22.707031 82.519531 C 20.621094 79.164062 18.878906 75.644531 17.46875 71.957031 C 16.9375 70.617188 16.652344 69.230469 16.605469 67.792969 C 16.5625 66.351562 16.761719 64.949219 17.207031 63.582031 C 17.347656 63.136719 17.511719 62.703125 17.699219 62.277344 C 17.886719 61.851562 18.09375 61.4375 18.324219 61.035156 C 18.554688 60.628906 18.808594 60.242188 19.082031 59.863281 C 19.355469 59.488281 19.644531 59.125 19.957031 58.78125 C 20.269531 58.4375 20.597656 58.109375 20.945312 57.796875 C 21.292969 57.488281 21.65625 57.195312 22.03125 56.925781 C 22.410156 56.652344 22.800781 56.402344 23.207031 56.171875 C 23.613281 55.945312 24.027344 55.738281 24.457031 55.550781 C 24.882812 55.367188 25.320312 55.203125 25.761719 55.066406 C 26.207031 54.925781 26.660156 54.8125 27.117188 54.722656 C 27.570312 54.632812 28.03125 54.566406 28.496094 54.523438 C 28.960938 54.480469 29.425781 54.464844 29.890625 54.472656 C 30.355469 54.480469 30.820312 54.515625 31.28125 54.574219 C 31.746094 54.628906 32.203125 54.710938 32.65625 54.820312 C 33.109375 54.925781 33.554688 55.058594 33.996094 55.210938 C 34.433594 55.367188 34.863281 55.542969 35.285156 55.742188 L 35.914062 55.996094 L 35.914062 38.460938 L 42.871094 38.460938 L 42.871094 35.09375 L 68.015625 35.050781 L 68.015625 38.46875 L 74.808594 38.46875 L 74.90625 90.015625 L 35.914062 90.058594 L 35.914062 83.863281 C 35.039062 85.257812 34.273438 86.527344 33.472656 87.769531 C 32.226562 89.6875 30.980469 91.601562 29.734375 93.507812 Z M 57.289062 86.601562 L 71.421875 86.601562 L 71.339844 41.8125 L 64.507812 41.8125 L 64.507812 38.460938 L 46.214844 38.5 L 46.214844 41.925781 L 39.242188 41.925781 L 39.242188 42.671875 C 39.242188 47.792969 39.242188 52.90625 39.242188 58.019531 C 39.234375 58.46875 39.382812 58.859375 39.675781 59.199219 C 42.308594 62.519531 43.417969 66.253906 42.203125 70.398438 C 41.523438 72.636719 40.445312 74.800781 39.578125 77.003906 C 39.410156 77.40625 39.320312 77.824219 39.300781 78.257812 C 39.300781 80.839844 39.300781 83.429688 39.300781 86.011719 L 39.300781 86.632812 L 53.867188 86.601562 L 53.867188 79.617188 L 57.304688 79.617188 Z M 29.679688 87.425781 C 31.09375 85.085938 32.441406 82.902344 33.726562 80.707031 C 35.46875 77.8125 36.972656 74.804688 38.230469 71.671875 C 39.058594 69.914062 39.382812 68.066406 39.203125 66.132812 C 39.125 65.585938 39 65.050781 38.828125 64.527344 C 38.65625 64 38.4375 63.492188 38.179688 63.003906 C 37.917969 62.515625 37.621094 62.054688 37.28125 61.617188 C 36.941406 61.179688 36.566406 60.777344 36.15625 60.402344 C 35.75 60.03125 35.3125 59.695312 34.84375 59.398438 C 34.378906 59.101562 33.886719 58.847656 33.378906 58.632812 C 32.867188 58.417969 32.339844 58.25 31.800781 58.128906 C 31.261719 58.003906 30.714844 57.929688 30.160156 57.898438 C 29.609375 57.871094 29.058594 57.886719 28.507812 57.953125 C 27.957031 58.015625 27.417969 58.128906 26.886719 58.285156 C 26.355469 58.445312 25.839844 58.648438 25.34375 58.894531 C 24.847656 59.140625 24.378906 59.425781 23.933594 59.753906 C 23.484375 60.078125 23.070312 60.441406 22.6875 60.839844 C 22.300781 61.238281 21.953125 61.667969 21.644531 62.125 C 21.335938 62.582031 21.066406 63.0625 20.839844 63.566406 C 20.609375 64.070312 20.429688 64.589844 20.289062 65.125 C 19.816406 67.152344 19.988281 69.117188 20.808594 71.03125 C 22.109375 74.324219 23.675781 77.488281 25.496094 80.527344 C 26.820312 82.8125 28.234375 85.050781 29.679688 87.433594 Z M 29.679688 87.425781 " fill-opacity="1" fill-rule="nonzero"/><path fill="#009cb7" d="M 50.398438 54.382812 L 50.398438 43.058594 L 53.777344 43.058594 L 53.777344 46.964844 L 57.207031 46.964844 L 57.207031 43.042969 L 60.601562 43.042969 L 60.601562 54.363281 L 57.234375 54.363281 L 57.234375 50.457031 L 53.800781 50.457031 L 53.800781 54.371094 Z M 50.398438 54.382812 " fill-opacity="1" fill-rule="nonzero"/><path fill="#009cb7" d="M 46.984375 58.984375 L 50.328125 58.984375 L 50.328125 62.355469 L 46.992188 62.355469 Z M 46.984375 58.984375 " fill-opacity="1" fill-rule="nonzero"/><path fill="#009cb7" d="M 57.207031 62.363281 L 53.867188 62.363281 L 53.867188 59.019531 L 57.226562 59.019531 Z M 57.207031 62.363281 " fill-opacity="1" fill-rule="nonzero"/><path fill="#009cb7" d="M 60.707031 58.984375 L 64.066406 58.984375 L 64.066406 62.347656 L 60.707031 62.347656 Z M 60.707031 58.984375 " fill-opacity="1" fill-rule="nonzero"/><path fill="#009cb7" d="M 47.007812 65.699219 L 50.359375 65.699219 L 50.359375 69.058594 L 47.007812 69.058594 Z M 47.007812 65.699219 " fill-opacity="1" fill-rule="nonzero"/><path fill="#009cb7" d="M 53.867188 65.699219 L 57.207031 65.699219 L 57.207031 69.023438 L 53.867188 69.023438 Z M 53.867188 65.699219 " fill-opacity="1" fill-rule="nonzero"/><path fill="#009cb7" d="M 60.714844 65.699219 L 64.082031 65.699219 L 64.082031 69.015625 L 60.714844 69.015625 Z M 60.714844 65.699219 " fill-opacity="1" fill-rule="nonzero"/><path fill="#009cb7" d="M 46.992188 75.875 L 46.992188 72.539062 L 50.375 72.539062 L 50.375 75.875 Z M 46.992188 75.875 " fill-opacity="1" fill-rule="nonzero"/><path fill="#009cb7" d="M 53.867188 72.515625 L 57.222656 72.515625 L 57.222656 75.859375 L 53.867188 75.859375 Z M 53.867188 72.515625 " fill-opacity="1" fill-rule="nonzero"/><path fill="#009cb7" d="M 60.722656 72.5 L 64.082031 72.5 L 64.082031 75.847656 L 60.730469 75.847656 Z M 60.722656 72.5 " fill-opacity="1" fill-rule="nonzero"/><path fill="#009cb7" d="M 35.996094 67.53125 C 35.996094 67.945312 35.953125 68.359375 35.871094 68.769531 C 35.789062 69.175781 35.667969 69.574219 35.507812 69.957031 C 35.347656 70.34375 35.152344 70.710938 34.917969 71.054688 C 34.683594 71.402344 34.421875 71.722656 34.125 72.015625 C 33.828125 72.3125 33.507812 72.574219 33.160156 72.804688 C 32.8125 73.035156 32.445312 73.230469 32.058594 73.390625 C 31.671875 73.546875 31.273438 73.667969 30.863281 73.75 C 30.453125 73.828125 30.039062 73.867188 29.621094 73.867188 C 29.207031 73.867188 28.792969 73.824219 28.382812 73.742188 C 27.972656 73.660156 27.574219 73.539062 27.1875 73.378906 C 26.804688 73.21875 26.4375 73.023438 26.089844 72.789062 C 25.742188 72.558594 25.421875 72.292969 25.128906 72 C 24.832031 71.703125 24.570312 71.382812 24.339844 71.035156 C 24.109375 70.6875 23.914062 70.320312 23.753906 69.9375 C 23.59375 69.550781 23.476562 69.152344 23.394531 68.742188 C 23.3125 68.335938 23.273438 67.921875 23.277344 67.503906 C 23.277344 67.089844 23.320312 66.675781 23.402344 66.265625 C 23.484375 65.859375 23.605469 65.460938 23.765625 65.078125 C 23.929688 64.691406 24.125 64.328125 24.359375 63.980469 C 24.589844 63.636719 24.855469 63.316406 25.152344 63.023438 C 25.449219 62.726562 25.769531 62.464844 26.121094 62.234375 C 26.46875 62.003906 26.835938 61.808594 27.222656 61.652344 C 27.609375 61.492188 28.007812 61.375 28.417969 61.296875 C 28.824219 61.214844 29.238281 61.175781 29.65625 61.175781 C 30.074219 61.179688 30.488281 61.222656 30.894531 61.304688 C 31.304688 61.386719 31.699219 61.507812 32.085938 61.667969 C 32.46875 61.828125 32.835938 62.027344 33.179688 62.257812 C 33.527344 62.492188 33.847656 62.753906 34.140625 63.046875 C 34.433594 63.34375 34.695312 63.664062 34.929688 64.011719 C 35.160156 64.355469 35.355469 64.722656 35.511719 65.105469 C 35.671875 65.488281 35.792969 65.886719 35.875 66.292969 C 35.953125 66.703125 35.996094 67.113281 35.996094 67.53125 Z M 29.613281 64.605469 C 29.226562 64.605469 28.855469 64.679688 28.503906 64.828125 C 28.148438 64.976562 27.832031 65.1875 27.5625 65.460938 C 27.289062 65.734375 27.082031 66.050781 26.933594 66.40625 C 26.789062 66.761719 26.714844 67.128906 26.71875 67.515625 C 26.703125 67.914062 26.765625 68.300781 26.910156 68.671875 C 27.050781 69.046875 27.261719 69.375 27.542969 69.664062 C 27.820312 69.949219 28.144531 70.171875 28.515625 70.324219 C 28.886719 70.476562 29.269531 70.550781 29.671875 70.546875 C 30.070312 70.542969 30.453125 70.460938 30.820312 70.300781 C 31.1875 70.140625 31.507812 69.914062 31.78125 69.621094 C 32.054688 69.328125 32.257812 68.992188 32.394531 68.617188 C 32.527344 68.242188 32.585938 67.855469 32.5625 67.457031 C 32.554688 67.070312 32.476562 66.703125 32.324219 66.347656 C 32.171875 65.996094 31.957031 65.6875 31.679688 65.417969 C 31.40625 65.152344 31.085938 64.945312 30.726562 64.804688 C 30.371094 64.664062 30 64.597656 29.613281 64.605469 Z M 29.613281 64.605469 " fill-opacity="1" fill-rule="nonzero"/></svg>