<svg id="Capa_1" data-name="Capa 1" xmlns="http://www.w3.org/2000/svg" viewBox="0 0 137 153"><defs><style>.cls-1{fill:#009cb7;}</style></defs><title>HOME</title><path class="cls-1" d="M65.35,40.35c2.31.49,4.2,1.84,6.2,3s4,2.28,5.93,3.43c1.12.65,1.46,1.48,1,2.32s-1.39.91-2.5.27L67.2,44.29c-3-1.75-6-1-7.7,2.06L42.11,76.48c-1.76,3.06-1,6,2.1,7.74l9.07,5.24.79.42c-.15-.33-.24-.52-.32-.71C53,87.11,52.07,85.08,51.41,83a5.25,5.25,0,0,1,2.91-6.46,5.37,5.37,0,0,1,6.79,2.07,19.1,19.1,0,0,0,1.63,2.26v-.75c0-5.68,0-11.36,0-17a4.65,4.65,0,0,1,3.71-4.83,15.67,15.67,0,0,1,2.92,0,4.67,4.67,0,0,1,5-3.67c2.4.13,3.79,1.61,4.44,3.88a4.84,4.84,0,0,1,4.48.49,4.57,4.57,0,0,1,2.1,3.81c0,1.37,0,2.74,0,4.12a13.44,13.44,0,0,1,2.1-.18A4.73,4.73,0,0,1,92,71.52c0,3.17,0,6.33,0,9.5v1c.22-.32.35-.48.46-.65q3.48-6,7-12.07c1.7-3,.91-5.85-2-7.58s-6-3.42-8.92-5.18a2.29,2.29,0,0,1-1-1.28A1.84,1.84,0,0,1,88,53.92a1.3,1.3,0,0,1,1.67-.12c1.27.72,2.53,1.46,3.79,2.18C95.3,57,97.12,58.1,99,59.14a8.21,8.21,0,0,1,4.27,6,1.59,1.59,0,0,0,.12.27v2.11a19.14,19.14,0,0,1-2.69,5.75q-4.44,7.71-8.88,15.4a4.48,4.48,0,0,0-.47,1.18,25.6,25.6,0,0,1-5.86,11.06,2,2,0,0,0-.46,1.19c0,4.44,0,8.89,0,13.34a7.73,7.73,0,0,1,0,.83,1.49,1.49,0,0,1-1.28,1.29,1.47,1.47,0,0,1-1.57-.92,3.25,3.25,0,0,1-.14-1c0-4.78,0-9.55,0-14.32a2.56,2.56,0,0,1,.75-1.89A22.22,22.22,0,0,0,89,84c.07-4.1,0-8.19,0-12.29a1.8,1.8,0,0,0-2.33-2,1.85,1.85,0,0,0-1.24,2c0,1.61,0,3.22,0,4.82a4.78,4.78,0,0,1,0,.76,1.43,1.43,0,0,1-1.31,1.24,1.41,1.41,0,0,1-1.56-1,4,4,0,0,1-.11-1c0-4.38,0-8.75,0-13.12a3.61,3.61,0,0,0-.1-1,1.75,1.75,0,0,0-3.41.52c0,1.68,0,3.37,0,5q0,4.34,0,8.67a3.73,3.73,0,0,1-.06.82,1.44,1.44,0,0,1-1.62,1.15,1.42,1.42,0,0,1-1.31-1.4c0-.88,0-1.76,0-2.64V59.86a4.49,4.49,0,0,0-.06-.9,1.76,1.76,0,0,0-3.46,0,4.49,4.49,0,0,0,0,.9q0,8.44,0,16.88c0,1-.46,1.65-1.28,1.75a1.51,1.51,0,0,1-1.72-1.69c0-2.79,0-5.58,0-8.37,0-1.86,0-3.72,0-5.58a1.7,1.7,0,0,0-1.7-1.75,1.73,1.73,0,0,0-1.81,1.72c0,.27,0,.55,0,.83V85.54c0,.25,0,.5,0,.75a1.48,1.48,0,0,1-1.13,1.43A1.44,1.44,0,0,1,62.94,87c-1-1.62-2.09-3.25-3.14-4.88-.42-.65-.82-1.32-1.26-2a2.35,2.35,0,0,0-4.24,2A31.24,31.24,0,0,0,65.71,99a3,3,0,0,1,1.35,2.7c-.06,4.57,0,9.15,0,13.72a5.71,5.71,0,0,1,0,.83,1.48,1.48,0,0,1-2.87.28,4,4,0,0,1-.11-1q0-6.6,0-13.19a1.5,1.5,0,0,0-.56-1.21c-1.75-1.62-3.44-3.3-5.16-5a6.15,6.15,0,0,0-1.08-.9Q50,91,42.64,86.79A8.22,8.22,0,0,1,39.47,75l3.61-6.25a18.57,18.57,0,0,0-5-.84,1.52,1.52,0,0,1-1.7-1.35A1.48,1.48,0,0,1,38,64.92a20.47,20.47,0,0,1,6.07,1c.39.12.62.12.86-.29q4.74-8.26,9.51-16.51a2.85,2.85,0,0,0,.16-.41c-1.8-.33-3.54-.71-5.3-1-1.41-.2-2.85-.24-4.27-.34-1.11-.08-1.73-.66-1.7-1.6s.69-1.43,1.77-1.41a43.65,43.65,0,0,1,11.06,1.68c.22-.35.45-.7.64-1.06A8.31,8.31,0,0,1,63,40.45c.07,0,.13-.07.2-.1Z"/><path class="cls-1" d="M39.61,55.06c1.23.08,2.53.14,3.83.27a1.48,1.48,0,0,1,1.41,1.41,1.43,1.43,0,0,1-1.08,1.52,4.5,4.5,0,0,1-1.27,0,28.29,28.29,0,0,0-9.79.65c-1.48.37-2.91.9-4.37,1.37a1.54,1.54,0,0,1-1.89-.45,1.5,1.5,0,0,1,.77-2.33,31.3,31.3,0,0,1,8.93-2.23C37.27,55.17,38.4,55.13,39.61,55.06Z"/><path class="cls-1" d="M37.28,44.88A1.53,1.53,0,0,1,39,46.23a1.51,1.51,0,0,1-1.32,1.65c-1.33.27-2.68.46-4,.83-1.81.52-3.58,1.16-5.36,1.76a1.51,1.51,0,0,1-2.12-1,1.33,1.33,0,0,1,.7-1.6A40.91,40.91,0,0,1,37.28,44.88Z"/><path class="cls-1" d="M31.91,67.84A1.38,1.38,0,0,1,31,69c-.9.43-1.81.86-2.73,1.26a1.5,1.5,0,0,1-1.95-.63,1.42,1.42,0,0,1,.57-2A26.47,26.47,0,0,1,30,66.26,1.48,1.48,0,0,1,31.91,67.84Z"/><path class="cls-1" d="M84.51,51.72A1.46,1.46,0,0,1,83,53.18a1.51,1.51,0,0,1-1.49-1.49,1.55,1.55,0,0,1,1.56-1.51A1.49,1.49,0,0,1,84.51,51.72Z"/></svg>