<?xml version="1.0" encoding="UTF-8"?>
<svg id="Capa_1" data-name="Capa 1" xmlns="http://www.w3.org/2000/svg" viewBox="0 0 1080 1080">
  <defs>
    <style>
      .cls-1 {
        fill-rule: evenodd;
      }
    </style>
  </defs>
  <g>
    <path d="m69.28,800.41c0-.67.17-1.21.51-1.61.34-.4.85-.6,1.53-.6h29.54c2.13,0,4.13.3,6.01.91s3.61,1.45,5.18,2.52c1.57,1.07,2.99,2.35,4.25,3.84,1.26,1.49,2.33,3.1,3.21,4.83.88,1.73,1.55,3.55,2.01,5.45.46,1.91.69,3.83.69,5.79,0,2.88-.5,5.7-1.5,8.45-1,2.75-2.43,5.2-4.28,7.35-1.85,2.14-4.07,3.88-6.66,5.21-2.59,1.33-5.46,2.01-8.6,2.04h-14.01v22.86c0,1.38-.71,2.06-2.13,2.06h-13.73c-.62,0-1.11-.17-1.48-.5-.37-.34-.56-.86-.56-1.56v-67.04Zm34.81,21.03c0-.96-.16-1.92-.49-2.88-.32-.96-.79-1.82-1.41-2.57-.62-.75-1.36-1.37-2.24-1.85-.88-.48-1.87-.72-2.98-.72h-9.8v16.04h9.8c1.11,0,2.11-.23,3-.7.89-.46,1.64-1.06,2.24-1.8.6-.74,1.06-1.58,1.39-2.55.32-.96.49-1.95.49-2.98Z"/>
    <path d="m184.86,868.7c-.4.35-.82.58-1.27.67-.45.1-.87.14-1.27.14h-6.98c-.55,0-1.03-.1-1.43-.31-.4-.21-.74-.49-1.02-.84-.28-.35-.51-.75-.69-1.2-.18-.45-.34-.91-.46-1.39l-.97-4.69c-.46.99-1.23,2.03-2.31,3.14s-2.41,2.12-4,3.04c-1.59.93-3.41,1.69-5.48,2.3-2.07.61-4.32.91-6.75.91-3.51,0-6.63-.7-9.34-2.11s-5-3.33-6.87-5.76c-1.87-2.43-3.28-5.27-4.23-8.52-.96-3.25-1.43-6.71-1.43-10.4v-31.45c0-1.22.25-2.14.76-2.76.51-.62,1.32-.94,2.43-.94h10.68c1.33,0,2.23.23,2.73.7.49.47.74,1.37.74,2.72v31.29c0,1.38.25,2.68.76,3.92.51,1.23,1.19,2.32,2.06,3.27.86.95,1.87,1.69,3.03,2.24,1.16.54,2.38.82,3.67.82,1.11,0,2.31-.19,3.61-.58,1.29-.38,2.5-.99,3.61-1.8,1.11-.82,2.03-1.87,2.77-3.15s1.11-2.82,1.11-4.62v-31.25c0-.54.1-1.09.3-1.63.2-.54.5-.96.9-1.25.4-.26.78-.43,1.13-.53.35-.1.76-.14,1.22-.14h10.45c1.32,0,2.28.34,2.87,1.01.58.67.88,1.57.88,2.69v53.74c0,.61-.13,1.17-.39,1.68-.26.51-.62.91-1.09,1.2l.28-.14Z"/>
    <path d="m202.75,809.39c0-2.98.62-5.78,1.85-8.4,1.23-2.62,2.88-4.92,4.95-6.89,2.07-1.97,4.44-3.52,7.12-4.66s5.49-1.71,8.41-1.71h.92c1.05,0,1.86.33,2.43.98.57.66.86,1.56.86,2.71v9.17c0,1.18-.3,2.17-.9,2.95-.6.79-1.39,1.18-2.38,1.18h-.92c-.65,0-1.26.12-1.85.36-.58.24-1.11.57-1.57.98-.46.42-.83.9-1.11,1.46-.28.56-.42,1.18-.42,1.85v5.52h7.26c1.05,0,1.86.3,2.43.89.57.59.85,1.53.85,2.81v8.79c0,1.38-.29,2.39-.85,3.03-.57.64-1.38.96-2.43.96h-7.26v34.43c0,1.22-.39,2.14-1.18,2.76-.79.62-1.64.94-2.57.94h-9.99c-1.11,0-2-.36-2.66-1.08-.66-.72-.99-1.59-.99-2.62v-34.43h-4.76c-1.08,0-1.95-.32-2.61-.96-.66-.64-.99-1.65-.99-3.03v-8.79c0-1.28.33-2.22.99-2.81.66-.59,1.53-.89,2.61-.89h4.76v-5.52Z"/>
    <path d="m242.83,809.39c0-2.98.62-5.78,1.85-8.4,1.23-2.62,2.88-4.92,4.95-6.89,2.07-1.97,4.44-3.52,7.12-4.66s5.49-1.71,8.41-1.71h.92c1.05,0,1.86.33,2.43.98.57.66.86,1.56.86,2.71v9.17c0,1.18-.3,2.17-.9,2.95-.6.79-1.39,1.18-2.38,1.18h-.92c-.65,0-1.26.12-1.85.36-.58.24-1.11.57-1.57.98-.46.42-.83.9-1.11,1.46-.28.56-.42,1.18-.42,1.85v5.52h7.26c1.05,0,1.86.3,2.43.89.57.59.85,1.53.85,2.81v8.79c0,1.38-.29,2.39-.85,3.03-.57.64-1.38.96-2.43.96h-7.26v34.43c0,1.22-.39,2.14-1.18,2.76-.79.62-1.64.94-2.57.94h-9.99c-1.11,0-2-.36-2.66-1.08-.66-.72-.99-1.59-.99-2.62v-34.43h-4.76c-1.08,0-1.95-.32-2.61-.96-.66-.64-.99-1.65-.99-3.03v-8.79c0-1.28.33-2.22.99-2.81.66-.59,1.53-.89,2.61-.89h4.76v-5.52Z"/>
    <path d="m360.59,803.39c.52.32.91.74,1.16,1.25.25.51.2,1.12-.14,1.82l-7.81,11.52c-.34.54-.7.86-1.09.94-.39.08-.86-.06-1.41-.41-1.51-1.18-3.17-2.1-4.99-2.74s-3.74-.96-5.78-.96c-2.53,0-4.85.5-6.98,1.49-2.13.99-3.96,2.35-5.5,4.08s-2.74,3.75-3.61,6.05c-.86,2.3-1.29,4.77-1.29,7.39s.43,5.08,1.29,7.37c.86,2.29,2.06,4.29,3.61,6s3.38,3.07,5.5,4.06,4.45,1.49,6.98,1.49c2.03,0,3.98-.33,5.83-.98,1.85-.66,3.53-1.58,5.04-2.76.55-.35,1.02-.5,1.39-.43.37.06.74.35,1.11.86l7.91,11.81c.34.71.38,1.3.14,1.78-.25.48-.63.88-1.16,1.2-2.9,2.02-6.02,3.58-9.36,4.68-3.34,1.1-6.87,1.66-10.56,1.66-3.27,0-6.4-.43-9.41-1.3s-5.82-2.1-8.44-3.7c-2.62-1.6-5-3.51-7.14-5.74-2.14-2.22-3.98-4.69-5.52-7.4-1.54-2.7-2.73-5.62-3.56-8.74-.83-3.12-1.25-6.38-1.25-9.77s.42-6.65,1.25-9.77c.83-3.12,2.02-6.05,3.56-8.79,1.54-2.74,3.38-5.23,5.52-7.47,2.14-2.24,4.52-4.15,7.14-5.74,2.62-1.58,5.43-2.82,8.44-3.7,3-.88,6.14-1.32,9.41-1.32,3.7,0,7.19.54,10.47,1.61,3.28,1.07,6.37,2.62,9.27,4.63Z"/>
    <path d="m371.45,794.08c0-1.02.25-1.89.74-2.59.49-.7,1.34-1.06,2.54-1.06h11.33c.31,0,.63.09.97.26.34.18.65.42.95.74.29.32.54.71.74,1.15.2.45.3.95.3,1.49v71.74c0,1.22-.33,2.14-.99,2.76-.66.62-1.52.94-2.57.94h-10.73c-1.2,0-2.05-.31-2.54-.94s-.74-1.54-.74-2.76v-71.74Z"/>
    <path d="m449.3,862.21c-2.71,2.59-5.76,4.62-9.15,6.07-3.39,1.46-6.98,2.18-10.77,2.18-4.22,0-8.21-.8-11.97-2.4-3.76-1.6-7.06-3.82-9.89-6.65-2.84-2.83-5.09-6.17-6.75-10.01-1.67-3.84-2.5-8.02-2.5-12.53,0-2.82.33-5.55.99-8.19.66-2.64,1.6-5.11,2.82-7.42,1.22-2.3,2.7-4.42,4.44-6.36,1.74-1.94,3.69-3.59,5.85-4.97,2.16-1.38,4.5-2.45,7.03-3.22s5.19-1.15,8-1.15c2.56,0,5.04.35,7.44,1.06,2.4.7,4.66,1.7,6.77,2.98,2.11,1.28,4.04,2.82,5.8,4.61,1.76,1.79,3.27,3.75,4.53,5.88,1.26,2.13,2.24,4.4,2.94,6.82.69,2.42,1.04,4.91,1.04,7.47,0,1.67-.02,3.03-.07,4.08s-.29,1.9-.72,2.52c-.43.62-1.15,1.06-2.15,1.3-1,.24-2.47.36-4.42.36h-33.29c.31,2.05.93,3.76,1.87,5.14.94,1.38,2.03,2.47,3.26,3.29,1.23.82,2.54,1.4,3.93,1.75,1.39.35,2.7.53,3.93.53,1.11,0,2.25-.12,3.42-.36,1.17-.24,2.3-.56,3.4-.96,1.09-.4,2.1-.86,3-1.39.91-.53,1.64-1.08,2.2-1.66.49-.42.92-.73,1.27-.94s.73-.31,1.13-.31.81.14,1.23.43.89.7,1.41,1.25l4.9,5.76c.34.42.55.79.65,1.13.09.34.14.68.14,1.03,0,.64-.17,1.19-.51,1.66-.34.46-.74.87-1.2,1.22Zm-22.24-40c-1.2,0-2.37.25-3.49.74-1.13.5-2.18,1.16-3.17,1.99-.99.83-1.87,1.78-2.66,2.83-.79,1.06-1.43,2.13-1.92,3.22h23.62c-.65-1.25-1.35-2.4-2.1-3.46-.75-1.06-1.62-1.99-2.59-2.79s-2.08-1.42-3.33-1.87c-1.25-.45-2.71-.67-4.37-.67Z"/>
    <path d="m526,865.96c0,.54-.09,1.07-.28,1.56-.18.5-.49.89-.92,1.18-.34.35-.74.58-1.2.67-.46.1-.86.14-1.2.14h-9.11c-.65,0-1.17-.09-1.57-.26-.4-.18-.72-.42-.97-.75-.25-.32-.46-.71-.62-1.18s-.35-.97-.53-1.51l-.6-2.16c-.83.86-1.78,1.71-2.84,2.54-1.06.83-2.24,1.58-3.51,2.23-1.28.66-2.65,1.18-4.11,1.58-1.46.4-2.98.6-4.55.6-2.81,0-5.5-.37-8.07-1.1s-4.98-1.78-7.21-3.15c-2.23-1.36-4.26-2.99-6.08-4.9-1.82-1.9-3.38-4.03-4.69-6.36-1.31-2.34-2.32-4.86-3.03-7.56-.71-2.71-1.06-5.53-1.06-8.48,0-4.45.79-8.59,2.36-12.41,1.57-3.83,3.71-7.16,6.43-9.99,2.71-2.83,5.9-5.06,9.57-6.67,3.67-1.62,7.6-2.42,11.79-2.42,1.91,0,3.69.22,5.34.67s3.16,1.06,4.53,1.82c1.37.77,2.61,1.69,3.72,2.76,1.11,1.07,2.08,2.23,2.91,3.48l1.34-4.37c.31-.8.56-1.45.76-1.95.2-.5.42-.86.65-1.1.23-.24.52-.4.86-.48.34-.08.82-.12,1.43-.12h6.89c.34,0,.74.05,1.2.14.46.1.86.32,1.2.67.43.35.74.75.92,1.2s.28.96.28,1.54v54.12Zm-45.54-26.89c0,2.11.32,4.09.95,5.93s1.53,3.43,2.71,4.78c1.17,1.34,2.58,2.41,4.23,3.19,1.65.79,3.47,1.18,5.48,1.18s3.98-.39,5.76-1.18c1.77-.78,3.31-1.85,4.62-3.19,1.31-1.34,2.33-2.94,3.07-4.78.74-1.84,1.11-3.82,1.11-5.93s-.37-4-1.11-5.86c-.74-1.86-1.76-3.49-3.07-4.9-1.31-1.41-2.85-2.52-4.62-3.34-1.77-.82-3.69-1.22-5.76-1.22s-3.83.41-5.48,1.22c-1.65.82-3.06,1.93-4.23,3.34-1.17,1.41-2.07,3.04-2.71,4.9-.63,1.86-.95,3.81-.95,5.86Z"/>
    <path d="m538.3,809.39c.4-.35.82-.58,1.27-.67.45-.1.87-.14,1.27-.14h6.98c.55,0,1.03.1,1.43.31.4.21.74.49,1.02.84.28.35.5.75.67,1.2.17.45.33.91.49,1.39l.97,4.21c.46-.99,1.21-2.01,2.24-3.06,1.03-1.05,2.31-2.01,3.84-2.87,1.53-.86,3.29-1.57,5.29-2.13,2-.56,4.24-.84,6.7-.84,3.51,0,6.65.7,9.41,2.11,2.76,1.4,5.1,3.32,7.03,5.75,1.93,2.43,3.39,5.26,4.39,8.51,1,3.24,1.5,6.71,1.5,10.39v31.45c0,1.22-.25,2.14-.76,2.76s-1.32.94-2.43.94h-10.68c-1.33,0-2.24-.23-2.73-.7-.49-.46-.74-1.37-.74-2.71v-31.26c0-1.38-.3-2.68-.9-3.91-.6-1.23-1.39-2.32-2.38-3.26s-2.1-1.69-3.35-2.23c-1.25-.54-2.52-.82-3.81-.82-1.11,0-2.24.26-3.4.77-1.16.51-2.22,1.22-3.19,2.14s-1.79,1.99-2.45,3.22c-.66,1.23-1.04,2.57-1.13,4.01v31.21c0,.54-.1,1.09-.3,1.63-.2.54-.5.96-.9,1.25-.4.26-.78.43-1.13.53-.35.1-.76.14-1.22.14h-10.45c-1.33,0-2.28-.34-2.87-1.01-.58-.67-.88-1.57-.88-2.69v-53.7c0-.61.13-1.16.39-1.67s.62-.91,1.09-1.2l-.28.14Z"/>
    <path d="m603.85,787.98c0-1.34.28-2.3.83-2.86.55-.56,1.42-.84,2.59-.84h10.73c1.08,0,1.95.28,2.61.84.66.56.99,1.51.99,2.86v9.36c0,.38-.09.8-.25,1.25-.17.45-.41.88-.72,1.3-.31.42-.69.76-1.13,1.03-.45.27-.95.41-1.5.41h-10.73c-2.28,0-3.42-1.33-3.42-3.99v-9.36Zm0,24.3c0-1.02.28-1.9.83-2.64.55-.74,1.42-1.1,2.59-1.1h10.59c.37,0,.77.09,1.2.26.43.18.83.43,1.2.77s.69.73.95,1.18c.26.45.39.96.39,1.54v53.54c0,1.22-.32,2.14-.97,2.76-.65.62-1.57.94-2.77.94h-10.59c-2.28,0-3.42-1.23-3.42-3.7v-53.54Z"/>
    <path d="m633.9,809.39c.4-.35.82-.58,1.27-.67.45-.1.87-.14,1.27-.14h6.98c.55,0,1.03.1,1.43.31.4.21.74.49,1.02.84.28.35.5.75.67,1.2.17.45.33.91.49,1.39l.97,4.21c.46-.99,1.21-2.01,2.24-3.06,1.03-1.05,2.31-2.01,3.84-2.87,1.53-.86,3.29-1.57,5.29-2.13,2-.56,4.24-.84,6.7-.84,3.51,0,6.65.7,9.41,2.11,2.76,1.4,5.1,3.32,7.03,5.75,1.93,2.43,3.39,5.26,4.39,8.51,1,3.24,1.5,6.71,1.5,10.39v31.45c0,1.22-.25,2.14-.76,2.76s-1.32.94-2.43.94h-10.68c-1.33,0-2.24-.23-2.73-.7-.49-.46-.74-1.37-.74-2.71v-31.26c0-1.38-.3-2.68-.9-3.91-.6-1.23-1.39-2.32-2.38-3.26s-2.1-1.69-3.35-2.23c-1.25-.54-2.52-.82-3.81-.82-1.11,0-2.24.26-3.4.77-1.16.51-2.22,1.22-3.19,2.14s-1.79,1.99-2.45,3.22c-.66,1.23-1.04,2.57-1.13,4.01v31.21c0,.54-.1,1.09-.3,1.63-.2.54-.5.96-.9,1.25-.4.26-.78.43-1.13.53-.35.1-.76.14-1.22.14h-10.45c-1.33,0-2.28-.34-2.87-1.01-.58-.67-.88-1.57-.88-2.69v-53.7c0-.61.13-1.16.39-1.67s.62-.91,1.09-1.2l-.28.14Z"/>
    <path d="m742.04,867.4c.21-.64.35-1.34.42-2.11.06-.77.09-1.57.09-2.4v-.65c0-.14,0-.26-.02-.36-.02-.1-.02-.22-.02-.36v-.65c-.89.99-1.8,1.97-2.73,2.93-.92.96-1.95,1.82-3.07,2.57-1.12.75-2.4,1.36-3.81,1.83s-3.07.7-4.95.7c-4.16,0-8.01-.74-11.56-2.21-3.54-1.47-6.61-3.53-9.2-6.17-2.59-2.64-4.61-5.8-6.06-9.48-1.45-3.68-2.17-7.73-2.17-12.15s.72-8.49,2.17-12.32c1.45-3.83,3.47-7.16,6.06-9.99s5.66-5.06,9.2-6.67c3.54-1.62,7.4-2.42,11.56-2.42,1.91,0,3.65.22,5.22.67,1.57.45,3.01,1.06,4.32,1.85,1.31.79,2.5,1.71,3.58,2.76,1.08,1.06,2.08,2.18,3,3.36l1.29-4.27c.18-.54.35-1.04.51-1.49.15-.45.35-.82.6-1.13.25-.3.56-.54.95-.7s.89-.24,1.5-.24h6.89c.43,0,.86.08,1.29.24s.82.38,1.18.67.64.66.86,1.1.32.96.32,1.54v48.88c0,4.99-.79,9.44-2.36,13.35-1.57,3.91-3.72,7.2-6.45,9.89-2.73,2.69-5.96,4.74-9.69,6.15-3.73,1.41-7.74,2.11-12.02,2.11-1.66,0-3.45-.15-5.36-.46-1.91-.3-3.81-.76-5.71-1.37-1.9-.61-3.73-1.38-5.5-2.33-1.77-.94-3.34-2.04-4.69-3.29-.46-.35-.85-.79-1.18-1.32-.32-.53-.49-1.11-.49-1.75,0-.8.29-1.65.88-2.54l4.39-6.29c.43-.48.83-.84,1.2-1.08s.77-.36,1.2-.36c.68,0,1.53.38,2.54,1.15.77.77,1.66,1.38,2.66,1.85,1,.46,2.03.83,3.1,1.1,1.06.27,2.11.45,3.14.53,1.03.08,1.96.12,2.8.12,1.39,0,2.83-.19,4.35-.58,1.51-.38,2.92-.95,4.23-1.71,1.31-.75,2.46-1.67,3.47-2.76,1-1.09,1.69-2.34,2.06-3.75Zm-26.44-28.52c0,2.15.32,4.14.95,5.98.63,1.84,1.53,3.43,2.71,4.78,1.17,1.34,2.58,2.4,4.23,3.17s3.47,1.15,5.48,1.15,3.83-.36,5.57-1.08c1.74-.72,3.26-1.72,4.55-3,1.29-1.28,2.33-2.79,3.12-4.51.79-1.73,1.22-3.6,1.32-5.62v-1.58c-.09-1.95-.53-3.8-1.32-5.55-.79-1.74-1.83-3.28-3.12-4.61-1.29-1.33-2.81-2.38-4.55-3.17-1.74-.78-3.6-1.18-5.57-1.18s-3.83.41-5.48,1.22-3.06,1.91-4.23,3.29c-1.17,1.38-2.07,2.99-2.71,4.85-.63,1.86-.95,3.81-.95,5.86Z"/>
    <path d="m821.09,800.08c.03-.19.13-.4.3-.62.17-.22.38-.43.62-.62.25-.19.51-.34.79-.46s.54-.17.79-.17h11.84c.52,0,.97.17,1.34.5.37.34.65.63.83.89l1.16,2.74,24.27,65.02c.25.64.2,1.16-.14,1.56-.34.4-.92.6-1.76.6h-13.27c-.71,0-1.26-.14-1.64-.41-.39-.27-.69-.73-.9-1.37-.62-1.63-1.22-3.26-1.8-4.87-.59-1.62-1.17-3.24-1.76-4.87h-24.55c-.59,1.63-1.18,3.26-1.78,4.87-.6,1.62-1.2,3.24-1.78,4.87-.4,1.18-1.19,1.78-2.36,1.78h-13.64c-.59,0-1.07-.16-1.46-.48-.39-.32-.46-.8-.21-1.44l25.1-67.52Zm8.41,20.55c-.59,1.63-1.18,3.39-1.78,5.28-.6,1.89-1.2,3.79-1.78,5.71-.59,1.92-1.18,3.82-1.78,5.69-.6,1.87-1.19,3.63-1.78,5.26h14.19l-7.07-21.94Z"/>
    <path d="m871.53,809.39c.4-.35.82-.58,1.27-.67.45-.1.87-.14,1.27-.14h6.98c.55,0,1.03.1,1.43.31.4.21.74.49,1.02.84.28.35.5.75.67,1.2.17.45.33.91.49,1.39l.97,4.21c.46-.99,1.21-2.01,2.24-3.06,1.03-1.05,2.31-2.01,3.84-2.87,1.53-.86,3.29-1.57,5.29-2.13,2-.56,4.24-.84,6.7-.84,3.51,0,6.65.7,9.41,2.11,2.76,1.4,5.1,3.32,7.03,5.75,1.93,2.43,3.39,5.26,4.39,8.51,1,3.24,1.5,6.71,1.5,10.39v31.45c0,1.22-.25,2.14-.76,2.76s-1.32.94-2.43.94h-10.68c-1.33,0-2.24-.23-2.73-.7-.49-.46-.74-1.37-.74-2.71v-31.26c0-1.38-.3-2.68-.9-3.91-.6-1.23-1.39-2.32-2.38-3.26s-2.1-1.69-3.35-2.23c-1.25-.54-2.52-.82-3.81-.82-1.11,0-2.24.26-3.4.77-1.16.51-2.22,1.22-3.19,2.14s-1.79,1.99-2.45,3.22c-.66,1.23-1.04,2.57-1.13,4.01v31.21c0,.54-.1,1.09-.3,1.63-.2.54-.5.96-.9,1.25-.4.26-.78.43-1.13.53-.35.1-.76.14-1.22.14h-10.45c-1.33,0-2.28-.34-2.87-1.01-.58-.67-.88-1.57-.88-2.69v-53.7c0-.61.13-1.16.39-1.67s.62-.91,1.09-1.2l-.28.14Z"/>
    <path d="m978.97,863.51c-.83.87-1.78,1.72-2.84,2.57-1.06.85-2.22,1.61-3.47,2.28-1.25.67-2.59,1.22-4.02,1.63-1.43.42-2.95.62-4.55.62-4.19,0-8.05-.82-11.58-2.45-3.53-1.63-6.57-3.87-9.11-6.7-2.54-2.83-4.53-6.17-5.96-10.01-1.43-3.84-2.15-7.97-2.15-12.39s.72-8.59,2.15-12.41c1.43-3.83,3.42-7.16,5.96-9.99,2.54-2.83,5.58-5.06,9.11-6.67,3.53-1.62,7.39-2.42,11.58-2.42,1.69,0,3.24.15,4.65.46,1.4.3,2.68.74,3.84,1.32,1.16.58,2.22,1.27,3.19,2.07.97.8,1.89,1.68,2.75,2.64v-20.02c0-1.02.3-1.89.9-2.59.6-.7,1.5-1.06,2.7-1.06h10.4c.4,0,.82.09,1.27.26.45.18.86.42,1.22.74.37.32.67.71.9,1.15.23.45.35.95.35,1.49v71.79c0,2.46-1.25,3.7-3.75,3.7h-9.06c-.62,0-1.09-.08-1.43-.24-.34-.16-.62-.39-.85-.7-.23-.3-.44-.69-.62-1.15-.18-.46-.42-1-.69-1.61l-.88-2.31Zm-27.05-24.44c0,2.11.32,4.09.95,5.93.63,1.84,1.53,3.43,2.7,4.78,1.17,1.34,2.58,2.41,4.23,3.19,1.65.79,3.47,1.18,5.48,1.18s3.83-.37,5.57-1.1,3.26-1.75,4.55-3.05c1.29-1.3,2.33-2.83,3.12-4.59s1.23-3.65,1.32-5.67v-.67c0-2.05-.37-4-1.11-5.86-.74-1.86-1.76-3.49-3.07-4.9-1.31-1.41-2.85-2.52-4.62-3.34-1.77-.82-3.69-1.22-5.76-1.22s-3.83.41-5.48,1.22c-1.65.82-3.06,1.93-4.23,3.34-1.17,1.41-2.07,3.04-2.7,4.9-.63,1.86-.95,3.81-.95,5.86Z"/>
    <path d="m147.69,926.43c0-.65.16-1.17.49-1.55.33-.39.82-.58,1.47-.58h28.84c3.06,0,5.94.6,8.62,1.79,2.68,1.19,5.01,2.8,7.01,4.84,1.99,2.04,3.56,4.43,4.71,7.16,1.15,2.74,1.72,5.65,1.72,8.74,0,2.1-.28,4.1-.83,6-.55,1.9-1.32,3.68-2.3,5.33-.98,1.65-2.15,3.15-3.5,4.5-1.35,1.34-2.83,2.5-4.44,3.45l11.47,22.44c.21.43.48.94.8,1.53.33.59.49,1.1.49,1.53,0,.5-.16.87-.47,1.14-.31.26-.74.39-1.27.39h-15.31c-.51,0-.96-.15-1.36-.46-.4-.31-.66-.73-.78-1.25l-10.85-21.19h-7.23v20.91c0,1.33-.68,1.99-2.05,1.99h-13.26c-.6,0-1.07-.16-1.43-.49-.36-.32-.54-.83-.54-1.51v-64.72Zm34.95,20.59c0-.93-.16-1.85-.49-2.78-.33-.93-.79-1.78-1.38-2.55-.6-.77-1.31-1.42-2.14-1.95-.83-.53-1.76-.87-2.77-1.02-.83-.06-1.62-.12-2.34-.16-.73-.05-1.53-.07-2.39-.07h-6.16v17.02h8.21c.54,0,1.01-.01,1.43-.05.42-.03.88-.08,1.38-.14,1.04-.12,1.98-.44,2.81-.95.83-.51,1.53-1.14,2.1-1.9.56-.76,1-1.61,1.29-2.55.3-.94.45-1.91.45-2.9Z"/>
    <path d="m253.04,986.11c-2.62,2.5-5.57,4.46-8.84,5.87-3.27,1.41-6.74,2.11-10.4,2.11-4.08,0-7.93-.77-11.56-2.32-3.63-1.55-6.82-3.69-9.55-6.42-2.74-2.74-4.91-5.96-6.52-9.67-1.61-3.71-2.41-7.74-2.41-12.1,0-2.72.32-5.35.96-7.91.64-2.55,1.55-4.94,2.72-7.16,1.17-2.23,2.6-4.27,4.29-6.14,1.68-1.87,3.56-3.47,5.65-4.8,2.08-1.33,4.34-2.36,6.79-3.11,2.44-.74,5.01-1.11,7.72-1.11,2.47,0,4.87.34,7.19,1.02,2.32.68,4.5,1.64,6.54,2.88,2.04,1.24,3.91,2.72,5.6,4.45,1.7,1.73,3.15,3.62,4.38,5.68,1.22,2.06,2.17,4.25,2.83,6.58.67,2.33,1,4.74,1,7.21,0,1.61-.02,2.92-.07,3.94-.04,1.02-.28,1.83-.69,2.43-.42.6-1.11,1.02-2.08,1.25-.97.23-2.39.35-4.26.35h-32.14c.3,1.98.9,3.63,1.81,4.96s1.96,2.39,3.15,3.18c1.19.79,2.46,1.35,3.79,1.69,1.34.34,2.6.51,3.79.51,1.07,0,2.17-.12,3.3-.35s2.22-.54,3.28-.93c1.06-.39,2.02-.83,2.9-1.34.88-.51,1.58-1.04,2.12-1.6.48-.4.88-.7,1.23-.9.34-.2.71-.3,1.09-.3s.78.14,1.18.42c.4.28.86.68,1.36,1.21l4.73,5.56c.33.4.54.77.62,1.09.09.32.13.66.13,1,0,.62-.16,1.15-.49,1.6-.33.45-.71.84-1.16,1.18Zm-21.47-38.62c-1.16,0-2.28.24-3.37.72-1.09.48-2.11,1.12-3.06,1.92-.95.8-1.81,1.72-2.57,2.74-.76,1.02-1.38,2.06-1.85,3.11h22.81c-.62-1.21-1.3-2.32-2.03-3.34-.73-1.02-1.56-1.92-2.5-2.69s-2.01-1.38-3.21-1.81c-1.21-.43-2.61-.65-4.22-.65Z"/>
    <path d="m269.91,934.83c.39-.34.79-.56,1.21-.65.42-.09.82-.14,1.21-.14h6.74c.57,0,1.03.09,1.41.28s.68.44.92.76c.24.33.44.7.6,1.11.16.42.32.87.47,1.37l1.88,5.61c.83-1.11,1.67-2.25,2.52-3.41.85-1.16,1.85-2.21,3.01-3.15,1.16-.94,2.54-1.72,4.15-2.34s3.57-.93,5.89-.93c4.08,0,7.83.78,11.27,2.34,3.44,1.56,6.4,3.71,8.88,6.44,2.48,2.74,4.43,5.95,5.83,9.64,1.4,3.69,2.1,7.69,2.1,11.99s-.7,8.25-2.1,11.96c-1.4,3.71-3.34,6.93-5.83,9.67-2.49,2.74-5.45,4.89-8.88,6.47-3.44,1.58-7.2,2.36-11.27,2.36-1.93,0-3.6-.24-5-.72s-2.64-1.1-3.73-1.88c-1.09-.77-2.05-1.62-2.88-2.55s-1.65-1.85-2.46-2.78v21.61c0,.93-.27,1.72-.8,2.36-.54.65-1.37.97-2.5.97h-10.22c-.36,0-.74-.08-1.16-.23-.42-.16-.8-.37-1.16-.65s-.66-.63-.89-1.04c-.24-.42-.36-.89-.36-1.41v-70.43c0-.62.11-1.13.33-1.53s.5-.77.83-1.11Zm41.69,28.93c0-1.98-.31-3.86-.94-5.63s-1.5-3.33-2.63-4.66c-1.13-1.33-2.49-2.38-4.06-3.15s-3.32-1.16-5.22-1.16-3.65.36-5.33,1.09c-1.68.73-3.15,1.71-4.42,2.97-1.27,1.25-2.29,2.73-3.08,4.43-.79,1.7-1.23,3.51-1.32,5.42v.7c0,2.04.37,3.96,1.12,5.75.74,1.79,1.76,3.35,3.04,4.66,1.28,1.31,2.78,2.36,4.51,3.13,1.73.77,3.56,1.16,5.49,1.16s3.65-.39,5.22-1.16,2.93-1.82,4.06-3.13c1.13-1.31,2.01-2.87,2.63-4.66.62-1.79.94-3.71.94-5.75Z"/>
    <path d="m395.26,989.72c0,.53-.09,1.03-.27,1.51s-.48.86-.89,1.14c-.33.34-.71.56-1.16.65s-.83.14-1.16.14h-8.79c-.62,0-1.13-.08-1.52-.25-.39-.17-.7-.41-.94-.72-.24-.31-.44-.69-.6-1.14-.16-.45-.33-.93-.51-1.46l-.58-2.09c-.8.83-1.72,1.65-2.75,2.46-1.03.8-2.16,1.52-3.39,2.16-1.24.63-2.56,1.14-3.97,1.53-1.41.39-2.88.58-4.4.58-2.71,0-5.3-.36-7.79-1.07-2.49-.71-4.81-1.72-6.96-3.04-2.16-1.31-4.11-2.89-5.87-4.73s-3.27-3.89-4.53-6.14c-1.27-2.26-2.24-4.69-2.92-7.3-.69-2.61-1.03-5.34-1.03-8.18,0-4.3.76-8.29,2.28-11.99,1.52-3.69,3.59-6.91,6.21-9.64,2.62-2.74,5.7-4.88,9.24-6.44,3.54-1.56,7.33-2.34,11.38-2.34,1.84,0,3.56.22,5.16.65,1.59.43,3.05,1.02,4.37,1.76,1.32.74,2.52,1.63,3.59,2.67,1.07,1.04,2.01,2.16,2.81,3.36l1.29-4.22c.3-.77.54-1.4.74-1.88s.4-.83.62-1.07c.22-.23.5-.39.83-.46.33-.08.79-.12,1.38-.12h6.65c.33,0,.71.05,1.16.14s.83.31,1.16.65c.42.34.71.73.89,1.16.18.43.27.93.27,1.48v52.25Zm-43.97-25.96c0,2.04.3,3.95.92,5.73.61,1.78,1.48,3.31,2.61,4.61,1.13,1.3,2.49,2.33,4.08,3.08,1.59.76,3.36,1.14,5.29,1.14s3.85-.38,5.56-1.14c1.71-.76,3.2-1.79,4.46-3.08,1.26-1.3,2.25-2.84,2.97-4.61.71-1.78,1.07-3.69,1.07-5.73s-.36-3.86-1.07-5.66c-.71-1.79-1.7-3.37-2.97-4.73-1.27-1.36-2.75-2.43-4.46-3.22-1.71-.79-3.56-1.18-5.56-1.18s-3.7.39-5.29,1.18c-1.59.79-2.95,1.86-4.08,3.22-1.13,1.36-2,2.94-2.61,4.73-.61,1.79-.92,3.68-.92,5.66Z"/>
    <path d="m405.92,914.43c0-1.3.27-2.22.8-2.76.54-.54,1.37-.81,2.5-.81h10.36c1.04,0,1.88.27,2.52.81.64.54.96,1.46.96,2.76v9.04c0,.37-.08.77-.25,1.21-.16.43-.4.85-.69,1.25-.3.4-.66.73-1.09,1-.43.26-.92.39-1.45.39h-10.36c-2.2,0-3.3-1.28-3.3-3.85v-9.04Zm0,23.46c0-.99.27-1.84.8-2.55.54-.71,1.37-1.07,2.5-1.07h10.22c.36,0,.74.08,1.16.25.42.17.8.42,1.16.74.36.33.66.7.92,1.14.25.43.38.93.38,1.48v51.7c0,1.17-.31,2.06-.94,2.67s-1.52.9-2.68.9h-10.22c-2.2,0-3.3-1.19-3.3-3.57v-51.7Z"/>
    <path d="m433.78,937.7c0-.59.1-1.1.31-1.53.21-.43.48-.79.83-1.07.34-.28.73-.49,1.16-.63.43-.14.86-.21,1.27-.21h6.74c.74,0,1.34.23,1.79.7.45.46.83,1.05,1.14,1.76s.59,1.5.83,2.36c.24.87.52,1.7.85,2.5.89-1.02,1.78-2.02,2.66-3.01s1.82-1.87,2.83-2.64c1.01-.77,2.12-1.4,3.33-1.88,1.21-.48,2.58-.72,4.13-.72s3.04.12,4.31.37,2.46.61,3.59,1.09c1.13.48,2.25,1.09,3.37,1.83s2.33,1.61,3.64,2.6c1.28.77,1.92,1.68,1.92,2.74,0,.68-.25,1.47-.76,2.36l-4.06,7.19c-.8,1.21-1.8,1.81-2.99,1.81-.6,0-1.27-.17-2.01-.51-1.28-1.3-2.58-2.26-3.91-2.9-1.32-.63-2.83-.95-4.53-.95-1.16,0-2.18.17-3.06.51-.88.34-1.67.82-2.39,1.44s-1.38,1.36-2.01,2.23-1.25,1.82-1.88,2.87v33.57c0,1.17-.28,2.06-.83,2.67s-1.47.9-2.75.9h-10.04c-2.32,0-3.48-1.19-3.48-3.57v-51.88Z"/>
    <path d="m515.15,926.34c.03-.53.22-1,.56-1.41.34-.42.79-.63,1.36-.63h13.26c.45,0,.91.19,1.38.58.48.39.71.87.71,1.46v22.02h22.19v-22.02c0-.56.19-1.04.56-1.44.37-.4.85-.6,1.45-.6h13.04c.59,0,1.11.16,1.56.46.45.31.67.8.67,1.48v64.86c0,.68-.19,1.19-.58,1.53-.39.34-.89.51-1.51.51h-13.18c-.59,0-1.08-.17-1.45-.51s-.56-.85-.56-1.53v-26.33h-22.19v26.33c0,.65-.2,1.15-.6,1.51-.4.36-.95.53-1.63.53h-13.12c-1.25,0-1.89-.6-1.92-1.81v-65Z"/>
    <path d="m582.91,963.76c0-2.84.35-5.58,1.05-8.21.7-2.63,1.68-5.06,2.95-7.3,1.26-2.24,2.78-4.28,4.55-6.12s3.74-3.41,5.92-4.71c2.17-1.3,4.51-2.3,7.03-3.01,2.51-.71,5.14-1.07,7.88-1.07,4.05,0,7.85.78,11.41,2.34,3.56,1.56,6.65,3.71,9.28,6.44s4.72,5.95,6.25,9.64c1.53,3.69,2.3,7.69,2.3,11.99,0,2.84-.35,5.57-1.05,8.18-.7,2.61-1.68,5.05-2.95,7.3-1.27,2.26-2.78,4.3-4.55,6.14s-3.74,3.42-5.91,4.73c-2.17,1.31-4.5,2.33-6.99,3.04-2.49.71-5.08,1.07-7.79,1.07s-5.36-.36-7.88-1.07c-2.52-.71-4.86-1.72-7.03-3.04-2.17-1.31-4.14-2.89-5.92-4.73s-3.29-3.89-4.55-6.14c-1.27-2.26-2.25-4.69-2.95-7.3-.7-2.61-1.05-5.34-1.05-8.18Zm16.29,0c0,2.04.3,3.95.92,5.73.61,1.78,1.47,3.31,2.59,4.61,1.12,1.3,2.47,2.33,4.06,3.08,1.59.76,3.39,1.14,5.38,1.14s3.68-.38,5.24-1.14c1.56-.76,2.89-1.79,3.97-3.08,1.09-1.3,1.92-2.84,2.5-4.61.58-1.78.87-3.69.87-5.73s-.29-3.86-.87-5.66c-.58-1.79-1.41-3.37-2.5-4.73-1.09-1.36-2.41-2.43-3.97-3.22-1.56-.79-3.31-1.18-5.24-1.18s-3.79.39-5.38,1.18c-1.59.79-2.95,1.86-4.06,3.22-1.12,1.36-1.98,2.94-2.59,4.73-.61,1.79-.92,3.68-.92,5.66Z"/>
    <path d="m650.41,920.31c0-.99.24-1.82.71-2.5.48-.68,1.29-1.02,2.46-1.02h10.94c.3,0,.61.09.94.26s.63.41.92.72c.28.31.52.68.71,1.11.19.43.29.91.29,1.44v69.27c0,1.17-.32,2.06-.96,2.67s-1.47.9-2.48.9h-10.36c-1.16,0-1.98-.3-2.46-.9-.48-.6-.71-1.49-.71-2.67v-69.27Z"/>
    <path d="m718.48,987.36c-.8.83-1.72,1.66-2.75,2.48-1.03.82-2.14,1.55-3.35,2.2-1.21.65-2.5,1.17-3.88,1.58-1.38.4-2.85.6-4.4.6-4.05,0-7.77-.79-11.18-2.36-3.41-1.58-6.34-3.73-8.79-6.47-2.46-2.74-4.38-5.96-5.76-9.67-1.38-3.71-2.08-7.7-2.08-11.96s.69-8.29,2.08-11.99c1.38-3.69,3.3-6.91,5.76-9.64s5.39-4.88,8.79-6.44c3.41-1.56,7.13-2.34,11.18-2.34,1.64,0,3.13.15,4.49.44,1.35.29,2.59.72,3.71,1.28,1.12.56,2.14,1.22,3.08,1.99.94.77,1.82,1.62,2.66,2.55v-19.33c0-.99.29-1.82.87-2.5s1.45-1.02,2.61-1.02h10.04c.39,0,.8.09,1.23.25.43.17.83.41,1.18.72.36.31.65.68.87,1.11.22.43.33.91.33,1.44v69.32c0,2.38-1.21,3.57-3.62,3.57h-8.75c-.6,0-1.06-.08-1.38-.23-.33-.15-.6-.38-.83-.67-.22-.29-.42-.66-.6-1.11s-.4-.97-.67-1.55l-.85-2.23Zm-26.11-23.6c0,2.04.3,3.95.92,5.73s1.48,3.31,2.61,4.61c1.13,1.3,2.49,2.33,4.08,3.08,1.59.76,3.35,1.14,5.29,1.14s3.7-.35,5.38-1.07c1.68-.71,3.15-1.69,4.4-2.94s2.25-2.73,3.01-4.43c.76-1.7,1.18-3.52,1.27-5.47v-.65c0-1.98-.36-3.86-1.07-5.66-.71-1.79-1.7-3.37-2.97-4.73-1.26-1.36-2.75-2.43-4.46-3.22-1.71-.79-3.56-1.18-5.56-1.18s-3.7.39-5.29,1.18c-1.59.79-2.95,1.86-4.08,3.22-1.13,1.36-2,2.94-2.61,4.73-.61,1.79-.92,3.68-.92,5.66Z"/>
    <path d="m747,914.43c0-1.3.27-2.22.8-2.76.54-.54,1.37-.81,2.5-.81h10.36c1.04,0,1.88.27,2.52.81.64.54.96,1.46.96,2.76v9.04c0,.37-.08.77-.25,1.21-.16.43-.4.85-.69,1.25-.3.4-.66.73-1.09,1-.43.26-.92.39-1.45.39h-10.36c-2.2,0-3.3-1.28-3.3-3.85v-9.04Zm0,23.46c0-.99.27-1.84.8-2.55.54-.71,1.37-1.07,2.5-1.07h10.22c.36,0,.74.08,1.16.25.42.17.8.42,1.16.74.36.33.66.7.92,1.14.25.43.38.93.38,1.48v51.7c0,1.17-.31,2.06-.94,2.67s-1.52.9-2.68.9h-10.22c-2.2,0-3.3-1.19-3.3-3.57v-51.7Z"/>
    <path d="m776.02,935.1c.39-.34.8-.56,1.23-.65.43-.09.84-.14,1.23-.14h6.74c.54,0,1,.1,1.38.3.39.2.71.47.98.81.27.34.48.72.65,1.16.16.43.32.88.47,1.34l.94,4.07c.45-.96,1.17-1.94,2.17-2.96,1-1.02,2.23-1.94,3.71-2.77s3.18-1.52,5.11-2.06c1.93-.54,4.09-.81,6.47-.81,3.39,0,6.42.68,9.08,2.04,2.66,1.36,4.92,3.21,6.79,5.55,1.86,2.34,3.27,5.08,4.24,8.21.97,3.13,1.45,6.48,1.45,10.03v30.37c0,1.17-.25,2.06-.74,2.67-.49.6-1.27.9-2.34.9h-10.31c-1.28,0-2.16-.22-2.63-.67-.48-.45-.71-1.32-.71-2.62v-30.18c0-1.33-.29-2.59-.87-3.78-.58-1.19-1.35-2.24-2.3-3.15-.95-.91-2.03-1.63-3.24-2.16s-2.43-.79-3.68-.79c-1.07,0-2.17.25-3.28.74-1.12.5-2.14,1.18-3.08,2.06s-1.73,1.92-2.37,3.11c-.64,1.19-1,2.48-1.09,3.87v30.14c0,.53-.1,1.05-.29,1.58-.19.53-.48.93-.87,1.21-.39.25-.75.42-1.09.51s-.74.14-1.18.14h-10.09c-1.28,0-2.2-.32-2.77-.97-.57-.65-.85-1.51-.85-2.6v-51.85c0-.59.13-1.12.38-1.62.25-.49.6-.88,1.05-1.16l-.27.14Z"/>
    <path d="m880.43,991.11c.21-.62.34-1.3.4-2.04.06-.74.09-1.51.09-2.32v-.63c0-.14,0-.25-.02-.35s-.02-.21-.02-.35v-.63c-.86.96-1.74,1.9-2.63,2.83-.89.93-1.88,1.75-2.97,2.48-1.09.73-2.31,1.31-3.68,1.76-1.37.45-2.96.67-4.78.67-4.02,0-7.74-.71-11.16-2.13s-6.38-3.41-8.88-5.96-4.45-5.6-5.85-9.16c-1.4-3.55-2.1-7.46-2.1-11.73s.7-8.2,2.1-11.89c1.4-3.69,3.35-6.91,5.85-9.64s5.46-4.88,8.88-6.44,7.14-2.34,11.16-2.34c1.84,0,3.53.22,5.04.65s2.91,1.03,4.17,1.79c1.26.76,2.42,1.65,3.46,2.67,1.04,1.02,2.01,2.1,2.9,3.25l1.25-4.13c.18-.52.34-1,.49-1.44.15-.43.34-.8.58-1.09.24-.29.54-.52.92-.67.37-.15.85-.23,1.45-.23h6.65c.42,0,.83.08,1.25.23.42.15.8.37,1.14.65s.62.63.83,1.07c.21.43.31.93.31,1.48v47.2c0,4.82-.76,9.12-2.28,12.89s-3.59,6.96-6.23,9.55c-2.63,2.6-5.75,4.57-9.35,5.93-3.6,1.36-7.47,2.04-11.61,2.04-1.61,0-3.33-.15-5.18-.44-1.85-.29-3.68-.73-5.51-1.32-1.83-.59-3.6-1.34-5.31-2.25-1.71-.91-3.22-1.97-4.53-3.18-.45-.34-.83-.77-1.14-1.28s-.47-1.07-.47-1.69c0-.77.28-1.59.85-2.46l4.24-6.07c.42-.46.8-.81,1.16-1.04.36-.23.74-.35,1.16-.35.65,0,1.47.37,2.46,1.11.74.74,1.6,1.34,2.57,1.78.97.45,1.96.8,2.99,1.07s2.04.43,3.04.51c1,.08,1.9.12,2.7.12,1.34,0,2.74-.19,4.2-.56,1.46-.37,2.82-.92,4.08-1.65,1.26-.73,2.38-1.62,3.35-2.67s1.63-2.26,1.99-3.62Zm-25.53-27.54c0,2.07.3,4,.92,5.77.61,1.78,1.48,3.32,2.61,4.61,1.13,1.3,2.49,2.32,4.08,3.06,1.59.74,3.35,1.11,5.29,1.11s3.7-.35,5.38-1.04c1.68-.7,3.15-1.66,4.4-2.9s2.25-2.69,3.01-4.36,1.18-3.48,1.27-5.42v-1.53c-.09-1.88-.51-3.67-1.27-5.35s-1.76-3.17-3.01-4.45-2.72-2.3-4.4-3.06c-1.68-.76-3.47-1.14-5.38-1.14s-3.7.39-5.29,1.18c-1.59.79-2.95,1.85-4.08,3.18s-2,2.89-2.61,4.68c-.61,1.79-.92,3.68-.92,5.66Z"/>
    <path d="m916.45,974.84c.8.83,1.67,1.54,2.61,2.11s1.84,1.04,2.7,1.39c.86.36,1.62.61,2.28.76.65.16,1.1.23,1.34.23.57,0,1.29-.02,2.17-.07.88-.05,1.72-.18,2.52-.42.8-.23,1.5-.61,2.08-1.14.58-.53.87-1.27.87-2.23,0-.87-.16-1.55-.49-2.06-.33-.51-.8-.94-1.43-1.3s-1.39-.67-2.3-.95c-.91-.28-1.93-.6-3.06-.97-3.57-.99-6.52-2.18-8.84-3.57s-4.16-2.94-5.51-4.66c-1.35-1.71-2.3-3.56-2.83-5.54-.54-1.98-.8-4.06-.8-6.26,0-2.57.49-4.9,1.47-7,.98-2.1,2.38-3.9,4.2-5.4,1.81-1.5,3.99-2.66,6.52-3.48,2.53-.82,5.34-1.23,8.44-1.23,1.87,0,3.63.16,5.27.49,1.64.32,3.2.83,4.69,1.53,1.49.7,2.94,1.59,4.35,2.69,1.41,1.1,2.82,2.4,4.22,3.92.51.62.77,1.2.78,1.74.01.54-.32,1.12-1,1.74-1.16.99-2.27,1.96-3.33,2.92s-2.15,2.02-3.28,3.2c-.36.31-.71.5-1.07.58-.36.08-.7.07-1.03-.02-.33-.09-.64-.25-.94-.46-.3-.22-.57-.48-.8-.79-1.04-1.21-2.23-2.02-3.57-2.43s-2.59-.63-3.75-.63c-1.46,0-2.62.26-3.48.79-.86.53-1.27,1.33-1.21,2.41.06.8.35,1.43.87,1.88.52.45,1.16.81,1.92,1.09.76.28,1.56.5,2.41.67.85.17,1.63.36,2.34.58,2.68.9,5.13,1.87,7.37,2.92,2.23,1.05,4.17,2.34,5.8,3.87s2.91,3.36,3.82,5.49c.91,2.13,1.36,4.73,1.36,7.79s-.59,5.8-1.76,8.21c-1.18,2.41-2.79,4.44-4.84,6.07-2.05,1.64-4.49,2.89-7.3,3.76-2.81.87-5.84,1.3-9.08,1.3-1.85,0-3.72-.17-5.62-.51-1.9-.34-3.75-.89-5.54-1.65-1.79-.76-3.48-1.73-5.09-2.92-1.61-1.19-3.04-2.63-4.29-4.34-.33-.43-.57-.89-.74-1.37-.16-.48-.24-.95-.22-1.41s.1-.89.27-1.28c.16-.39.42-.72.78-1l5.76-5.98c.71-.62,1.35-.83,1.9-.65.55.19,1.26.71,2.12,1.58Z"/>
  </g>
  <g>
    <g id="_2513505851920" data-name=" 2513505851920">
      <path d="m438.81,354.33c.64-.71,1.18-1.51,1.61-2.36.34-.34.53-.76.63-1.24.33-.64.59-1.32.71-2.05.26.03.05-.44.1-.89.34-.75.55-1.55.6-2.36.08-1.71-.25-3.43-.9-5-3.36-6.73-9.61-11.35-16.86-12.46-4.77-.46-9.57-.73-14.3-.81l-.7-36.39c1.16-.02,2.32.03,3.47.05.2-.46,39.9.97,42.43-21.67.86-7.68-2.54-18.16-13.25-32.4-9.2-11.72-4.4-14.21,6.33-5.13,19,15.73,31.6,41.29,32.17,77.36.21,53.49-3.74,44.68-42.03,45.35Z"/>
      <path d="m476.95,361.49l.18-6.6-40.29,1.02.05,6.4c.26,3,2.66,5.3,5.56,5.34l29.2-.63c2.87.03,5.24-2.36,5.29-5.33,0-.07,0-.14,0-.21Z"/>
    </g>
    <polygon points="428.31 549.09 470.47 538.34 474.8 556.65 432.64 567.41 428.31 549.09"/>
    <path d="m375.82,542.85l137.61-33.63h0l2.29,10.12c.38,1.69-.62,3.37-2.25,3.77h0s-131.78,32.21-131.78,32.21c-1.62.4-3.25-.65-3.63-2.33h0l-2.29-10.12h.05Z"/>
    <polygon points="445.84 491.54 455.89 489.08 462.1 516.49 452.05 518.94 445.84 491.54"/>
    <polygon points="418.55 498.23 428.6 495.77 434.81 523.18 424.76 525.64 418.55 498.23"/>
    <polygon points="404.93 501.56 414.98 499.1 421.18 526.51 411.13 528.96 404.93 501.56"/>
    <polygon points="377.64 508.25 387.69 505.79 393.9 533.2 383.85 535.66 377.64 508.25"/>
    <polygon points="391.31 504.92 401.36 502.47 407.57 529.88 397.52 532.33 391.31 504.92"/>
    <polygon points="432.22 494.9 442.27 492.45 448.48 519.86 438.43 522.31 432.22 494.9"/>
    <polygon points="459.52 488.27 469.57 485.81 475.78 513.22 465.73 515.67 459.52 488.27"/>
    <path d="m500.48,478.33l6.19,27.5,4.66-1.15-1.16-19.47c-1.11-4.49-5.26-7.43-9.69-6.87Z"/>
    <path d="m374.1,509.24c-4.18,1.48-6.67,5.94-5.82,10.45l7.31,17.98,4.66-1.15-6.14-27.28Z"/>
    <polygon points="473.14 484.88 483.19 482.43 489.4 509.84 479.35 512.29 473.14 484.88"/>
    <polygon points="486.81 481.5 496.86 479.05 503.07 506.46 493.02 508.91 486.81 481.5"/>
    <g>
      <path class="cls-1" d="m685.69,421.55l-25.93-17.83c-16.46,19.61-37.03,35.05-60.15,45.14,2.21,2.55,4.5,5.04,6.8,7.53,11.63-1.16,27.7-10.62,48.21-28.37-16.91,19.1-30.92,30.66-42.01,34.67l5.63,5.37c8.33-5.47,16.28-11.54,23.8-18.16-6.49,7.4-13.41,14.39-20.72,20.92,2.2,1.96,4.44,3.91,6.72,5.81,11.12-6.33,21.54-13.89,31.08-22.55-8.15,9.56-17.18,18.27-26.97,25.99,3.67,2.9,7.37,5.64,11.21,8.28,3.83,2.63,7.71,5.16,11.66,7.59,3.09-12.36,7.31-24.37,12.6-35.88-3.97,12.56-6.62,25.55-7.89,38.73,2.58,1.47,5.05,2.91,7.75,4.17,2.92-9.57,6.43-18.93,10.53-28.01-2.98,9.77-5.29,19.75-6.92,29.87l6.96,3.36c-.74-12.19,4.08-30.1,14.48-53.73-7.83,26.5-10,45.58-6.51,57.23,3.08,1.27,6.15,2.5,9.27,3.62.03-26.13,5.76-51.86,16.76-75.27h0l-26.37-18.48Z"/>
      <path class="cls-1" d="m717.78,413.01c1.54,6.64,1.03,13.65-1.53,19.94l-50.64-35.1c5.42-5.78,12.75-9.2,20.55-9.6l31.98,24.18c-.1.22-.25.4-.36.58Z"/>
      <polygon class="cls-1" points="714.48 435.14 713.55 437.26 661.64 401.6 663.26 399.66 714.48 435.14"/>
    </g>
    <line x1="710.05" y1="423.72" x2="674.71" y2="402.15"/>
    <g>
      <path d="m739.94,260.91c-20.64-99.92-109.1-175.02-215.14-175.02s-198.76,78.74-216.51,182.22c14.73-6.48,30.15-11.63,46.18-15.31,22.51-72.69,90.23-125.49,170.34-125.49s144.4,50.14,168.54,119.98c4.9,14.19,8.07,29.18,9.26,44.7.33,4.5.5,9.04.5,13.62,0,9.94-.83,19.67-2.38,29.14-2.27,13.9-6.16,27.27-11.45,39.87-4.07,9.62-8.93,18.84-14.55,27.52l35.34,21.58c6.01-9.37,11.31-19.2,15.81-29.46,5.8-13.08,10.34-26.8,13.47-41.03,3.21-14.44,4.97-29.43,5.15-44.77.04-.94.04-1.91.04-2.85,0-15.31-1.58-30.26-4.57-44.7Z"/>
      <path d="m744.52,305.61c0,.94,0,1.91-.04,2.85-.18,15.34-1.95,30.33-5.15,44.77-3.13,14.23-7.67,27.95-13.47,41.03-4.5,10.27-9.8,20.1-15.81,29.46l-35.34-21.58c5.62-8.68,10.48-17.9,14.55-27.52,5.29-12.61,9.18-25.97,11.45-39.87,1.55-9.47,2.38-19.2,2.38-29.14,0-4.57-.18-9.11-.5-13.62-1.19-15.52-4.36-30.51-9.26-44.7-24.13-69.84-90.48-119.98-168.54-119.98s-147.82,52.8-170.34,125.49c-16.03,3.67-31.44,8.83-46.18,15.31,17.76-103.48,107.95-182.22,216.51-182.22s194.51,75.1,215.14,175.02c2.99,14.44,4.57,29.39,4.57,44.7Z"/>
    </g>
    <g>
      <path d="m488.53,713.75c-23.52,8.61-48.91,13.29-75.39,13.29-5.73,0-11.38-.22-16.97-.65-14.08-1.08-27.77-3.46-40.95-7.1-13.58-3.67-26.62-8.64-39.01-14.77-13.36-6.56-25.97-14.48-37.64-23.52-16.79-13-31.55-28.35-43.98-45.6v-.04c-8.64-12.03-16.14-25-22.23-38.68v-.04c-8.5-19.09-14.37-39.55-17.14-61.02-1.19-9.26-1.8-18.73-1.8-28.31,0-5.37.18-10.73.58-15.99,1.01-14.12,3.35-27.84,6.92-41.1v-.04c3.64-13.54,8.54-26.55,14.59-38.94,12.5-25.72,29.9-48.63,50.97-67.46,11.85-10.7,24.89-20.06,38.86-27.95,13-7.35,26.84-13.4,41.35-18.01,13.58-4.29,27.74-7.31,42.29-8.9,7.96-.9,15.99-1.33,24.17-1.33,5.98,0,11.92.25,17.79.72-1.04,5.62-1.58,11.38-1.58,17.29,0,8.46,1.12,16.68,3.17,24.49-6.38-.72-12.82-1.08-19.38-1.08-7.78,0-15.45.5-22.98,1.48-14.01,1.8-27.48,5.22-40.23,10.05-13.51,5.11-26.22,11.85-37.93,19.95-12.61,8.68-24.06,18.95-34,30.54-9.15,10.63-17.07,22.33-23.56,34.94-6.3,12.25-11.2,25.32-14.52,39.01-3.31,13.58-5.08,27.73-5.08,42.32,0,.68,0,1.37.04,2.05v.04c.22,22.91,4.83,44.74,12.93,64.8,6.12,15.13,14.3,29.25,24.13,41.96,13.51,17.54,30.26,32.49,49.31,43.98,12.68,7.64,26.4,13.76,40.88,18.05,13.11,3.93,26.84,6.38,40.99,7.17,3.32.14,6.66.25,10.01.25,13.44,0,26.51-1.48,39.12-4.32,11.02,11.92,23.16,22.8,36.27,32.45Z"/>
      <path d="m488.53,713.75c-23.52,8.61-48.91,13.29-75.39,13.29-5.73,0-11.38-.22-16.97-.65-14.08-1.08-27.77-3.46-40.95-7.1-13.58-3.67-26.62-8.64-39.01-14.77-13.36-6.56-25.97-14.48-37.64-23.52-16.79-13-31.55-28.35-43.98-45.6.04-.04,0-.04,0-.04-8.64-12.03-16.14-25-22.23-38.68.04-.04,0-.04,0-.04-8.5-19.09-14.37-39.55-17.14-61.02-1.19-9.26-1.8-18.73-1.8-28.31,0-5.37.18-10.73.58-15.99,1.01-14.12,3.35-27.84,6.92-41.1v-.04c3.64-13.54,8.54-26.55,14.59-38.94,12.5-25.72,29.9-48.63,50.97-67.46,11.85-10.7,24.89-20.06,38.86-27.95,13-7.35,26.84-13.4,41.35-18.01,13.58-4.29,27.74-7.31,42.29-8.9,7.96-.9,15.99-1.33,24.17-1.33,5.98,0,11.92.25,17.79.72-1.04,5.62-1.58,11.38-1.58,17.29,0,8.46,1.12,16.68,3.17,24.49-6.38-.72-12.82-1.08-19.38-1.08-7.78,0-15.45.5-22.98,1.48-14.01,1.8-27.48,5.22-40.23,10.05-13.51,5.11-26.22,11.85-37.93,19.95-12.61,8.68-24.06,18.95-34,30.54-9.15,10.63-17.07,22.33-23.56,34.94-6.3,12.25-11.2,25.32-14.52,39.01-3.31,13.58-5.08,27.73-5.08,42.32,0,.68,0,1.37.04,2.05v.04c.22,22.91,4.83,44.74,12.93,64.8,6.12,15.13,14.3,29.25,24.13,41.96,13.51,17.54,30.26,32.49,49.31,43.98,12.68,7.64,26.4,13.76,40.88,18.05,13.11,3.93,26.84,6.38,40.99,7.17,3.32.14,6.66.25,10.01.25,13.44,0,26.51-1.48,39.12-4.32,11.02,11.92,23.16,22.8,36.27,32.45Z"/>
    </g>
    <path d="m863.38,503.72c0,10.91-.79,21.65-2.34,32.13-3.35,22.94-10.27,44.74-20.17,64.8-4.75,9.73-10.23,19.05-16.39,27.88-12.9,18.73-28.67,35.3-46.65,49.2-11.78,9.08-24.49,17-38,23.59-12.43,6.05-25.5,10.99-39.12,14.62-13.18,3.53-26.87,5.91-40.95,6.88-5.29.43-10.7.61-16.1.61-24.06,0-47.22-3.85-68.87-11.06-15.31-5.01-29.9-11.71-43.47-19.81-12.97-7.74-25.11-16.78-36.13-26.94-10.66-9.69-20.32-20.49-28.82-32.13-8.29-11.27-15.53-23.38-21.5-36.16-3.39-7.1-6.38-14.44-8.93-21.94l40.02-10.99c1.33,3.64,2.74,7.24,4.32,10.77,5.69,13.04,12.93,25.29,21.47,36.45,8.39,11.06,18.04,21.07,28.78,29.86,10.99,9.04,23.09,16.82,36.06,23.05,13.61,6.52,28.17,11.38,43.44,14.3,10.88,2.09,22.15,3.17,33.64,3.17,3.28,0,6.48-.07,9.73-.25,14.19-.76,27.95-3.21,41.06-7.1,14.59-4.32,28.38-10.48,41.17-18.19,20.39-12.28,38.14-28.53,52.12-47.73,6.92-9.47,12.93-19.67,17.9-30.44,9.73-21.07,15.45-44.34,16.21-68.87.07-1.91.11-3.82.11-5.73,0-13.44-1.48-26.51-4.32-39.12-3.06-13.76-7.74-26.91-13.8-39.26-7.71-15.7-17.65-30.11-29.43-42.79,4.72-15.31,8.07-31.23,9.91-47.62,24.67,20.57,44.77,46.47,58.5,75.89,5.84,12.46,10.52,25.54,13.94,39.15,3.35,13.33,5.48,27.12,6.27,41.28.25,4.14.36,8.28.36,12.46Z"/>
  </g>
</svg>