<?xml version="1.0" encoding="UTF-8"?>
<svg id="Capa_1" data-name="Capa 1" xmlns="http://www.w3.org/2000/svg" viewBox="0 0 2161.5 869">
  <defs>
    <style>
      .cls-1 {
        fill-rule: evenodd;
      }
    </style>
  </defs>
  <g>
    <path d="m804.44,194.53c0-1.85.46-3.32,1.4-4.42.93-1.1,2.33-1.65,4.19-1.65h81.24c5.85,0,11.36.84,16.53,2.51,5.17,1.67,9.92,3.98,14.24,6.93,4.32,2.95,8.22,6.47,11.7,10.56,3.47,4.09,6.42,8.52,8.84,13.27,2.42,4.75,4.26,9.75,5.53,14.99,1.27,5.24,1.91,10.54,1.91,15.91,0,7.92-1.38,15.67-4.13,23.24-2.76,7.57-6.67,14.31-11.76,20.2-5.08,5.9-11.19,10.67-18.31,14.33-7.12,3.65-15,5.53-23.65,5.61h-38.52v62.85c0,3.79-1.95,5.68-5.85,5.68h-37.76c-1.7,0-3.05-.46-4.07-1.39-1.02-.92-1.53-2.35-1.53-4.29v-184.33Zm95.73,57.84c0-2.64-.45-5.28-1.33-7.92s-2.18-5-3.88-7.06c-1.7-2.07-3.75-3.76-6.17-5.08-2.42-1.32-5.15-1.98-8.2-1.98h-26.95v44.1h26.95c3.05,0,5.8-.64,8.26-1.92,2.46-1.28,4.51-2.93,6.17-4.95,1.65-2.02,2.92-4.36,3.81-7s1.33-5.37,1.33-8.19Z"/>
    <path d="m1122.26,382.32c-1.1.97-2.27,1.58-3.5,1.85-1.23.26-2.4.4-3.5.4h-19.2c-1.53,0-2.84-.29-3.94-.86-1.1-.57-2.03-1.34-2.8-2.31s-1.4-2.06-1.91-3.29c-.51-1.23-.93-2.5-1.27-3.82l-2.67-12.91c-1.27,2.72-3.39,5.6-6.36,8.62-2.97,3.03-6.63,5.82-11,8.36-4.37,2.55-9.39,4.66-15.06,6.32-5.68,1.67-11.87,2.5-18.56,2.5-9.66,0-18.22-1.94-25.68-5.81-7.46-3.87-13.75-9.15-18.88-15.85-5.13-6.69-9.01-14.5-11.63-23.44-2.63-8.93-3.94-18.46-3.94-28.59v-86.49c0-3.34.7-5.88,2.1-7.59,1.4-1.72,3.62-2.58,6.67-2.58h29.37c3.64,0,6.14.64,7.5,1.92,1.35,1.28,2.03,3.77,2.03,7.47v86.05c0,3.79.7,7.38,2.1,10.77,1.4,3.39,3.28,6.39,5.66,8.99,2.37,2.6,5.15,4.65,8.33,6.15,3.18,1.5,6.55,2.25,10.11,2.25,3.05,0,6.36-.53,9.92-1.59,3.56-1.06,6.87-2.71,9.92-4.96s5.59-5.13,7.63-8.66c2.03-3.52,3.05-7.76,3.05-12.69v-85.92c0-1.5.27-3,.83-4.49.55-1.5,1.38-2.64,2.48-3.44,1.1-.7,2.14-1.19,3.11-1.45.97-.26,2.1-.4,3.37-.4h28.73c3.64,0,6.27.92,7.88,2.77,1.61,1.85,2.42,4.31,2.42,7.39v147.77c0,1.67-.36,3.21-1.08,4.62-.72,1.41-1.72,2.51-2.99,3.3l.76-.39Z"/>
    <path d="m1171.46,219.23c0-8.19,1.69-15.89,5.09-23.11,3.39-7.22,7.92-13.54,13.6-18.95,5.68-5.41,12.2-9.68,19.58-12.81,7.37-3.12,15.08-4.69,23.14-4.69h2.54c2.88,0,5.1.9,6.67,2.71,1.57,1.81,2.35,4.29,2.35,7.46v25.22c0,3.26-.83,5.96-2.48,8.12-1.65,2.16-3.84,3.23-6.55,3.23h-2.54c-1.78,0-3.48.33-5.08.99-1.61.66-3.05,1.56-4.32,2.71-1.27,1.15-2.29,2.49-3.05,4.03-.76,1.54-1.14,3.24-1.14,5.08v15.19h19.96c2.88,0,5.11.81,6.67,2.44,1.57,1.63,2.35,4.2,2.35,7.72v24.16c0,3.79-.78,6.56-2.35,8.32-1.57,1.76-3.79,2.64-6.67,2.64h-19.96v94.68c0,3.35-1.08,5.88-3.24,7.59-2.16,1.72-4.51,2.58-7.06,2.58h-27.46c-3.05,0-5.49-.99-7.31-2.97-1.82-1.98-2.73-4.38-2.73-7.2v-94.68h-13.09c-2.97,0-5.36-.88-7.18-2.64-1.82-1.76-2.73-4.53-2.73-8.32v-24.16c0-3.52.91-6.1,2.73-7.72,1.82-1.63,4.21-2.44,7.18-2.44h13.09v-15.19Z"/>
    <path d="m1281.68,219.23c0-8.19,1.69-15.89,5.09-23.11,3.39-7.22,7.92-13.54,13.6-18.95,5.68-5.41,12.2-9.68,19.58-12.81,7.37-3.12,15.08-4.69,23.14-4.69h2.54c2.88,0,5.1.9,6.67,2.71,1.57,1.81,2.35,4.29,2.35,7.46v25.22c0,3.26-.83,5.96-2.48,8.12-1.65,2.16-3.84,3.23-6.55,3.23h-2.54c-1.78,0-3.48.33-5.08.99-1.61.66-3.05,1.56-4.32,2.71-1.27,1.15-2.29,2.49-3.05,4.03-.76,1.54-1.14,3.24-1.14,5.08v15.19h19.96c2.88,0,5.11.81,6.67,2.44,1.57,1.63,2.35,4.2,2.35,7.72v24.16c0,3.79-.78,6.56-2.35,8.32-1.57,1.76-3.79,2.64-6.67,2.64h-19.96v94.68c0,3.35-1.08,5.88-3.24,7.59-2.16,1.72-4.51,2.58-7.06,2.58h-27.46c-3.05,0-5.49-.99-7.31-2.97-1.82-1.98-2.73-4.38-2.73-7.2v-94.68h-13.09c-2.97,0-5.36-.88-7.18-2.64-1.82-1.76-2.73-4.53-2.73-8.32v-24.16c0-3.52.91-6.1,2.73-7.72,1.82-1.63,4.21-2.44,7.18-2.44h13.09v-15.19Z"/>
    <path d="m950.9,504.54c1.44.88,2.5,2.03,3.18,3.43.68,1.41.55,3.08-.38,5.02l-21.49,31.69c-.93,1.5-1.93,2.36-2.99,2.57-1.06.22-2.35-.15-3.88-1.12-4.15-3.26-8.73-5.76-13.73-7.53-5-1.76-10.3-2.64-15.89-2.64-6.95,0-13.35,1.37-19.2,4.09-5.85,2.73-10.89,6.47-15.13,11.22-4.24,4.75-7.54,10.3-9.92,16.64-2.37,6.34-3.56,13.12-3.56,20.33s1.19,13.98,3.56,20.27c2.37,6.29,5.68,11.8,9.92,16.51,4.24,4.71,9.28,8.43,15.13,11.16,5.85,2.73,12.25,4.09,19.2,4.09,5.59,0,10.93-.9,16.02-2.71,5.09-1.8,9.7-4.33,13.86-7.59,1.53-.97,2.8-1.36,3.81-1.19,1.02.18,2.03.97,3.05,2.38l21.74,32.48c.93,1.94,1.06,3.57.38,4.89-.68,1.32-1.74,2.42-3.18,3.3-7.97,5.55-16.55,9.84-25.74,12.88-9.2,3.04-18.88,4.56-29.05,4.56-8.98,0-17.61-1.19-25.87-3.57-8.26-2.38-16-5.76-23.2-10.17-7.21-4.4-13.75-9.66-19.64-15.78-5.89-6.12-10.96-12.89-15.19-20.33-4.24-7.44-7.5-15.45-9.79-24.03-2.29-8.58-3.43-17.54-3.43-26.87s1.14-18.29,3.43-26.87c2.29-8.58,5.55-16.64,9.79-24.16,4.24-7.53,9.3-14.37,15.19-20.53,5.89-6.16,12.44-11.42,19.64-15.78,7.2-4.36,14.94-7.75,23.2-10.17,8.26-2.42,16.89-3.63,25.87-3.63,10.17,0,19.77,1.47,28.79,4.42,9.03,2.95,17.52,7.2,25.49,12.74Z"/>
    <path d="m980.77,478.92c0-2.82.68-5.19,2.03-7.13,1.36-1.93,3.69-2.9,6.99-2.9h31.15c.85,0,1.74.24,2.67.73.93.49,1.8,1.17,2.61,2.05.8.88,1.48,1.94,2.03,3.17.55,1.23.83,2.6.83,4.09v197.28c0,3.35-.91,5.88-2.73,7.59-1.82,1.72-4.18,2.58-7.06,2.58h-29.49c-3.3,0-5.64-.86-6.99-2.58-1.36-1.72-2.03-4.25-2.03-7.59v-197.28Z"/>
    <path d="m1194.85,666.29c-7.46,7.13-15.85,12.7-25.17,16.7-9.32,4-19.2,6.01-29.62,6.01-11.61,0-22.59-2.2-32.93-6.6-10.34-4.4-19.41-10.5-27.21-18.29-7.8-7.79-13.98-16.97-18.56-27.53-4.58-10.56-6.87-22.05-6.87-34.46,0-7.75.91-15.25,2.73-22.51,1.82-7.26,4.41-14.06,7.75-20.4,3.35-6.34,7.42-12.17,12.2-17.5,4.79-5.33,10.15-9.88,16.08-13.67,5.93-3.78,12.37-6.73,19.32-8.85,6.95-2.11,14.28-3.17,21.99-3.17,7.03,0,13.86.97,20.47,2.91,6.61,1.94,12.82,4.67,18.62,8.19,5.8,3.52,11.12,7.75,15.96,12.68,4.83,4.93,8.98,10.32,12.46,16.17,3.47,5.86,6.17,12.11,8.07,18.75,1.91,6.65,2.86,13.49,2.86,20.53,0,4.58-.06,8.32-.19,11.22-.13,2.9-.78,5.22-1.97,6.93-1.19,1.72-3.16,2.91-5.91,3.57-2.75.66-6.8.99-12.14.99h-91.53c.85,5.63,2.56,10.34,5.15,14.13,2.58,3.79,5.57,6.8,8.96,9.04,3.39,2.25,6.99,3.85,10.81,4.82,3.81.97,7.42,1.45,10.81,1.45,3.05,0,6.19-.33,9.41-.99,3.22-.66,6.33-1.54,9.34-2.64,3.01-1.1,5.76-2.38,8.26-3.83,2.5-1.45,4.51-2.97,6.04-4.56,1.35-1.14,2.52-2,3.5-2.57.97-.57,2.01-.86,3.11-.86s2.22.4,3.37,1.19,2.44,1.94,3.88,3.43l13.48,15.85c.93,1.15,1.53,2.18,1.78,3.1.25.92.38,1.87.38,2.84,0,1.76-.47,3.28-1.4,4.56-.93,1.28-2.03,2.4-3.31,3.37Zm-61.15-109.99c-3.3,0-6.5.68-9.6,2.05-3.09,1.37-6,3.19-8.71,5.48-2.71,2.29-5.15,4.88-7.31,7.79s-3.92,5.86-5.28,8.85h64.96c-1.78-3.43-3.71-6.6-5.79-9.51-2.08-2.91-4.45-5.46-7.12-7.66-2.67-2.2-5.72-3.92-9.15-5.15-3.43-1.23-7.44-1.85-12.01-1.85Z"/>
    <path d="m1405.76,676.59c0,1.5-.25,2.93-.76,4.29-.51,1.37-1.36,2.44-2.54,3.23-.93.97-2.03,1.58-3.31,1.85-1.27.26-2.37.4-3.3.4h-25.04c-1.78,0-3.22-.24-4.32-.73-1.1-.48-1.99-1.17-2.67-2.05-.68-.88-1.25-1.96-1.72-3.24-.47-1.28-.95-2.66-1.46-4.16l-1.65-5.94c-2.29,2.38-4.89,4.71-7.82,7-2.92,2.29-6.15,4.34-9.66,6.14-3.52,1.8-7.29,3.26-11.31,4.36-4.03,1.1-8.2,1.65-12.52,1.65-7.71,0-15.11-1.01-22.18-3.04-7.08-2.02-13.69-4.91-19.83-8.65-6.15-3.74-11.72-8.23-16.72-13.47-5-5.24-9.3-11.07-12.9-17.5-3.6-6.42-6.38-13.36-8.33-20.8-1.95-7.44-2.92-15.21-2.92-23.31,0-12.23,2.16-23.61,6.48-34.13,4.32-10.52,10.21-19.67,17.67-27.47,7.46-7.79,16.23-13.91,26.32-18.35,10.08-4.44,20.89-6.67,32.42-6.67,5.25,0,10.15.62,14.68,1.85,4.53,1.23,8.69,2.91,12.46,5.02,3.77,2.11,7.18,4.64,10.23,7.59,3.05,2.95,5.72,6.14,8.01,9.57l3.69-12.02c.85-2.2,1.55-3.98,2.1-5.35.55-1.36,1.14-2.38,1.78-3.04.64-.66,1.42-1.1,2.35-1.32.93-.22,2.25-.33,3.94-.33h18.94c.93,0,2.03.13,3.3.4,1.27.26,2.37.88,3.31,1.85,1.19.97,2.03,2.07,2.54,3.3.51,1.23.76,2.64.76,4.23v148.81Zm-125.22-73.95c0,5.81.87,11.25,2.61,16.31,1.74,5.06,4.21,9.44,7.44,13.14,3.22,3.7,7.1,6.62,11.63,8.78,4.53,2.16,9.55,3.24,15.06,3.24s10.95-1.08,15.83-3.24c4.87-2.16,9.11-5.08,12.71-8.78,3.6-3.7,6.42-8.08,8.45-13.14,2.03-5.06,3.05-10.5,3.05-16.31s-1.02-11-3.05-16.11c-2.03-5.1-4.85-9.59-8.45-13.47-3.6-3.87-7.84-6.93-12.71-9.18-4.88-2.25-10.15-3.37-15.83-3.37s-10.53,1.12-15.06,3.37c-4.54,2.25-8.41,5.3-11.63,9.18-3.22,3.88-5.7,8.36-7.44,13.47-1.74,5.11-2.61,10.48-2.61,16.11Z"/>
    <path d="m1439.57,521.03c1.1-.97,2.27-1.58,3.5-1.85,1.23-.26,2.39-.4,3.5-.4h19.2c1.53,0,2.84.29,3.94.86,1.1.57,2.03,1.34,2.8,2.31s1.38,2.06,1.84,3.29c.46,1.23.91,2.5,1.33,3.82l2.67,11.59c1.27-2.72,3.33-5.53,6.17-8.43,2.84-2.9,6.36-5.53,10.55-7.9,4.2-2.37,9.05-4.32,14.56-5.86,5.51-1.54,11.65-2.3,18.43-2.3,9.66,0,18.29,1.93,25.87,5.79,7.58,3.86,14.03,9.13,19.32,15.8,5.3,6.67,9.32,14.47,12.08,23.39,2.75,8.92,4.13,18.44,4.13,28.56v86.49c0,3.35-.7,5.88-2.1,7.59-1.4,1.72-3.62,2.58-6.67,2.58h-29.37c-3.64,0-6.15-.64-7.5-1.92-1.36-1.27-2.03-3.76-2.03-7.46v-85.96c0-3.78-.83-7.37-2.48-10.76-1.65-3.39-3.83-6.38-6.55-8.98-2.71-2.6-5.78-4.64-9.22-6.14-3.43-1.5-6.93-2.25-10.49-2.25-3.05,0-6.17.71-9.34,2.11-3.18,1.41-6.1,3.37-8.77,5.88-2.67,2.51-4.92,5.46-6.74,8.85-1.82,3.39-2.86,7.06-3.11,11.03v85.83c0,1.5-.28,2.99-.83,4.49-.55,1.5-1.38,2.64-2.48,3.43-1.1.71-2.14,1.19-3.11,1.45-.98.26-2.1.4-3.37.4h-28.73c-3.64,0-6.27-.92-7.88-2.77-1.61-1.85-2.42-4.31-2.42-7.39v-147.66c0-1.67.36-3.2,1.08-4.61.72-1.41,1.72-2.5,2.99-3.29l-.76.39Z"/>
    <path d="m1619.84,462.15c0-3.7.76-6.32,2.29-7.86,1.53-1.54,3.9-2.31,7.12-2.31h29.49c2.97,0,5.36.77,7.18,2.31,1.82,1.54,2.73,4.16,2.73,7.86v25.75c0,1.06-.23,2.2-.7,3.43-.47,1.23-1.12,2.42-1.97,3.57-.85,1.14-1.89,2.09-3.12,2.84-1.23.75-2.61,1.12-4.13,1.12h-29.49c-6.27,0-9.41-3.65-9.41-10.96v-25.75Zm0,66.81c0-2.82.76-5.24,2.29-7.26,1.53-2.02,3.9-3.04,7.12-3.04h29.11c1.02,0,2.12.24,3.31.73,1.19.49,2.29,1.19,3.3,2.11,1.02.92,1.89,2,2.61,3.24.72,1.23,1.08,2.64,1.08,4.23v147.23c0,3.35-.89,5.88-2.67,7.59-1.78,1.72-4.32,2.58-7.63,2.58h-29.11c-6.27,0-9.41-3.39-9.41-10.17v-147.23Z"/>
    <path d="m1702.47,521.03c1.1-.97,2.27-1.58,3.5-1.85,1.23-.26,2.39-.4,3.5-.4h19.2c1.53,0,2.84.29,3.94.86,1.1.57,2.03,1.34,2.8,2.31s1.38,2.06,1.84,3.29c.46,1.23.91,2.5,1.33,3.82l2.67,11.59c1.27-2.72,3.33-5.53,6.17-8.43,2.84-2.9,6.36-5.53,10.55-7.9,4.2-2.37,9.05-4.32,14.56-5.86,5.51-1.54,11.65-2.3,18.43-2.3,9.66,0,18.29,1.93,25.87,5.79,7.58,3.86,14.03,9.13,19.32,15.8,5.3,6.67,9.32,14.47,12.08,23.39,2.75,8.92,4.13,18.44,4.13,28.56v86.49c0,3.35-.7,5.88-2.1,7.59-1.4,1.72-3.62,2.58-6.67,2.58h-29.37c-3.64,0-6.15-.64-7.5-1.92-1.36-1.27-2.03-3.76-2.03-7.46v-85.96c0-3.78-.83-7.37-2.48-10.76-1.65-3.39-3.83-6.38-6.55-8.98-2.71-2.6-5.78-4.64-9.22-6.14-3.43-1.5-6.93-2.25-10.49-2.25-3.05,0-6.17.71-9.34,2.11-3.18,1.41-6.1,3.37-8.77,5.88-2.67,2.51-4.92,5.46-6.74,8.85-1.82,3.39-2.86,7.06-3.11,11.03v85.83c0,1.5-.28,2.99-.83,4.49-.55,1.5-1.38,2.64-2.48,3.43-1.1.71-2.14,1.19-3.11,1.45-.98.26-2.1.4-3.37.4h-28.73c-3.64,0-6.27-.92-7.88-2.77-1.61-1.85-2.42-4.31-2.42-7.39v-147.66c0-1.67.36-3.2,1.08-4.61.72-1.41,1.72-2.5,2.99-3.29l-.76.39Z"/>
    <path d="m1999.82,680.55c.59-1.76.97-3.7,1.14-5.81.17-2.11.25-4.31.25-6.6v-1.78c0-.4-.02-.73-.06-.99-.04-.26-.06-.59-.06-.99v-1.78c-2.46,2.73-4.96,5.41-7.5,8.05-2.54,2.64-5.36,5-8.45,7.06-3.09,2.07-6.59,3.74-10.49,5.02-3.9,1.28-8.43,1.91-13.6,1.91-11.44,0-22.04-2.02-31.78-6.07-9.75-4.05-18.18-9.71-25.3-16.97-7.12-7.26-12.67-15.95-16.65-26.08-3.98-10.12-5.98-21.26-5.98-33.41s1.99-23.35,5.98-33.87c3.98-10.52,9.53-19.67,16.65-27.46,7.12-7.79,15.55-13.91,25.3-18.35,9.75-4.44,20.34-6.67,31.78-6.67,5.25,0,10.04.62,14.37,1.85,4.32,1.23,8.28,2.93,11.89,5.08,3.6,2.16,6.88,4.69,9.85,7.59,2.97,2.91,5.72,5.99,8.26,9.24l3.56-11.75c.51-1.5.97-2.86,1.4-4.09.42-1.23.97-2.26,1.65-3.1.68-.84,1.55-1.47,2.61-1.92,1.06-.44,2.44-.66,4.13-.66h18.94c1.19,0,2.37.22,3.56.66,1.19.44,2.27,1.06,3.24,1.85.97.79,1.76,1.81,2.35,3.04.59,1.23.89,2.64.89,4.23v134.42c0,13.73-2.16,25.97-6.48,36.71-4.32,10.74-10.23,19.81-17.73,27.2-7.5,7.39-16.38,13.03-26.63,16.9-10.26,3.87-21.27,5.81-33.05,5.81-4.58,0-9.49-.42-14.75-1.25-5.26-.84-10.49-2.09-15.7-3.76-5.21-1.67-10.26-3.81-15.13-6.4-4.88-2.6-9.18-5.61-12.9-9.04-1.27-.97-2.35-2.18-3.24-3.63-.89-1.45-1.33-3.06-1.33-4.82,0-2.2.8-4.53,2.42-7l12.08-17.3c1.19-1.32,2.29-2.31,3.31-2.97,1.02-.66,2.12-.99,3.31-.99,1.86,0,4.2,1.06,6.99,3.17,2.12,2.11,4.55,3.81,7.31,5.08,2.75,1.28,5.59,2.29,8.52,3.04,2.92.75,5.8,1.23,8.64,1.45,2.84.22,5.4.33,7.69.33,3.81,0,7.8-.53,11.95-1.58,4.15-1.06,8.03-2.62,11.63-4.69,3.6-2.07,6.78-4.6,9.53-7.59,2.75-2.99,4.64-6.42,5.66-10.3Zm-72.72-78.43c0,5.9.87,11.38,2.61,16.44,1.74,5.06,4.21,9.44,7.44,13.14,3.22,3.7,7.1,6.6,11.63,8.72,4.53,2.11,9.55,3.17,15.06,3.17s10.53-.99,15.32-2.97c4.79-1.98,8.96-4.73,12.52-8.25,3.56-3.52,6.42-7.66,8.58-12.41,2.16-4.75,3.37-9.9,3.62-15.45v-4.36c-.25-5.37-1.46-10.45-3.62-15.25-2.16-4.8-5.02-9.02-8.58-12.68-3.56-3.65-7.74-6.56-12.52-8.72-4.79-2.16-9.9-3.23-15.32-3.23s-10.53,1.12-15.06,3.37c-4.54,2.24-8.41,5.26-11.63,9.04-3.22,3.79-5.7,8.23-7.44,13.34-1.74,5.11-2.61,10.48-2.61,16.11Z"/>
  </g>
  <g>
    <g id="_2513505851920" data-name=" 2513505851920">
      <path d="m338.79,361.93c.58-.64,1.06-1.36,1.45-2.13.3-.3.48-.69.56-1.11.3-.57.53-1.18.64-1.85.23.03.04-.4.09-.8.31-.67.49-1.39.54-2.13.07-1.54-.23-3.09-.81-4.5-3.02-6.05-8.65-10.21-15.16-11.21-4.29-.41-8.6-.66-12.86-.73l-.63-32.72c1.05-.02,2.08.03,3.12.05.18-.42,35.89.87,38.15-19.49.77-6.91-2.28-16.33-11.92-29.14-8.27-10.54-3.95-12.78,5.69-4.61,17.09,14.14,28.41,37.13,28.94,69.57.19,48.11-3.37,40.18-37.8,40.78Z"/>
      <path d="m373.08,368.37l.16-5.93-36.23.92.05,5.76c.23,2.7,2.39,4.77,5,4.8l26.26-.56c2.58.03,4.71-2.12,4.76-4.8,0-.06,0-.12,0-.19Z"/>
    </g>
    <polygon points="329.34 537.08 367.26 527.41 371.15 543.88 333.23 553.56 329.34 537.08"/>
    <path d="m282.13,531.47l123.75-30.24h0l2.06,9.1c.34,1.52-.56,3.03-2.02,3.39h0s-118.52,28.96-118.52,28.96c-1.46.36-2.92-.58-3.26-2.1h0l-2.06-9.1h.05Z"/>
    <polygon points="345.11 485.32 354.14 483.11 359.73 507.76 350.69 509.97 345.11 485.32"/>
    <polygon points="320.57 491.34 329.6 489.13 335.19 513.78 326.15 515.99 320.57 491.34"/>
    <polygon points="308.31 494.33 317.35 492.12 322.93 516.77 313.89 518.98 308.31 494.33"/>
    <polygon points="283.77 500.35 292.81 498.14 298.39 522.79 289.35 525 283.77 500.35"/>
    <polygon points="296.06 497.36 305.1 495.15 310.69 519.8 301.65 522.01 296.06 497.36"/>
    <polygon points="332.86 488.35 341.9 486.14 347.48 510.79 338.44 513 332.86 488.35"/>
    <polygon points="357.41 482.38 366.45 480.17 372.03 504.82 362.99 507.03 357.41 482.38"/>
    <path d="m394.25,473.44l5.57,24.73,4.19-1.04-1.05-17.51c-1-4.04-4.73-6.69-8.71-6.18Z"/>
    <path d="m280.59,501.24c-3.76,1.33-6,5.35-5.24,9.4l6.57,16.17,4.19-1.04-5.52-24.53Z"/>
    <polygon points="369.66 479.34 378.69 477.13 384.28 501.78 375.24 503.99 369.66 479.34"/>
    <polygon points="381.95 476.3 390.99 474.09 396.57 498.74 387.53 500.95 381.95 476.3"/>
    <g>
      <path class="cls-1" d="m560.81,422.38l-23.32-16.04c-14.8,17.64-33.3,31.52-54.1,40.6,1.99,2.29,4.05,4.53,6.12,6.77,10.46-1.05,24.91-9.55,43.36-25.51-15.21,17.18-27.81,27.57-37.78,31.18l5.07,4.83c7.49-4.92,14.65-10.38,21.41-16.33-5.84,6.66-12.06,12.94-18.63,18.81,1.97,1.76,3.99,3.52,6.05,5.22,10-5.69,19.37-12.49,27.95-20.28-7.33,8.6-15.45,16.43-24.26,23.38,3.3,2.61,6.63,5.07,10.08,7.44,3.45,2.37,6.93,4.64,10.49,6.82,2.78-11.11,6.57-21.92,11.33-32.27-3.57,11.3-5.95,22.98-7.09,34.83,2.32,1.33,4.54,2.61,6.97,3.75,2.62-8.61,5.79-17.02,9.47-25.19-2.68,8.79-4.76,17.77-6.22,26.87l6.26,3.02c-.67-10.96,3.67-27.07,13.02-48.32-7.04,23.83-8.99,40.99-5.86,51.47,2.77,1.15,5.54,2.25,8.33,3.26.03-23.5,5.18-46.64,15.07-67.7h0l-23.72-16.62Z"/>
      <path class="cls-1" d="m589.67,414.7c1.39,5.97.93,12.28-1.37,17.94l-45.54-31.57c4.87-5.2,11.47-8.27,18.48-8.64l28.76,21.75c-.09.2-.23.36-.33.52Z"/>
      <polygon class="cls-1" points="586.7 434.6 585.86 436.51 539.19 404.44 540.64 402.69 586.7 434.6"/>
    </g>
    <line x1="582.72" y1="424.33" x2="550.94" y2="404.93"/>
    <g>
      <path d="m609.6,277.91c-18.56-89.86-98.12-157.4-193.49-157.4s-178.75,70.81-194.72,163.88c13.25-5.83,27.11-10.46,41.53-13.77,20.25-65.37,81.15-112.86,153.19-112.86s129.87,45.09,151.57,107.9c4.41,12.76,7.26,26.24,8.32,40.2.29,4.05.45,8.13.45,12.24,0,8.94-.74,17.69-2.14,26.21-2.04,12.5-5.54,24.52-10.3,35.86-3.66,8.65-8.03,16.94-13.09,24.75l31.78,19.4c5.41-8.42,10.17-17.27,14.22-26.5,5.22-11.76,9.3-24.1,12.12-36.9,2.88-12.99,4.47-26.47,4.63-40.26.03-.84.03-1.72.03-2.56,0-13.77-1.43-27.21-4.11-40.2Z"/>
      <path d="m613.72,318.11c0,.84,0,1.72-.03,2.56-.16,13.8-1.75,27.28-4.63,40.26-2.82,12.8-6.9,25.14-12.12,36.9-4.05,9.23-8.81,18.08-14.22,26.5l-31.78-19.4c5.05-7.81,9.43-16.1,13.09-24.75,4.76-11.34,8.26-23.36,10.3-35.86,1.39-8.52,2.14-17.27,2.14-26.21,0-4.11-.16-8.2-.45-12.24-1.07-13.96-3.92-27.44-8.32-40.2-21.7-62.81-81.37-107.9-151.57-107.9s-132.94,47.49-153.19,112.86c-14.42,3.3-28.28,7.94-41.53,13.77,15.97-93.07,97.08-163.88,194.72-163.88s174.93,67.54,193.49,157.4c2.69,12.99,4.11,26.43,4.11,40.2Z"/>
    </g>
    <g>
      <path d="m383.5,685.16c-21.15,7.74-43.99,11.95-67.8,11.95-5.15,0-10.24-.19-15.26-.58-12.67-.97-24.98-3.11-36.83-6.38-12.21-3.3-23.94-7.77-35.08-13.28-12.02-5.9-23.36-13.02-33.85-21.15-15.1-11.69-28.38-25.49-39.55-41.01v-.03c-7.77-10.82-14.51-22.48-19.99-34.79v-.03c-7.64-17.17-12.92-35.57-15.42-54.87-1.07-8.32-1.62-16.84-1.62-25.46,0-4.83.16-9.65.52-14.38.91-12.7,3.01-25.04,6.22-36.96v-.03c3.27-12.18,7.68-23.87,13.12-35.02,11.24-23.13,26.89-43.73,45.84-60.67,10.66-9.62,22.38-18.04,34.95-25.14,11.7-6.61,24.13-12.05,37.19-16.2,12.21-3.86,24.94-6.58,38.03-8,7.16-.81,14.38-1.2,21.74-1.2,5.38,0,10.72.23,16,.65-.94,5.05-1.43,10.24-1.43,15.55,0,7.61,1,15,2.85,22.03-5.73-.65-11.53-.97-17.43-.97-7,0-13.9.45-20.67,1.33-12.6,1.62-24.72,4.7-36.18,9.04-12.15,4.6-23.58,10.66-34.11,17.95-11.34,7.81-21.64,17.04-30.58,27.47-8.23,9.56-15.35,20.08-21.19,31.42-5.67,11.01-10.07,22.77-13.05,35.08-2.98,12.21-4.57,24.94-4.57,38.06,0,.62,0,1.23.03,1.85v.03c.19,20.6,4.34,40.23,11.63,58.28,5.51,13.61,12.86,26.3,21.7,37.74,12.15,15.78,27.21,29.22,44.35,39.55,11.4,6.87,23.74,12.37,36.77,16.23,11.79,3.53,24.13,5.73,36.86,6.45,2.98.13,5.99.23,9.01.23,12.08,0,23.84-1.33,35.18-3.89,9.91,10.72,20.83,20.5,32.62,29.19Z"/>
      <path d="m383.5,685.16c-21.15,7.74-43.99,11.95-67.8,11.95-5.15,0-10.24-.19-15.26-.58-12.67-.97-24.98-3.11-36.83-6.38-12.21-3.3-23.94-7.77-35.08-13.28-12.02-5.9-23.36-13.02-33.85-21.15-15.1-11.69-28.38-25.49-39.55-41.01.03-.03,0-.03,0-.03-7.77-10.82-14.51-22.48-19.99-34.79.03-.03,0-.03,0-.03-7.64-17.17-12.92-35.57-15.42-54.87-1.07-8.32-1.62-16.84-1.62-25.46,0-4.83.16-9.65.52-14.38.91-12.7,3.01-25.04,6.22-36.96v-.03c3.27-12.18,7.68-23.87,13.12-35.02,11.24-23.13,26.89-43.73,45.84-60.67,10.66-9.62,22.38-18.04,34.95-25.14,11.7-6.61,24.13-12.05,37.19-16.2,12.21-3.86,24.94-6.58,38.03-8,7.16-.81,14.38-1.2,21.74-1.2,5.38,0,10.72.23,16,.65-.94,5.05-1.43,10.24-1.43,15.55,0,7.61,1,15,2.85,22.03-5.73-.65-11.53-.97-17.43-.97-7,0-13.9.45-20.67,1.33-12.6,1.62-24.72,4.7-36.18,9.04-12.15,4.6-23.58,10.66-34.11,17.95-11.34,7.81-21.64,17.04-30.58,27.47-8.23,9.56-15.35,20.08-21.19,31.42-5.67,11.01-10.07,22.77-13.05,35.08-2.98,12.21-4.57,24.94-4.57,38.06,0,.62,0,1.23.03,1.85v.03c.19,20.6,4.34,40.23,11.63,58.28,5.51,13.61,12.86,26.3,21.7,37.74,12.15,15.78,27.21,29.22,44.35,39.55,11.4,6.87,23.74,12.37,36.77,16.23,11.79,3.53,24.13,5.73,36.86,6.45,2.98.13,5.99.23,9.01.23,12.08,0,23.84-1.33,35.18-3.89,9.91,10.72,20.83,20.5,32.62,29.19Z"/>
    </g>
    <path d="m720.62,496.28c0,9.82-.71,19.47-2.11,28.89-3.01,20.64-9.23,40.23-18.14,58.28-4.28,8.75-9.2,17.14-14.74,25.07-11.6,16.84-25.79,31.75-41.95,44.25-10.59,8.16-22.03,15.29-34.17,21.22-11.18,5.44-22.93,9.88-35.18,13.15-11.85,3.17-24.17,5.31-36.83,6.19-4.76.39-9.62.55-14.48.55-21.64,0-42.47-3.47-61.94-9.95-13.77-4.5-26.89-10.53-39.1-17.82-11.66-6.96-22.58-15.1-32.49-24.23-9.59-8.71-18.27-18.43-25.91-28.89-7.45-10.14-13.96-21.02-19.34-32.52-3.04-6.38-5.73-12.99-8.03-19.73l35.99-9.88c1.2,3.27,2.46,6.51,3.89,9.69,5.12,11.73,11.63,22.74,19.31,32.78,7.55,9.95,16.23,18.95,25.88,26.85,9.88,8.13,20.76,15.13,32.43,20.73,12.24,5.86,25.33,10.24,39.07,12.86,9.78,1.88,19.92,2.85,30.26,2.85,2.95,0,5.83-.06,8.75-.23,12.76-.68,25.14-2.88,36.93-6.38,13.12-3.89,25.53-9.43,37.03-16.36,18.33-11.05,34.3-25.66,46.87-42.92,6.22-8.52,11.63-17.69,16.1-27.37,8.75-18.95,13.9-39.88,14.58-61.94.07-1.72.1-3.43.1-5.15,0-12.08-1.33-23.84-3.89-35.18-2.75-12.37-6.96-24.2-12.41-35.31-6.93-14.12-15.87-27.08-26.47-38.48,4.24-13.77,7.26-28.09,8.91-42.82,22.19,18.5,40.27,41.79,52.61,68.25,5.25,11.21,9.46,22.97,12.54,35.21,3.01,11.99,4.92,24.39,5.64,37.12.23,3.72.32,7.45.32,11.21Z"/>
  </g>
</svg>