<?xml version="1.0" encoding="UTF-8"?>
<svg id="Capa_1" data-name="Capa 1" xmlns="http://www.w3.org/2000/svg" viewBox="0 0 2912.5 869">
  <defs>
    <style>
      .cls-1 {
        fill-rule: evenodd;
      }
    </style>
  </defs>
  <g>
    <path d="m701.79,271.86c0-1.48.37-2.66,1.12-3.55.75-.88,1.87-1.32,3.36-1.32h65.15c4.69,0,9.11.67,13.25,2.01,4.15,1.34,7.95,3.19,11.42,5.56,3.47,2.37,6.59,5.19,9.38,8.47,2.79,3.28,5.15,6.83,7.09,10.64,1.94,3.81,3.42,7.82,4.44,12.02,1.02,4.2,1.53,8.46,1.53,12.76,0,6.35-1.11,12.57-3.31,18.64-2.21,6.07-5.35,11.47-9.43,16.2-4.08,4.73-8.97,8.56-14.68,11.49-5.71,2.93-12.03,4.43-18.96,4.5h-30.89v50.41c0,3.04-1.56,4.55-4.69,4.55h-30.28c-1.36,0-2.45-.37-3.26-1.11s-1.22-1.89-1.22-3.44v-147.83Zm76.77,46.38c0-2.12-.36-4.24-1.07-6.35-.71-2.12-1.75-4.01-3.11-5.67-1.36-1.66-3.01-3.02-4.94-4.08-1.94-1.06-4.13-1.59-6.58-1.59h-21.62v35.37h21.62c2.45,0,4.65-.51,6.63-1.54,1.97-1.02,3.62-2.35,4.94-3.97,1.33-1.62,2.35-3.49,3.06-5.61.71-2.12,1.07-4.31,1.07-6.57Z"/>
    <path d="m956.68,422.46c-.88.78-1.82,1.27-2.8,1.48-.99.21-1.92.32-2.8.32h-15.4c-1.22,0-2.28-.23-3.16-.69-.88-.46-1.63-1.08-2.24-1.85-.61-.77-1.12-1.65-1.53-2.64-.41-.99-.75-2.01-1.02-3.06l-2.14-10.35c-1.02,2.18-2.72,4.49-5.1,6.92-2.38,2.43-5.32,4.67-8.82,6.71-3.5,2.04-7.53,3.73-12.08,5.07-4.55,1.33-9.52,2.01-14.89,2.01-7.75,0-14.61-1.55-20.59-4.66-5.98-3.11-11.03-7.34-15.14-12.71-4.11-5.36-7.22-11.63-9.33-18.8-2.11-7.17-3.16-14.81-3.16-22.93v-69.36c0-2.68.56-4.71,1.68-6.09s2.91-2.07,5.35-2.07h23.55c2.92,0,4.93.51,6.02,1.54,1.09,1.03,1.63,3.02,1.63,5.99v69.01c0,3.04.56,5.92,1.68,8.64,1.12,2.72,2.63,5.12,4.54,7.21,1.9,2.09,4.13,3.73,6.68,4.93,2.55,1.2,5.25,1.8,8.11,1.8,2.45,0,5.1-.42,7.95-1.27,2.85-.85,5.51-2.17,7.95-3.97,2.45-1.8,4.49-4.12,6.12-6.94,1.63-2.83,2.45-6.22,2.45-10.18v-68.91c0-1.2.22-2.4.66-3.6.44-1.2,1.1-2.12,1.99-2.76.88-.56,1.72-.95,2.5-1.17.78-.21,1.68-.32,2.7-.32h23.04c2.92,0,5.03.74,6.32,2.22s1.94,3.46,1.94,5.93v118.51c0,1.34-.29,2.58-.87,3.71-.58,1.13-1.38,2.01-2.4,2.65l.61-.32Z"/>
    <path d="m996.14,291.67c0-6.57,1.36-12.74,4.08-18.53,2.72-5.79,6.36-10.85,10.91-15.2s9.79-7.77,15.7-10.27c5.91-2.5,12.1-3.76,18.56-3.76h2.04c2.31,0,4.09.72,5.35,2.17,1.26,1.45,1.89,3.44,1.89,5.98v20.23c0,2.61-.66,4.78-1.99,6.51-1.33,1.73-3.08,2.59-5.25,2.59h-2.04c-1.43,0-2.79.27-4.08.79-1.29.53-2.45,1.25-3.47,2.17-1.02.92-1.83,2-2.45,3.23-.61,1.24-.92,2.59-.92,4.08v12.18h16.01c2.31,0,4.09.65,5.35,1.96,1.26,1.31,1.89,3.37,1.89,6.2v19.38c0,3.04-.63,5.26-1.89,6.67-1.26,1.41-3.04,2.12-5.35,2.12h-16.01v75.93c0,2.68-.87,4.71-2.6,6.09-1.73,1.38-3.62,2.06-5.66,2.06h-22.02c-2.45,0-4.4-.79-5.86-2.38-1.46-1.59-2.19-3.51-2.19-5.77v-75.93h-10.5c-2.38,0-4.3-.71-5.76-2.12-1.46-1.41-2.19-3.63-2.19-6.67v-19.38c0-2.82.73-4.89,2.19-6.2,1.46-1.31,3.38-1.96,5.76-1.96h10.5v-12.18Z"/>
    <path d="m1084.53,291.67c0-6.57,1.36-12.74,4.08-18.53,2.72-5.79,6.36-10.85,10.91-15.2s9.79-7.77,15.7-10.27c5.91-2.5,12.1-3.76,18.56-3.76h2.04c2.31,0,4.09.72,5.35,2.17,1.26,1.45,1.89,3.44,1.89,5.98v20.23c0,2.61-.66,4.78-1.99,6.51-1.33,1.73-3.08,2.59-5.25,2.59h-2.04c-1.43,0-2.79.27-4.08.79-1.29.53-2.45,1.25-3.47,2.17-1.02.92-1.83,2-2.45,3.23-.61,1.24-.92,2.59-.92,4.08v12.18h16.01c2.31,0,4.09.65,5.35,1.96,1.26,1.31,1.89,3.37,1.89,6.2v19.38c0,3.04-.63,5.26-1.89,6.67-1.26,1.41-3.04,2.12-5.35,2.12h-16.01v75.93c0,2.68-.87,4.71-2.6,6.09-1.73,1.38-3.62,2.06-5.66,2.06h-22.02c-2.45,0-4.4-.79-5.86-2.38-1.46-1.59-2.19-3.51-2.19-5.77v-75.93h-10.5c-2.38,0-4.3-.71-5.76-2.12-1.46-1.41-2.19-3.63-2.19-6.67v-19.38c0-2.82.73-4.89,2.19-6.2,1.46-1.31,3.38-1.96,5.76-1.96h10.5v-12.18Z"/>
    <path d="m1344.21,278.43c1.15.71,2,1.62,2.55,2.75.54,1.13.44,2.47-.31,4.02l-17.23,25.42c-.75,1.2-1.55,1.89-2.4,2.06-.85.18-1.89-.12-3.11-.9-3.33-2.61-7-4.62-11.01-6.04-4.01-1.41-8.26-2.12-12.74-2.12-5.57,0-10.71,1.09-15.4,3.28-4.69,2.19-8.74,5.19-12.13,9-3.4,3.81-6.05,8.26-7.95,13.34-1.9,5.08-2.85,10.52-2.85,16.31s.95,11.21,2.85,16.25c1.9,5.05,4.55,9.46,7.95,13.24,3.4,3.78,7.44,6.76,12.13,8.95,4.69,2.19,9.82,3.28,15.4,3.28,4.49,0,8.77-.72,12.85-2.17,4.08-1.45,7.78-3.48,11.11-6.09,1.22-.78,2.24-1.09,3.06-.95.82.14,1.63.78,2.45,1.91l17.43,26.05c.75,1.55.85,2.86.31,3.92-.54,1.06-1.39,1.94-2.55,2.65-6.39,4.45-13.27,7.89-20.65,10.33-7.38,2.44-15.14,3.65-23.3,3.65-7.21,0-14.12-.95-20.75-2.86-6.63-1.91-12.83-4.62-18.61-8.15-5.78-3.53-11.03-7.75-15.75-12.65-4.73-4.91-8.79-10.34-12.18-16.31-3.4-5.96-6.01-12.39-7.85-19.27-1.83-6.88-2.75-14.07-2.75-21.55s.92-14.67,2.75-21.55c1.84-6.88,4.45-13.34,7.85-19.38,3.4-6.04,7.46-11.53,12.18-16.47,4.72-4.94,9.97-9.16,15.75-12.66,5.78-3.5,11.98-6.21,18.61-8.15,6.63-1.94,13.54-2.91,20.75-2.91,8.16,0,15.85,1.18,23.09,3.55,7.24,2.37,14.05,5.77,20.44,10.22Z"/>
    <path d="m1368.17,257.88c0-2.26.54-4.16,1.63-5.72,1.09-1.55,2.96-2.33,5.61-2.33h24.98c.68,0,1.39.2,2.14.58.75.39,1.44.94,2.09,1.64.65.71,1.19,1.55,1.63,2.54.44.99.66,2.08.66,3.28v158.21c0,2.68-.73,4.71-2.19,6.09-1.46,1.38-3.35,2.06-5.66,2.06h-23.65c-2.65,0-4.52-.69-5.61-2.06-1.09-1.38-1.63-3.41-1.63-6.09v-158.21Z"/>
    <path d="m1539.86,408.15c-5.98,5.72-12.71,10.18-20.19,13.4-7.48,3.21-15.39,4.82-23.75,4.82-9.31,0-18.12-1.77-26.41-5.29-8.29-3.53-15.57-8.42-21.82-14.67-6.25-6.25-11.21-13.61-14.89-22.08-3.67-8.47-5.51-17.68-5.51-27.64,0-6.21.73-12.23,2.19-18.06,1.46-5.82,3.53-11.28,6.22-16.36,2.68-5.08,5.95-9.76,9.79-14.03,3.84-4.27,8.14-7.92,12.9-10.96,4.76-3.03,9.92-5.4,15.5-7.09s11.45-2.54,17.64-2.54c5.64,0,11.11.78,16.42,2.33,5.3,1.55,10.28,3.74,14.94,6.57,4.66,2.82,8.92,6.21,12.8,10.17,3.87,3.95,7.2,8.28,9.99,12.97,2.79,4.7,4.95,9.71,6.47,15.04,1.53,5.33,2.29,10.82,2.29,16.47,0,3.67-.05,6.67-.15,9-.1,2.33-.63,4.18-1.58,5.56-.95,1.38-2.53,2.33-4.74,2.86-2.21.53-5.45.79-9.74.79h-73.41c.68,4.52,2.05,8.3,4.13,11.33,2.07,3.04,4.47,5.45,7.19,7.25,2.72,1.8,5.61,3.09,8.67,3.87,3.06.78,5.95,1.16,8.67,1.16,2.45,0,4.96-.26,7.54-.79,2.58-.53,5.08-1.23,7.49-2.12,2.41-.88,4.62-1.91,6.63-3.07,2-1.17,3.62-2.38,4.84-3.65,1.09-.92,2.02-1.6,2.8-2.06.78-.46,1.61-.69,2.5-.69s1.78.32,2.7.95c.92.64,1.95,1.55,3.11,2.75l10.81,12.71c.75.92,1.22,1.75,1.43,2.49.2.74.31,1.5.31,2.28,0,1.41-.37,2.63-1.12,3.65-.75,1.02-1.63,1.92-2.65,2.7Zm-49.04-88.21c-2.65,0-5.22.55-7.7,1.64-2.48,1.09-4.81,2.56-6.98,4.39-2.18,1.84-4.13,3.92-5.86,6.25s-3.14,4.7-4.23,7.1h52.1c-1.43-2.75-2.97-5.29-4.64-7.62-1.67-2.33-3.57-4.38-5.71-6.14-2.14-1.76-4.59-3.14-7.34-4.13-2.75-.99-5.96-1.48-9.64-1.48Z"/>
    <path d="m1709.01,416.41c0,1.2-.2,2.35-.61,3.44-.41,1.1-1.09,1.96-2.04,2.59-.75.78-1.63,1.27-2.65,1.48s-1.9.32-2.65.32h-20.09c-1.43,0-2.58-.19-3.47-.58-.88-.39-1.6-.93-2.14-1.64-.54-.71-1-1.57-1.38-2.6-.38-1.02-.76-2.13-1.17-3.34l-1.33-4.76c-1.83,1.91-3.93,3.78-6.27,5.61-2.34,1.84-4.93,3.48-7.75,4.92-2.82,1.45-5.85,2.61-9.07,3.5-3.23.88-6.58,1.32-10.04,1.32-6.19,0-12.12-.81-17.79-2.44-5.68-1.62-10.98-3.93-15.91-6.94-4.93-3-9.4-6.6-13.41-10.8-4.01-4.2-7.46-8.88-10.35-14.03-2.89-5.15-5.12-10.71-6.68-16.68-1.56-5.96-2.34-12.19-2.34-18.69,0-9.81,1.73-18.94,5.2-27.38,3.47-8.44,8.19-15.78,14.17-22.03,5.98-6.25,13.01-11.15,21.1-14.72,8.09-3.56,16.75-5.35,26-5.35,4.21,0,8.14.5,11.78,1.48,3.64.99,6.97,2.33,9.99,4.03,3.02,1.69,5.76,3.72,8.21,6.09,2.45,2.37,4.59,4.92,6.42,7.68l2.96-9.64c.68-1.76,1.24-3.19,1.68-4.29.44-1.09.92-1.91,1.43-2.44s1.14-.88,1.89-1.06c.75-.18,1.8-.26,3.16-.26h15.19c.75,0,1.63.11,2.65.32,1.02.21,1.9.71,2.65,1.48.95.78,1.63,1.66,2.04,2.65.41.99.61,2.12.61,3.39v119.35Zm-100.43-59.3c0,4.66.7,9.02,2.09,13.08,1.39,4.06,3.38,7.57,5.96,10.54,2.58,2.96,5.69,5.31,9.33,7.04,3.64,1.73,7.66,2.59,12.08,2.59s8.78-.86,12.69-2.59c3.91-1.73,7.31-4.08,10.2-7.04,2.89-2.97,5.15-6.48,6.78-10.54,1.63-4.06,2.45-8.42,2.45-13.08s-.82-8.83-2.45-12.92c-1.63-4.09-3.89-7.7-6.78-10.8-2.89-3.11-6.29-5.56-10.2-7.36-3.91-1.8-8.14-2.7-12.69-2.7s-8.45.9-12.08,2.7c-3.64,1.8-6.75,4.25-9.33,7.36-2.58,3.11-4.57,6.71-5.96,10.8-1.39,4.09-2.09,8.4-2.09,12.92Z"/>
    <path d="m1736.13,291.65c.88-.78,1.82-1.27,2.8-1.48.98-.21,1.92-.32,2.8-.32h15.4c1.22,0,2.28.23,3.16.69.88.46,1.63,1.08,2.24,1.85.61.78,1.1,1.66,1.48,2.64.37.99.73,2,1.07,3.06l2.14,9.29c1.02-2.18,2.67-4.43,4.94-6.76,2.28-2.32,5.1-4.44,8.46-6.34s7.25-3.47,11.67-4.7c4.42-1.23,9.34-1.85,14.78-1.85,7.75,0,14.67,1.55,20.75,4.65,6.08,3.1,11.25,7.32,15.5,12.67,4.25,5.35,7.48,11.6,9.69,18.76,2.21,7.15,3.31,14.79,3.31,22.91v69.36c0,2.68-.56,4.71-1.68,6.09-1.12,1.38-2.91,2.06-5.35,2.06h-23.55c-2.92,0-4.93-.51-6.02-1.54-1.09-1.02-1.63-3.02-1.63-5.98v-68.94c0-3.03-.66-5.91-1.99-8.63-1.33-2.72-3.08-5.12-5.25-7.2-2.18-2.08-4.64-3.72-7.39-4.92-2.75-1.2-5.56-1.8-8.41-1.8-2.45,0-4.95.57-7.49,1.7-2.55,1.13-4.89,2.7-7.04,4.71-2.14,2.01-3.94,4.38-5.4,7.09-1.46,2.72-2.29,5.67-2.5,8.84v68.83c0,1.2-.22,2.4-.66,3.6-.44,1.2-1.11,2.12-1.99,2.75-.88.57-1.72.95-2.5,1.17-.78.21-1.68.32-2.7.32h-23.04c-2.92,0-5.03-.74-6.32-2.22-1.29-1.48-1.94-3.46-1.94-5.93v-118.42c0-1.34.29-2.57.87-3.7.58-1.13,1.38-2.01,2.4-2.64l-.61.32Z"/>
    <path d="m1880.7,244.43c0-2.96.61-5.06,1.83-6.3,1.22-1.23,3.13-1.85,5.71-1.85h23.65c2.38,0,4.3.62,5.76,1.85,1.46,1.24,2.19,3.34,2.19,6.3v20.65c0,.85-.19,1.77-.56,2.75-.38.99-.9,1.94-1.58,2.86-.68.92-1.51,1.68-2.5,2.28s-2.09.9-3.31.9h-23.65c-5.03,0-7.54-2.93-7.54-8.79v-20.65Zm0,53.59c0-2.26.61-4.2,1.83-5.82s3.13-2.44,5.71-2.44h23.35c.82,0,1.7.2,2.65.58.95.39,1.83.95,2.65,1.69.82.74,1.51,1.61,2.09,2.6.58.99.87,2.12.87,3.39v118.08c0,2.68-.71,4.71-2.14,6.09-1.43,1.38-3.47,2.06-6.12,2.06h-23.35c-5.03,0-7.54-2.72-7.54-8.15v-118.08Z"/>
    <path d="m1946.97,291.65c.88-.78,1.82-1.27,2.8-1.48.98-.21,1.92-.32,2.8-.32h15.4c1.22,0,2.28.23,3.16.69.88.46,1.63,1.08,2.24,1.85.61.78,1.1,1.66,1.48,2.64.37.99.73,2,1.07,3.06l2.14,9.29c1.02-2.18,2.67-4.43,4.94-6.76,2.28-2.32,5.1-4.44,8.46-6.34s7.25-3.47,11.67-4.7c4.42-1.23,9.34-1.85,14.78-1.85,7.75,0,14.67,1.55,20.75,4.65,6.08,3.1,11.25,7.32,15.5,12.67,4.25,5.35,7.48,11.6,9.69,18.76,2.21,7.15,3.31,14.79,3.31,22.91v69.36c0,2.68-.56,4.71-1.68,6.09-1.12,1.38-2.91,2.06-5.35,2.06h-23.55c-2.92,0-4.93-.51-6.02-1.54-1.09-1.02-1.63-3.02-1.63-5.98v-68.94c0-3.03-.66-5.91-1.99-8.63-1.33-2.72-3.08-5.12-5.25-7.2-2.18-2.08-4.64-3.72-7.39-4.92-2.75-1.2-5.56-1.8-8.41-1.8-2.45,0-4.95.57-7.49,1.7-2.55,1.13-4.89,2.7-7.04,4.71-2.14,2.01-3.94,4.38-5.4,7.09-1.46,2.72-2.29,5.67-2.5,8.84v68.83c0,1.2-.22,2.4-.66,3.6-.44,1.2-1.11,2.12-1.99,2.75-.88.57-1.72.95-2.5,1.17-.78.21-1.68.32-2.7.32h-23.04c-2.92,0-5.03-.74-6.32-2.22-1.29-1.48-1.94-3.46-1.94-5.93v-118.42c0-1.34.29-2.57.87-3.7.58-1.13,1.38-2.01,2.4-2.64l-.61.32Z"/>
    <path d="m2185.44,419.59c.47-1.41.78-2.96.92-4.66.14-1.7.2-3.46.2-5.29v-1.43c0-.32-.02-.58-.05-.79-.03-.21-.05-.48-.05-.79v-1.43c-1.97,2.19-3.98,4.34-6.01,6.46-2.04,2.12-4.3,4.01-6.78,5.67-2.48,1.66-5.29,3-8.41,4.02-3.13,1.02-6.76,1.54-10.91,1.54-9.18,0-17.67-1.62-25.49-4.87-7.82-3.25-14.58-7.78-20.29-13.61-5.71-5.82-10.16-12.79-13.36-20.92-3.2-8.12-4.79-17.05-4.79-26.79s1.6-18.73,4.79-27.16c3.19-8.44,7.65-15.78,13.36-22.03,5.71-6.25,12.47-11.15,20.29-14.72,7.82-3.56,16.31-5.35,25.49-5.35,4.21,0,8.05.49,11.52,1.48,3.47.99,6.64,2.35,9.53,4.08,2.89,1.73,5.52,3.76,7.9,6.09,2.38,2.33,4.59,4.8,6.63,7.41l2.85-9.42c.41-1.2.78-2.29,1.12-3.28.34-.99.78-1.82,1.33-2.49.54-.67,1.24-1.18,2.09-1.54.85-.35,1.95-.53,3.31-.53h15.19c.95,0,1.9.18,2.86.53.95.35,1.82.85,2.6,1.48.78.63,1.41,1.45,1.89,2.44s.71,2.12.71,3.39v107.8c0,11.01-1.73,20.83-5.2,29.44-3.47,8.61-8.21,15.88-14.22,21.82-6.01,5.93-13.14,10.45-21.36,13.56-8.22,3.11-17.06,4.66-26.51,4.66-3.67,0-7.61-.34-11.83-1.01-4.21-.67-8.41-1.68-12.59-3.02-4.18-1.34-8.23-3.05-12.13-5.14-3.91-2.08-7.36-4.5-10.35-7.25-1.02-.78-1.89-1.75-2.6-2.91-.71-1.16-1.07-2.45-1.07-3.87,0-1.77.65-3.64,1.94-5.61l9.69-13.87c.95-1.06,1.83-1.85,2.65-2.38.82-.53,1.7-.79,2.65-.79,1.49,0,3.36.85,5.61,2.54,1.7,1.7,3.65,3.05,5.86,4.08,2.21,1.02,4.49,1.83,6.83,2.44,2.34.6,4.65.99,6.93,1.16,2.28.18,4.33.27,6.17.27,3.06,0,6.25-.42,9.58-1.27,3.33-.85,6.44-2.1,9.33-3.76,2.89-1.66,5.44-3.69,7.65-6.09,2.21-2.4,3.72-5.15,4.54-8.26Zm-58.32-62.9c0,4.73.7,9.12,2.09,13.18,1.39,4.06,3.38,7.57,5.96,10.54,2.58,2.96,5.69,5.29,9.33,6.99,3.64,1.69,7.66,2.54,12.08,2.54s8.45-.79,12.29-2.38c3.84-1.59,7.19-3.79,10.04-6.62,2.86-2.82,5.15-6.14,6.88-9.95s2.7-7.94,2.91-12.39v-3.5c-.2-4.31-1.17-8.38-2.91-12.23-1.73-3.85-4.03-7.24-6.88-10.17-2.85-2.93-6.2-5.26-10.04-6.99-3.84-1.73-7.94-2.59-12.29-2.59s-8.45.9-12.08,2.7c-3.64,1.8-6.75,4.22-9.33,7.25-2.58,3.04-4.57,6.6-5.96,10.7-1.39,4.1-2.09,8.4-2.09,12.92Z"/>
    <path d="m2359.78,271.12c.07-.42.29-.88.66-1.38.37-.49.83-.95,1.38-1.38.54-.42,1.12-.76,1.73-1.01.61-.25,1.19-.37,1.73-.37h26.1c1.16,0,2.14.37,2.96,1.11s1.43,1.4,1.83,1.96l2.55,6.04,53.53,143.39c.54,1.41.44,2.56-.31,3.44-.75.88-2.04,1.32-3.88,1.32h-29.26c-1.56,0-2.77-.3-3.62-.9-.85-.6-1.51-1.61-1.99-3.02-1.36-3.6-2.69-7.18-3.98-10.75-1.29-3.56-2.58-7.15-3.88-10.75h-54.14c-1.29,3.6-2.6,7.18-3.92,10.75-1.33,3.57-2.63,7.15-3.93,10.75-.88,2.61-2.62,3.92-5.2,3.92h-30.08c-1.29,0-2.36-.35-3.21-1.06-.85-.71-1-1.76-.46-3.18l55.36-148.89Zm18.56,45.32c-1.29,3.6-2.6,7.48-3.93,11.65-1.33,4.17-2.63,8.37-3.92,12.6-1.29,4.24-2.6,8.42-3.93,12.55s-2.63,8-3.92,11.6h31.3l-15.6-48.4Z"/>
    <path d="m2471.01,291.65c.88-.78,1.82-1.27,2.8-1.48.98-.21,1.92-.32,2.8-.32h15.4c1.22,0,2.28.23,3.16.69.88.46,1.63,1.08,2.24,1.85.61.78,1.1,1.66,1.48,2.64.37.99.73,2,1.07,3.06l2.14,9.29c1.02-2.18,2.67-4.43,4.94-6.76,2.28-2.32,5.1-4.44,8.46-6.34s7.25-3.47,11.67-4.7c4.42-1.23,9.34-1.85,14.78-1.85,7.75,0,14.67,1.55,20.75,4.65,6.08,3.1,11.25,7.32,15.5,12.67,4.25,5.35,7.48,11.6,9.69,18.76,2.21,7.15,3.31,14.79,3.31,22.91v69.36c0,2.68-.56,4.71-1.68,6.09-1.12,1.38-2.91,2.06-5.35,2.06h-23.55c-2.92,0-4.93-.51-6.02-1.54-1.09-1.02-1.63-3.02-1.63-5.98v-68.94c0-3.03-.66-5.91-1.99-8.63-1.33-2.72-3.08-5.12-5.25-7.2-2.18-2.08-4.64-3.72-7.39-4.92-2.75-1.2-5.56-1.8-8.41-1.8-2.45,0-4.95.57-7.49,1.7-2.55,1.13-4.89,2.7-7.04,4.71-2.14,2.01-3.94,4.38-5.4,7.09-1.46,2.72-2.29,5.67-2.5,8.84v68.83c0,1.2-.22,2.4-.66,3.6-.44,1.2-1.11,2.12-1.99,2.75-.88.57-1.72.95-2.5,1.17-.78.21-1.68.32-2.7.32h-23.04c-2.92,0-5.03-.74-6.32-2.22-1.29-1.48-1.94-3.46-1.94-5.93v-118.42c0-1.34.29-2.57.87-3.7.58-1.13,1.38-2.01,2.4-2.64l-.61.32Z"/>
    <path d="m2707.96,411.01c-1.83,1.91-3.92,3.79-6.27,5.67-2.34,1.87-4.89,3.55-7.65,5.03s-5.71,2.68-8.87,3.6c-3.16.92-6.51,1.38-10.04,1.38-9.24,0-17.76-1.8-25.54-5.4-7.78-3.6-14.48-8.53-20.08-14.77-5.61-6.25-9.99-13.61-13.15-22.08-3.16-8.47-4.74-17.58-4.74-27.32s1.58-18.94,4.74-27.38c3.16-8.44,7.54-15.78,13.15-22.03s12.3-11.15,20.08-14.72c7.78-3.56,16.3-5.35,25.54-5.35,3.74,0,7.15.34,10.25,1.01,3.09.67,5.91,1.64,8.46,2.91,2.55,1.27,4.89,2.79,7.04,4.55,2.14,1.77,4.16,3.71,6.07,5.82v-44.16c0-2.26.66-4.16,1.99-5.72,1.33-1.55,3.31-2.33,5.96-2.33h22.94c.88,0,1.82.2,2.8.58.99.39,1.89.94,2.7,1.64.82.71,1.48,1.55,1.99,2.54.51.99.76,2.08.76,3.28v158.32c0,5.44-2.75,8.15-8.26,8.15h-19.98c-1.36,0-2.41-.17-3.16-.53-.75-.35-1.38-.86-1.89-1.54-.51-.67-.97-1.52-1.38-2.54s-.92-2.21-1.53-3.55l-1.94-5.08Zm-59.64-53.9c0,4.66.7,9.02,2.09,13.08,1.39,4.06,3.38,7.57,5.96,10.54,2.58,2.96,5.69,5.31,9.33,7.04,3.64,1.73,7.66,2.59,12.08,2.59s8.44-.81,12.29-2.44c3.84-1.62,7.19-3.87,10.04-6.72s5.15-6.23,6.88-10.11c1.73-3.88,2.7-8.05,2.91-12.5v-1.48c0-4.52-.82-8.83-2.45-12.92-1.63-4.09-3.89-7.7-6.78-10.8-2.89-3.11-6.29-5.56-10.2-7.36-3.91-1.8-8.14-2.7-12.69-2.7s-8.45.9-12.08,2.7c-3.64,1.8-6.75,4.25-9.33,7.36-2.58,3.11-4.57,6.71-5.96,10.8-1.39,4.09-2.09,8.4-2.09,12.92Z"/>
    <path d="m703.94,513.92c0-1.48.37-2.66,1.12-3.55.75-.88,1.87-1.32,3.36-1.32h65.86c7,0,13.56,1.36,19.68,4.08,6.12,2.72,11.45,6.41,16.01,11.07,4.55,4.66,8.14,10.11,10.76,16.36,2.62,6.25,3.92,12.9,3.92,19.96,0,4.8-.63,9.37-1.89,13.71-1.26,4.34-3.01,8.4-5.25,12.18-2.24,3.78-4.91,7.2-8,10.27-3.09,3.07-6.47,5.7-10.14,7.89l26.2,51.25c.47.99,1.09,2.15,1.83,3.5.75,1.34,1.12,2.51,1.12,3.49,0,1.13-.36,2-1.07,2.59-.71.6-1.68.9-2.91.9h-34.97c-1.16,0-2.19-.35-3.11-1.06-.92-.71-1.51-1.66-1.78-2.86l-24.78-48.4h-16.52v47.76c0,3.04-1.56,4.55-4.69,4.55h-30.28c-1.36,0-2.45-.37-3.26-1.11-.82-.74-1.22-1.89-1.22-3.44v-147.83Zm79.83,47.02c0-2.12-.37-4.24-1.12-6.35-.75-2.12-1.8-4.06-3.16-5.82-1.36-1.76-2.99-3.25-4.89-4.45-1.9-1.2-4.01-1.98-6.32-2.33-1.9-.14-3.69-.26-5.35-.37-1.67-.11-3.48-.16-5.46-.16h-14.07v38.86h18.76c1.22,0,2.31-.03,3.26-.11.95-.07,2-.18,3.16-.32,2.38-.28,4.52-1.01,6.42-2.17,1.9-1.17,3.5-2.61,4.79-4.34,1.29-1.73,2.28-3.67,2.96-5.83.68-2.15,1.02-4.36,1.02-6.62Z"/>
    <path d="m944.55,650.21c-5.98,5.72-12.71,10.18-20.19,13.4-7.48,3.21-15.39,4.82-23.75,4.82-9.31,0-18.12-1.77-26.41-5.29-8.29-3.53-15.57-8.42-21.82-14.67-6.25-6.25-11.21-13.61-14.89-22.08-3.67-8.47-5.51-17.69-5.51-27.64,0-6.21.73-12.23,2.19-18.06,1.46-5.82,3.53-11.28,6.22-16.36,2.68-5.08,5.95-9.76,9.79-14.03,3.84-4.27,8.14-7.92,12.9-10.96,4.76-3.04,9.92-5.4,15.5-7.1,5.57-1.69,11.45-2.54,17.64-2.54,5.64,0,11.11.78,16.42,2.33,5.3,1.55,10.28,3.74,14.94,6.57,4.66,2.82,8.92,6.21,12.8,10.17,3.87,3.96,7.2,8.28,9.99,12.97,2.79,4.7,4.95,9.71,6.47,15.04,1.53,5.33,2.29,10.82,2.29,16.47,0,3.67-.05,6.67-.15,9-.1,2.33-.63,4.18-1.58,5.56-.95,1.38-2.53,2.33-4.74,2.86-2.21.53-5.45.79-9.74.79h-73.41c.68,4.52,2.05,8.3,4.13,11.33,2.07,3.04,4.47,5.45,7.19,7.25,2.72,1.8,5.61,3.09,8.67,3.87,3.06.78,5.95,1.17,8.67,1.17,2.45,0,4.96-.26,7.54-.79,2.58-.53,5.08-1.23,7.49-2.12,2.41-.88,4.62-1.91,6.63-3.07,2-1.17,3.62-2.38,4.84-3.65,1.09-.92,2.02-1.61,2.8-2.07.78-.46,1.61-.69,2.5-.69s1.78.32,2.7.95c.92.63,1.95,1.55,3.11,2.75l10.81,12.71c.75.92,1.22,1.75,1.43,2.49s.31,1.5.31,2.28c0,1.41-.37,2.63-1.12,3.65-.75,1.02-1.63,1.92-2.65,2.7Zm-49.04-88.21c-2.65,0-5.22.55-7.7,1.64-2.48,1.1-4.81,2.56-6.98,4.39-2.18,1.84-4.13,3.92-5.86,6.25-1.73,2.33-3.14,4.7-4.23,7.1h52.1c-1.43-2.75-2.97-5.29-4.64-7.62-1.67-2.33-3.57-4.38-5.71-6.14-2.14-1.76-4.59-3.14-7.34-4.13-2.75-.99-5.96-1.48-9.64-1.48Z"/>
    <path d="m983.09,533.08c.88-.78,1.8-1.27,2.75-1.48.95-.21,1.87-.32,2.75-.32h15.4c1.29,0,2.36.21,3.21.63.85.42,1.55,1.01,2.09,1.75.54.74,1,1.59,1.38,2.54.37.95.73,2,1.07,3.12l4.28,12.81c1.9-2.54,3.82-5.14,5.76-7.78s4.23-5.05,6.88-7.2c2.65-2.15,5.81-3.93,9.48-5.35,3.67-1.41,8.16-2.12,13.46-2.12,9.31,0,17.89,1.78,25.74,5.35,7.85,3.57,14.61,8.47,20.29,14.72,5.67,6.25,10.11,13.59,13.3,22.03,3.19,8.44,4.79,17.56,4.79,27.38s-1.6,18.85-4.79,27.32c-3.2,8.47-7.63,15.83-13.3,22.08-5.68,6.25-12.44,11.17-20.29,14.77s-16.43,5.4-25.74,5.4c-4.42,0-8.23-.55-11.42-1.64-3.2-1.09-6.03-2.52-8.51-4.29-2.48-1.76-4.67-3.71-6.58-5.82-1.9-2.12-3.77-4.24-5.61-6.35v49.35c0,2.12-.61,3.92-1.83,5.4-1.22,1.48-3.13,2.22-5.71,2.22h-23.35c-.82,0-1.7-.18-2.65-.53-.95-.35-1.83-.85-2.65-1.48-.82-.63-1.5-1.43-2.04-2.38-.54-.95-.82-2.03-.82-3.23v-160.86c0-1.41.25-2.58.76-3.49.51-.92,1.14-1.76,1.89-2.54Zm95.23,66.08c0-4.52-.71-8.81-2.14-12.87-1.43-4.06-3.43-7.61-6.02-10.64-2.58-3.03-5.68-5.44-9.28-7.2-3.6-1.76-7.58-2.65-11.93-2.65s-8.34.83-12.18,2.49c-3.84,1.66-7.21,3.92-10.09,6.78-2.89,2.86-5.23,6.23-7.04,10.11-1.8,3.88-2.8,8.01-3.01,12.39v1.59c0,4.66.85,9.04,2.55,13.13,1.7,4.1,4.01,7.64,6.93,10.64,2.92,3,6.35,5.38,10.3,7.15,3.94,1.77,8.12,2.65,12.54,2.65s8.33-.88,11.93-2.65c3.6-1.76,6.69-4.15,9.28-7.15,2.58-3,4.59-6.55,6.02-10.64,1.43-4.09,2.14-8.47,2.14-13.13Z"/>
    <path d="m1269.38,658.47c0,1.2-.2,2.35-.61,3.44-.41,1.09-1.09,1.96-2.04,2.59-.75.78-1.63,1.27-2.65,1.48s-1.9.32-2.65.32h-20.09c-1.43,0-2.58-.19-3.47-.58-.88-.39-1.6-.94-2.14-1.64-.54-.71-1-1.57-1.38-2.59-.38-1.02-.76-2.13-1.17-3.34l-1.33-4.77c-1.83,1.91-3.93,3.78-6.27,5.61-2.34,1.84-4.93,3.48-7.75,4.92-2.82,1.45-5.85,2.61-9.07,3.5-3.23.88-6.58,1.32-10.04,1.32-6.19,0-12.12-.81-17.79-2.44-5.68-1.62-10.98-3.93-15.91-6.94-4.93-3-9.4-6.6-13.41-10.8-4.01-4.2-7.46-8.88-10.35-14.03-2.89-5.15-5.12-10.71-6.68-16.68-1.56-5.97-2.34-12.2-2.34-18.69,0-9.81,1.73-18.94,5.2-27.38,3.47-8.44,8.19-15.78,14.17-22.03,5.98-6.25,13.01-11.15,21.1-14.72,8.09-3.56,16.75-5.35,26-5.35,4.21,0,8.14.5,11.78,1.48,3.64.99,6.97,2.33,9.99,4.02,3.02,1.69,5.76,3.72,8.21,6.09,2.45,2.37,4.59,4.92,6.42,7.68l2.96-9.64c.68-1.76,1.24-3.19,1.68-4.29.44-1.09.92-1.91,1.43-2.44s1.14-.88,1.89-1.06c.75-.18,1.8-.26,3.16-.26h15.19c.75,0,1.63.11,2.65.32s1.9.71,2.65,1.48c.95.78,1.63,1.66,2.04,2.65.41.99.61,2.12.61,3.39v119.35Zm-100.43-59.3c0,4.66.7,9.02,2.09,13.08,1.39,4.06,3.38,7.57,5.96,10.54,2.58,2.96,5.69,5.31,9.33,7.04,3.64,1.73,7.66,2.59,12.08,2.59s8.78-.86,12.69-2.59c3.91-1.73,7.31-4.08,10.2-7.04,2.89-2.96,5.15-6.48,6.78-10.54,1.63-4.06,2.45-8.42,2.45-13.08s-.82-8.82-2.45-12.92c-1.63-4.09-3.89-7.69-6.78-10.8-2.89-3.11-6.29-5.56-10.2-7.36-3.91-1.8-8.14-2.7-12.69-2.7s-8.45.9-12.08,2.7c-3.64,1.8-6.75,4.25-9.33,7.36-2.58,3.11-4.57,6.71-5.96,10.8-1.39,4.1-2.09,8.4-2.09,12.92Z"/>
    <path d="m1293.75,486.49c0-2.96.61-5.06,1.83-6.3,1.22-1.23,3.13-1.85,5.71-1.85h23.65c2.38,0,4.3.62,5.76,1.85,1.46,1.24,2.19,3.34,2.19,6.3v20.65c0,.85-.19,1.77-.56,2.75-.38.99-.9,1.94-1.58,2.86-.68.92-1.51,1.68-2.5,2.28-.99.6-2.09.9-3.31.9h-23.65c-5.03,0-7.54-2.93-7.54-8.79v-20.65Zm0,53.58c0-2.26.61-4.2,1.83-5.82,1.22-1.62,3.13-2.44,5.71-2.44h23.35c.82,0,1.7.2,2.65.58.95.39,1.83.95,2.65,1.69s1.51,1.61,2.09,2.59c.58.99.87,2.12.87,3.39v118.08c0,2.68-.71,4.71-2.14,6.09-1.43,1.38-3.47,2.07-6.12,2.07h-23.35c-5.03,0-7.54-2.72-7.54-8.15v-118.08Z"/>
    <path d="m1357.37,539.65c0-1.34.24-2.5.71-3.49.47-.99,1.1-1.8,1.89-2.44.78-.64,1.66-1.11,2.65-1.43.98-.32,1.95-.48,2.91-.48h15.4c1.7,0,3.06.53,4.08,1.59,1.02,1.06,1.89,2.4,2.6,4.02.71,1.62,1.34,3.42,1.89,5.4.54,1.98,1.19,3.88,1.94,5.72,2.04-2.33,4.06-4.62,6.07-6.88,2-2.26,4.16-4.27,6.47-6.04,2.31-1.76,4.84-3.19,7.6-4.29,2.75-1.09,5.9-1.64,9.43-1.64s6.95.28,9.84.85c2.89.57,5.62,1.4,8.21,2.49,2.58,1.09,5.15,2.49,7.7,4.18s5.32,3.67,8.31,5.93c2.92,1.77,4.38,3.85,4.38,6.25,0,1.55-.58,3.35-1.73,5.4l-9.28,16.42c-1.83,2.75-4.11,4.13-6.83,4.13-1.36,0-2.89-.39-4.59-1.17-2.92-2.96-5.9-5.17-8.92-6.62-3.03-1.45-6.47-2.17-10.35-2.17-2.65,0-4.98.39-6.98,1.17-2,.78-3.82,1.87-5.45,3.28-1.63,1.41-3.16,3.11-4.59,5.08-1.43,1.98-2.86,4.17-4.28,6.57v76.67c0,2.68-.63,4.71-1.89,6.09-1.26,1.38-3.35,2.07-6.27,2.07h-22.94c-5.3,0-7.95-2.72-7.95-8.15v-118.5Z"/>
    <path d="m1543.23,513.7c.07-1.2.49-2.28,1.27-3.23.78-.95,1.82-1.43,3.11-1.43h30.28c1.02,0,2.07.44,3.16,1.33,1.09.88,1.63,2,1.63,3.34v50.29h50.67v-50.29c0-1.27.42-2.37,1.27-3.29s1.95-1.38,3.31-1.38h29.79c1.36,0,2.54.35,3.56,1.06,1.02.71,1.53,1.84,1.53,3.39v148.15c0,1.55-.44,2.72-1.32,3.49-.88.78-2.03,1.17-3.46,1.17h-30.1c-1.36,0-2.46-.39-3.31-1.17-.85-.78-1.27-1.94-1.27-3.49v-60.15h-50.67v60.15c0,1.48-.46,2.63-1.38,3.44-.92.81-2.16,1.22-3.72,1.22h-29.97c-2.85,0-4.32-1.38-4.38-4.13v-148.47Z"/>
    <path d="m1698,599.17c0-6.5.8-12.74,2.4-18.74,1.6-6,3.84-11.56,6.73-16.68,2.89-5.12,6.35-9.78,10.4-13.98,4.04-4.2,8.55-7.78,13.51-10.75,4.96-2.97,10.31-5.26,16.06-6.88,5.74-1.62,11.74-2.44,18-2.44,9.24,0,17.93,1.78,26.05,5.35,8.12,3.57,15.19,8.47,21.21,14.72s10.77,13.59,14.27,22.03c3.5,8.44,5.25,17.56,5.25,27.38,0,6.5-.8,12.73-2.4,18.69-1.6,5.97-3.84,11.53-6.73,16.68-2.89,5.15-6.36,9.83-10.4,14.03-4.04,4.2-8.55,7.8-13.51,10.8-4.96,3-10.28,5.31-15.96,6.94-5.68,1.62-11.61,2.44-17.79,2.44s-12.25-.81-18-2.44c-5.75-1.62-11.1-3.93-16.06-6.94-4.96-3-9.47-6.6-13.51-10.8-4.04-4.2-7.51-8.88-10.4-14.03-2.89-5.15-5.13-10.71-6.73-16.68-1.6-5.97-2.4-12.2-2.4-18.69Zm37.21,0c0,4.66.7,9.02,2.09,13.08,1.39,4.06,3.36,7.57,5.91,10.54,2.55,2.96,5.64,5.31,9.28,7.04,3.64,1.73,7.73,2.59,12.29,2.59s8.41-.86,11.98-2.59c3.57-1.73,6.59-4.08,9.07-7.04,2.48-2.96,4.38-6.48,5.71-10.54,1.33-4.06,1.99-8.42,1.99-13.08s-.66-8.82-1.99-12.92c-1.33-4.09-3.23-7.69-5.71-10.8-2.48-3.11-5.51-5.56-9.07-7.36-3.57-1.8-7.56-2.7-11.98-2.7s-8.65.9-12.29,2.7c-3.64,1.8-6.73,4.25-9.28,7.36-2.55,3.11-4.52,6.71-5.91,10.8-1.39,4.1-2.09,8.4-2.09,12.92Z"/>
    <path d="m1852.15,499.94c0-2.26.54-4.16,1.63-5.72,1.09-1.55,2.96-2.33,5.61-2.33h24.98c.68,0,1.39.2,2.14.58.75.39,1.44.94,2.09,1.64.65.71,1.19,1.55,1.63,2.54.44.99.66,2.08.66,3.28v158.21c0,2.68-.73,4.71-2.19,6.09-1.46,1.38-3.35,2.07-5.66,2.07h-23.65c-2.65,0-4.52-.69-5.61-2.07-1.09-1.38-1.63-3.41-1.63-6.09v-158.21Z"/>
    <path d="m2007.64,653.07c-1.83,1.91-3.92,3.8-6.27,5.67-2.34,1.87-4.89,3.55-7.65,5.03-2.75,1.48-5.71,2.68-8.87,3.6-3.16.92-6.51,1.38-10.04,1.38-9.24,0-17.76-1.8-25.54-5.4-7.78-3.6-14.48-8.53-20.08-14.77s-9.99-13.61-13.15-22.08c-3.16-8.47-4.74-17.58-4.74-27.32s1.58-18.94,4.74-27.38c3.16-8.44,7.54-15.78,13.15-22.03s12.3-11.15,20.08-14.72c7.78-3.56,16.3-5.35,25.54-5.35,3.74,0,7.15.34,10.25,1.01,3.09.67,5.91,1.64,8.46,2.91s4.89,2.79,7.04,4.55c2.14,1.77,4.16,3.71,6.07,5.82v-44.16c0-2.26.66-4.17,1.99-5.72,1.33-1.55,3.31-2.33,5.96-2.33h22.94c.88,0,1.82.2,2.8.58.99.39,1.89.94,2.7,1.64.82.71,1.48,1.55,1.99,2.54.51.99.76,2.08.76,3.28v158.32c0,5.44-2.75,8.15-8.26,8.15h-19.98c-1.36,0-2.41-.18-3.16-.53-.75-.35-1.38-.86-1.89-1.54-.51-.67-.97-1.52-1.38-2.54-.41-1.02-.92-2.21-1.53-3.55l-1.94-5.08Zm-59.64-53.9c0,4.66.7,9.02,2.09,13.08,1.39,4.06,3.38,7.57,5.96,10.54,2.58,2.96,5.69,5.31,9.33,7.04,3.64,1.73,7.66,2.59,12.08,2.59s8.44-.81,12.29-2.44c3.84-1.62,7.19-3.87,10.04-6.72s5.15-6.23,6.88-10.11c1.73-3.88,2.7-8.05,2.91-12.5v-1.48c0-4.52-.82-8.82-2.45-12.92-1.63-4.09-3.89-7.69-6.78-10.8-2.89-3.11-6.29-5.56-10.2-7.36-3.91-1.8-8.14-2.7-12.69-2.7s-8.45.9-12.08,2.7c-3.64,1.8-6.75,4.25-9.33,7.36-2.58,3.11-4.57,6.71-5.96,10.8-1.39,4.1-2.09,8.4-2.09,12.92Z"/>
    <path d="m2072.78,486.49c0-2.96.61-5.06,1.83-6.3,1.22-1.23,3.13-1.85,5.71-1.85h23.65c2.38,0,4.3.62,5.76,1.85,1.46,1.24,2.19,3.34,2.19,6.3v20.65c0,.85-.19,1.77-.56,2.75-.38.99-.9,1.94-1.58,2.86-.68.92-1.51,1.68-2.5,2.28-.99.6-2.09.9-3.31.9h-23.65c-5.03,0-7.54-2.93-7.54-8.79v-20.65Zm0,53.58c0-2.26.61-4.2,1.83-5.82,1.22-1.62,3.13-2.44,5.71-2.44h23.35c.82,0,1.7.2,2.65.58.95.39,1.83.95,2.65,1.69s1.51,1.61,2.09,2.59c.58.99.87,2.12.87,3.39v118.08c0,2.68-.71,4.71-2.14,6.09-1.43,1.38-3.47,2.07-6.12,2.07h-23.35c-5.03,0-7.54-2.72-7.54-8.15v-118.08Z"/>
    <path d="m2139.05,533.71c.88-.78,1.82-1.27,2.8-1.48.98-.21,1.92-.32,2.8-.32h15.4c1.22,0,2.28.23,3.16.69.88.46,1.63,1.08,2.24,1.85.61.77,1.1,1.66,1.48,2.64.37.99.73,2.01,1.07,3.06l2.14,9.29c1.02-2.18,2.67-4.43,4.94-6.76,2.28-2.32,5.1-4.43,8.46-6.34,3.36-1.9,7.25-3.47,11.67-4.7,4.42-1.23,9.34-1.85,14.78-1.85,7.75,0,14.67,1.55,20.75,4.65s11.25,7.32,15.5,12.67c4.25,5.35,7.48,11.6,9.69,18.76,2.21,7.15,3.31,14.79,3.31,22.91v69.36c0,2.68-.56,4.71-1.68,6.09-1.12,1.38-2.91,2.07-5.35,2.07h-23.55c-2.92,0-4.93-.51-6.02-1.54-1.09-1.02-1.63-3.02-1.63-5.98v-68.94c0-3.03-.66-5.91-1.99-8.63-1.33-2.72-3.08-5.12-5.25-7.2-2.18-2.08-4.64-3.72-7.39-4.92-2.75-1.2-5.56-1.8-8.41-1.8-2.45,0-4.95.57-7.49,1.69-2.55,1.13-4.89,2.7-7.04,4.71-2.14,2.01-3.94,4.38-5.4,7.09-1.46,2.72-2.29,5.67-2.5,8.84v68.83c0,1.2-.22,2.4-.66,3.6-.44,1.2-1.11,2.12-1.99,2.75-.88.57-1.72.95-2.5,1.17-.78.21-1.68.32-2.7.32h-23.04c-2.92,0-5.03-.74-6.32-2.22-1.29-1.48-1.94-3.46-1.94-5.93v-118.42c0-1.34.29-2.57.87-3.7.58-1.13,1.38-2.01,2.4-2.64l-.61.32Z"/>
    <path d="m2377.53,661.65c.47-1.41.78-2.97.92-4.66.14-1.69.2-3.46.2-5.29v-1.43c0-.32-.02-.58-.05-.79s-.05-.48-.05-.79v-1.43c-1.97,2.19-3.98,4.34-6.01,6.46-2.04,2.12-4.3,4.01-6.78,5.67-2.48,1.66-5.29,3-8.41,4.02-3.13,1.02-6.76,1.54-10.91,1.54-9.18,0-17.67-1.62-25.49-4.87-7.82-3.25-14.58-7.78-20.29-13.61-5.71-5.82-10.16-12.79-13.36-20.92-3.2-8.12-4.79-17.05-4.79-26.79s1.6-18.73,4.79-27.16c3.19-8.44,7.65-15.78,13.36-22.03,5.71-6.25,12.47-11.15,20.29-14.72,7.82-3.56,16.31-5.35,25.49-5.35,4.21,0,8.05.5,11.52,1.48,3.47.99,6.64,2.35,9.53,4.08,2.89,1.73,5.52,3.76,7.9,6.09,2.38,2.33,4.59,4.8,6.63,7.41l2.85-9.42c.41-1.2.78-2.29,1.12-3.28.34-.99.78-1.82,1.33-2.49.54-.67,1.24-1.18,2.09-1.54.85-.35,1.95-.53,3.31-.53h15.19c.95,0,1.9.18,2.86.53.95.35,1.82.85,2.6,1.48.78.64,1.41,1.45,1.89,2.44.48.99.71,2.12.71,3.39v107.8c0,11.01-1.73,20.83-5.2,29.44-3.47,8.61-8.21,15.88-14.22,21.82-6.01,5.93-13.14,10.45-21.36,13.55-8.22,3.11-17.06,4.66-26.51,4.66-3.67,0-7.61-.34-11.83-1.01-4.21-.67-8.41-1.68-12.59-3.02-4.18-1.34-8.23-3.05-12.13-5.14-3.91-2.08-7.36-4.5-10.35-7.25-1.02-.78-1.89-1.75-2.6-2.91-.71-1.17-1.07-2.45-1.07-3.87,0-1.77.65-3.64,1.94-5.61l9.69-13.87c.95-1.06,1.83-1.85,2.65-2.38.82-.53,1.7-.79,2.65-.79,1.49,0,3.36.85,5.61,2.54,1.7,1.69,3.65,3.05,5.86,4.08,2.21,1.02,4.49,1.83,6.83,2.44,2.34.6,4.65.99,6.93,1.17,2.28.18,4.33.26,6.17.26,3.06,0,6.25-.42,9.58-1.27,3.33-.85,6.44-2.1,9.33-3.76,2.89-1.66,5.44-3.69,7.65-6.09,2.21-2.4,3.72-5.15,4.54-8.26Zm-58.32-62.9c0,4.73.7,9.13,2.09,13.18,1.39,4.06,3.38,7.57,5.96,10.54,2.58,2.96,5.69,5.29,9.33,6.99,3.64,1.69,7.66,2.54,12.08,2.54s8.45-.79,12.29-2.38c3.84-1.59,7.19-3.79,10.04-6.62,2.86-2.82,5.15-6.14,6.88-9.96,1.73-3.81,2.7-7.94,2.91-12.39v-3.5c-.2-4.3-1.17-8.38-2.91-12.23-1.73-3.85-4.03-7.24-6.88-10.17-2.85-2.93-6.2-5.26-10.04-6.99-3.84-1.73-7.94-2.59-12.29-2.59s-8.45.9-12.08,2.7c-3.64,1.8-6.75,4.22-9.33,7.25-2.58,3.04-4.57,6.6-5.96,10.7-1.39,4.1-2.09,8.4-2.09,12.92Z"/>
    <path d="m2459.8,624.47c1.83,1.91,3.82,3.51,5.96,4.82,2.14,1.31,4.2,2.37,6.17,3.18,1.97.81,3.7,1.4,5.2,1.75,1.49.35,2.51.53,3.06.53,1.29,0,2.94-.05,4.94-.16,2-.11,3.93-.42,5.76-.95s3.42-1.39,4.74-2.59c1.33-1.2,1.99-2.89,1.99-5.08,0-1.98-.38-3.55-1.12-4.71-.75-1.17-1.83-2.15-3.26-2.97-1.43-.81-3.18-1.54-5.25-2.17-2.07-.63-4.4-1.38-6.98-2.22-8.16-2.26-14.89-4.98-20.19-8.15s-9.5-6.72-12.59-10.64c-3.09-3.92-5.25-8.14-6.47-12.66-1.22-4.52-1.84-9.28-1.84-14.3,0-5.86,1.12-11.19,3.37-15.99,2.24-4.8,5.44-8.91,9.58-12.34,4.14-3.42,9.11-6.07,14.88-7.94,5.78-1.87,12.2-2.81,19.27-2.81,4.28,0,8.29.37,12.03,1.11,3.74.74,7.31,1.91,10.71,3.49,3.4,1.59,6.71,3.64,9.94,6.14,3.23,2.51,6.44,5.49,9.63,8.95,1.16,1.41,1.75,2.74,1.78,3.97.03,1.24-.73,2.56-2.29,3.97-2.65,2.26-5.18,4.48-7.6,6.67-2.41,2.19-4.91,4.62-7.49,7.31-.82.71-1.63,1.15-2.45,1.32-.82.18-1.6.16-2.35-.05-.75-.21-1.46-.56-2.14-1.06-.68-.49-1.29-1.09-1.83-1.8-2.38-2.75-5.1-4.61-8.16-5.56s-5.91-1.43-8.56-1.43c-3.33,0-5.98.6-7.95,1.8-1.97,1.2-2.89,3.04-2.75,5.51.14,1.84.8,3.27,1.99,4.29,1.19,1.02,2.65,1.85,4.38,2.49,1.73.64,3.57,1.15,5.51,1.54,1.94.39,3.72.83,5.35,1.32,6.12,2.05,11.73,4.27,16.82,6.67,5.1,2.4,9.52,5.35,13.25,8.84,3.74,3.49,6.64,7.68,8.72,12.55,2.07,4.87,3.11,10.8,3.11,17.79s-1.34,13.24-4.03,18.74c-2.69,5.51-6.37,10.13-11.06,13.87-4.69,3.74-10.25,6.6-16.67,8.58-6.42,1.98-13.34,2.96-20.75,2.96-4.21,0-8.5-.39-12.85-1.16-4.35-.78-8.56-2.03-12.64-3.76-4.08-1.73-7.95-3.95-11.62-6.67-3.67-2.72-6.93-6.02-9.79-9.9-.75-.99-1.31-2.03-1.68-3.12-.37-1.09-.54-2.17-.51-3.23.03-1.06.24-2.03.61-2.91.37-.88.97-1.64,1.78-2.28l13.15-13.66c1.63-1.41,3.07-1.91,4.33-1.48,1.26.42,2.87,1.62,4.84,3.6Z"/>
  </g>
  <g>
    <g id="_2513505851920" data-name=" 2513505851920">
      <path d="m306.59,406.09c.46-.51.85-1.09,1.16-1.7.24-.24.39-.55.45-.89.24-.46.43-.95.52-1.48.19.02.04-.32.07-.64.25-.54.39-1.12.43-1.7.06-1.23-.18-2.47-.65-3.61-2.42-4.86-6.93-8.19-12.16-8.99-3.44-.33-6.9-.53-10.32-.58l-.5-26.24c.84-.01,1.67.02,2.5.04.15-.33,28.78.7,30.6-15.63.62-5.54-1.83-13.1-9.56-23.37-6.64-8.45-3.17-10.25,4.57-3.7,13.7,11.34,22.79,29.78,23.21,55.8.15,38.58-2.7,32.22-30.32,32.71Z"/>
      <path d="m334.1,411.26l.13-4.76-29.06.74.04,4.62c.19,2.17,1.92,3.83,4.01,3.85l21.06-.45c2.07.02,3.78-1.7,3.81-3.85,0-.05,0-.1,0-.15Z"/>
    </g>
    <polygon points="299.02 546.57 329.43 538.81 332.55 552.02 302.14 559.78 299.02 546.57"/>
    <path d="m261.16,542.06l99.25-24.25h0l1.65,7.3c.28,1.22-.45,2.43-1.62,2.72h0s-95.05,23.23-95.05,23.23c-1.17.29-2.34-.47-2.62-1.68h0l-1.65-7.3h.04Z"/>
    <polygon points="311.66 505.05 318.91 503.28 323.39 523.05 316.14 524.82 311.66 505.05"/>
    <polygon points="291.98 509.88 299.23 508.11 303.71 527.88 296.46 529.65 291.98 509.88"/>
    <polygon points="282.15 512.28 289.4 510.51 293.88 530.28 286.63 532.05 282.15 512.28"/>
    <polygon points="262.47 517.11 269.72 515.34 274.2 535.1 266.95 536.88 262.47 517.11"/>
    <polygon points="272.33 514.71 279.58 512.94 284.06 532.71 276.81 534.48 272.33 514.71"/>
    <polygon points="301.84 507.48 309.09 505.71 313.57 525.48 306.32 527.25 301.84 507.48"/>
    <polygon points="321.53 502.69 328.78 500.92 333.26 520.69 326.01 522.46 321.53 502.69"/>
    <path d="m351.07,495.53l4.47,19.83,3.36-.83-.84-14.04c-.8-3.24-3.79-5.36-6.99-4.96Z"/>
    <path d="m259.92,517.82c-3.02,1.07-4.81,4.29-4.2,7.54l5.27,12.97,3.36-.83-4.43-19.67Z"/>
    <polygon points="331.35 500.26 338.6 498.48 343.08 518.25 335.83 520.02 331.35 500.26"/>
    <polygon points="341.21 497.82 348.46 496.05 352.94 515.81 345.69 517.59 341.21 497.82"/>
    <g>
      <path class="cls-1" d="m484.65,454.58l-18.7-12.86c-11.87,14.14-26.71,25.28-43.38,32.56,1.59,1.84,3.25,3.63,4.91,5.43,8.39-.84,19.98-7.66,34.77-20.46-12.2,13.78-22.3,22.11-30.3,25.01l4.06,3.87c6.01-3.95,11.75-8.32,17.17-13.1-4.68,5.34-9.67,10.38-14.94,15.09,1.58,1.41,3.2,2.82,4.85,4.19,8.02-4.57,15.53-10.02,22.42-16.26-5.88,6.9-12.39,13.18-19.45,18.75,2.65,2.09,5.32,4.07,8.08,5.97,2.77,1.9,5.56,3.72,8.41,5.47,2.23-8.91,5.27-17.58,9.09-25.88-2.86,9.06-4.77,18.43-5.69,27.93,1.86,1.06,3.64,2.1,5.59,3.01,2.1-6.9,4.64-13.65,7.6-20.2-2.15,7.05-3.82,14.25-4.99,21.55l5.02,2.42c-.54-8.79,2.95-21.71,10.45-38.75-5.64,19.12-7.21,32.88-4.7,41.28,2.22.92,4.44,1.8,6.68,2.61.02-18.84,4.15-37.4,12.09-54.29h0l-19.02-13.33Z"/>
      <path class="cls-1" d="m507.8,448.41c1.11,4.79.74,9.85-1.1,14.38l-36.52-25.32c3.91-4.17,9.2-6.64,14.82-6.93l23.07,17.44c-.08.16-.18.29-.26.42Z"/>
      <polygon class="cls-1" points="505.42 464.38 504.75 465.91 467.31 440.19 468.48 438.79 505.42 464.38"/>
    </g>
    <line x1="502.22" y1="456.14" x2="476.74" y2="440.58"/>
    <g>
      <path d="m523.79,338.71c-14.89-72.07-78.69-126.23-155.17-126.23s-143.35,56.79-156.16,131.43c10.63-4.68,21.74-8.39,33.31-11.04,16.24-52.43,65.08-90.51,122.86-90.51s104.15,36.16,121.56,86.54c3.53,10.24,5.82,21.04,6.68,32.24.23,3.25.36,6.52.36,9.82,0,7.17-.6,14.18-1.72,21.02-1.64,10.03-4.44,19.67-8.26,28.76-2.94,6.94-6.44,13.59-10.5,19.85l25.49,15.56c4.34-6.75,8.16-13.85,11.4-21.25,4.18-9.43,7.46-19.33,9.72-29.59,2.31-10.42,3.58-21.22,3.72-32.29.03-.68.03-1.38.03-2.05,0-11.04-1.14-21.82-3.3-32.24Z"/>
      <path d="m527.09,370.95c0,.68,0,1.38-.03,2.05-.13,11.07-1.4,21.87-3.72,32.29-2.26,10.26-5.53,20.16-9.72,29.59-3.25,7.4-7.07,14.5-11.4,21.25l-25.49-15.56c4.05-6.26,7.56-12.91,10.5-19.85,3.82-9.09,6.62-18.73,8.26-28.76,1.12-6.83,1.72-13.85,1.72-21.02,0-3.3-.13-6.57-.36-9.82-.86-11.2-3.14-22-6.68-32.24-17.41-50.37-65.26-86.54-121.56-86.54s-106.62,38.09-122.86,90.51c-11.56,2.65-22.68,6.37-33.31,11.04,12.81-74.64,77.86-131.43,156.16-131.43s140.29,54.17,155.17,126.23c2.16,10.42,3.3,21.2,3.3,32.24Z"/>
    </g>
    <g>
      <path d="m342.45,665.33c-16.97,6.21-35.28,9.59-54.38,9.59-4.13,0-8.21-.16-12.24-.47-10.16-.78-20.03-2.49-29.54-5.12-9.79-2.65-19.2-6.24-28.14-10.65-9.64-4.73-18.73-10.44-27.15-16.96-12.11-9.38-22.76-20.45-31.72-32.89v-.03c-6.23-8.68-11.64-18.03-16.03-27.9v-.03c-6.13-13.77-10.37-28.53-12.37-44.01-.86-6.68-1.3-13.51-1.3-20.42,0-3.87.13-7.74.42-11.53.73-10.18,2.42-20.08,4.99-29.64v-.03c2.62-9.77,6.16-19.15,10.52-28.08,9.02-18.55,21.56-35.07,36.76-48.66,8.55-7.72,17.95-14.47,28.03-20.16,9.38-5.3,19.36-9.66,29.82-12.99,9.79-3.09,20-5.27,30.5-6.42,5.74-.65,11.53-.96,17.43-.96,4.31,0,8.6.18,12.83.52-.75,4.05-1.14,8.21-1.14,12.47,0,6.11.81,12.03,2.29,17.67-4.6-.52-9.25-.78-13.98-.78-5.61,0-11.15.36-16.57,1.06-10.11,1.3-19.82,3.77-29.02,7.25-9.74,3.69-18.91,8.55-27.36,14.39-9.09,6.26-17.35,13.67-24.52,22.03-6.6,7.66-12.31,16.11-16.99,25.2-4.55,8.83-8.08,18.26-10.47,28.14-2.39,9.79-3.66,20-3.66,30.53,0,.49,0,.99.03,1.48v.03c.16,16.52,3.48,32.27,9.33,46.74,4.42,10.91,10.31,21.09,17.41,30.27,9.74,12.65,21.82,23.43,35.57,31.72,9.14,5.51,19.04,9.92,29.49,13.02,9.46,2.83,19.36,4.6,29.56,5.17,2.39.1,4.81.18,7.22.18,9.69,0,19.12-1.07,28.21-3.12,7.95,8.6,16.71,16.44,26.16,23.41Z"/>
      <path d="m342.45,665.33c-16.97,6.21-35.28,9.59-54.38,9.59-4.13,0-8.21-.16-12.24-.47-10.16-.78-20.03-2.49-29.54-5.12-9.79-2.65-19.2-6.24-28.14-10.65-9.64-4.73-18.73-10.44-27.15-16.96-12.11-9.38-22.76-20.45-31.72-32.89.03-.03,0-.03,0-.03-6.23-8.68-11.64-18.03-16.03-27.9.03-.03,0-.03,0-.03-6.13-13.77-10.37-28.53-12.37-44.01-.86-6.68-1.3-13.51-1.3-20.42,0-3.87.13-7.74.42-11.53.73-10.18,2.42-20.08,4.99-29.64v-.03c2.62-9.77,6.16-19.15,10.52-28.08,9.02-18.55,21.56-35.07,36.76-48.66,8.55-7.72,17.95-14.47,28.03-20.16,9.38-5.3,19.36-9.66,29.82-12.99,9.79-3.09,20-5.27,30.5-6.42,5.74-.65,11.53-.96,17.43-.96,4.31,0,8.6.18,12.83.52-.75,4.05-1.14,8.21-1.14,12.47,0,6.11.81,12.03,2.29,17.67-4.6-.52-9.25-.78-13.98-.78-5.61,0-11.15.36-16.57,1.06-10.11,1.3-19.82,3.77-29.02,7.25-9.74,3.69-18.91,8.55-27.36,14.39-9.09,6.26-17.35,13.67-24.52,22.03-6.6,7.66-12.31,16.11-16.99,25.2-4.55,8.83-8.08,18.26-10.47,28.14-2.39,9.79-3.66,20-3.66,30.53,0,.49,0,.99.03,1.48v.03c.16,16.52,3.48,32.27,9.33,46.74,4.42,10.91,10.31,21.09,17.41,30.27,9.74,12.65,21.82,23.43,35.57,31.72,9.14,5.51,19.04,9.92,29.49,13.02,9.46,2.83,19.36,4.6,29.56,5.17,2.39.1,4.81.18,7.22.18,9.69,0,19.12-1.07,28.21-3.12,7.95,8.6,16.71,16.44,26.16,23.41Z"/>
    </g>
    <path d="m612.82,513.84c0,7.87-.57,15.61-1.69,23.17-2.42,16.55-7.4,32.27-14.55,46.74-3.43,7.01-7.38,13.74-11.82,20.11-9.3,13.51-20.68,25.46-33.64,35.49-8.5,6.55-17.67,12.26-27.41,17.02-8.96,4.36-18.39,7.92-28.21,10.55-9.51,2.55-19.38,4.26-29.54,4.96-3.82.31-7.72.44-11.61.44-17.35,0-34.06-2.78-49.67-7.98-11.04-3.61-21.56-8.44-31.36-14.29-9.35-5.59-18.11-12.11-26.06-19.43-7.69-6.99-14.65-14.78-20.78-23.17-5.98-8.13-11.2-16.86-15.51-26.08-2.44-5.12-4.6-10.42-6.44-15.82l28.86-7.92c.96,2.62,1.98,5.22,3.12,7.77,4.1,9.4,9.33,18.24,15.48,26.29,6.05,7.98,13.02,15.2,20.76,21.54,7.92,6.52,16.65,12.13,26.01,16.63,9.82,4.7,20.32,8.21,31.33,10.31,7.85,1.51,15.98,2.29,24.26,2.29,2.36,0,4.68-.05,7.01-.18,10.24-.55,20.16-2.31,29.62-5.12,10.52-3.12,20.47-7.56,29.69-13.12,14.7-8.86,27.51-20.58,37.59-34.42,4.99-6.83,9.33-14.18,12.91-21.95,7.01-15.2,11.15-31.98,11.69-49.67.05-1.38.08-2.75.08-4.13,0-9.69-1.07-19.12-3.12-28.21-2.21-9.92-5.59-19.41-9.95-28.32-5.56-11.33-12.73-21.72-21.22-30.86,3.4-11.04,5.82-22.52,7.14-34.34,17.8,14.83,32.29,33.51,42.19,54.74,4.21,8.99,7.59,18.42,10.05,28.24,2.42,9.61,3.95,19.56,4.52,29.77.18,2.99.26,5.98.26,8.99Z"/>
  </g>
</svg>