<?xml version="1.0" encoding="UTF-8"?>
<svg id="Capa_1" data-name="Capa 1" xmlns="http://www.w3.org/2000/svg" viewBox="0 0 1080 1080">
  <defs>
    <style>
      .cls-1 {
        font-family: Cocogoose, Cocogoose;
        font-size: 118.31px;
      }

      .cls-2 {
        fill-rule: evenodd;
      }
    </style>
  </defs>
  <text class="cls-1" transform="translate(107.44 906.2) scale(.96 1)"><tspan x="0" y="0">Puff Cleaning</tspan></text>
  <g>
    <g id="_2513505851920" data-name=" 2513505851920">
      <path d="m450.17,391.72c.64-.71,1.17-1.51,1.6-2.35.34-.34.53-.76.62-1.23.33-.63.59-1.31.71-2.04.26.03.05-.44.1-.88.34-.74.54-1.54.6-2.35.08-1.7-.25-3.41-.9-4.98-3.35-6.7-9.57-11.3-16.78-12.4-4.75-.45-9.52-.73-14.24-.81l-.69-36.22c1.16-.02,2.3.03,3.46.05.2-.46,39.72.97,42.23-21.57.85-7.65-2.53-18.07-13.19-32.25-9.16-11.66-4.38-14.15,6.3-5.1,18.91,15.65,31.45,41.09,32.02,77,.21,53.25-3.73,44.47-41.84,45.14Z"/>
      <path d="m488.13,398.85l.18-6.57-40.1,1.02.05,6.37c.26,2.99,2.64,5.28,5.54,5.31l29.07-.62c2.85.03,5.21-2.35,5.26-5.31,0-.07,0-.14,0-.21Z"/>
    </g>
    <polygon points="439.71 585.58 481.68 574.87 485.99 593.1 444.02 603.81 439.71 585.58"/>
    <path d="m387.46,579.36l136.97-33.47h0l2.28,10.07c.38,1.68-.62,3.36-2.24,3.75h0s-131.17,32.06-131.17,32.06c-1.61.39-3.23-.65-3.61-2.32h0l-2.28-10.07h.05Z"/>
    <polygon points="457.16 528.29 467.16 525.84 473.34 553.12 463.34 555.57 457.16 528.29"/>
    <polygon points="430 534.95 440 532.5 446.18 559.78 436.18 562.23 430 534.95"/>
    <polygon points="416.44 538.26 426.44 535.82 432.62 563.1 422.62 565.54 416.44 538.26"/>
    <polygon points="389.28 544.92 399.28 542.48 405.46 569.76 395.46 572.2 389.28 544.92"/>
    <polygon points="402.88 541.61 412.88 539.17 419.06 566.45 409.06 568.89 402.88 541.61"/>
    <polygon points="443.61 531.64 453.61 529.19 459.79 556.47 449.79 558.92 443.61 531.64"/>
    <polygon points="470.78 525.03 480.78 522.59 486.96 549.87 476.96 552.31 470.78 525.03"/>
    <path d="m511.55,515.14l6.17,27.37,4.64-1.15-1.16-19.38c-1.11-4.47-5.23-7.4-9.64-6.84Z"/>
    <path d="m385.76,545.9c-4.16,1.48-6.64,5.92-5.8,10.4l7.27,17.9,4.64-1.15-6.11-27.15Z"/>
    <polygon points="484.33 521.67 494.33 519.22 500.51 546.5 490.51 548.95 484.33 521.67"/>
    <polygon points="497.94 518.3 507.94 515.86 514.12 543.14 504.12 545.58 497.94 518.3"/>
    <g>
      <path class="cls-2" d="m695.89,458.63l-25.81-17.75c-16.38,19.52-36.86,34.88-59.87,44.93,2.2,2.54,4.48,5.02,6.77,7.5,11.58-1.16,27.57-10.57,47.99-28.23-16.84,19.01-30.77,30.52-41.81,34.51l5.61,5.35c8.29-5.45,16.21-11.49,23.69-18.07-6.46,7.37-13.35,14.32-20.62,20.82,2.19,1.95,4.42,3.89,6.69,5.78,11.06-6.3,21.44-13.83,30.93-22.44-8.11,9.52-17.1,18.18-26.85,25.87,3.65,2.88,7.34,5.62,11.16,8.24,3.82,2.62,7.67,5.14,11.61,7.55,3.07-12.3,7.27-24.26,12.54-35.72-3.95,12.51-6.59,25.43-7.85,38.55,2.56,1.47,5.03,2.89,7.71,4.15,2.9-9.53,6.4-18.84,10.48-27.88-2.97,9.73-5.27,19.66-6.88,29.74l6.92,3.34c-.74-12.14,4.07-29.96,14.42-53.48-7.79,26.38-9.95,45.37-6.48,56.97,3.07,1.27,6.13,2.49,9.22,3.61.03-26,5.73-51.62,16.68-74.92h0l-26.25-18.4Z"/>
      <path class="cls-2" d="m727.84,450.12c1.54,6.61,1.02,13.59-1.52,19.85l-50.41-34.94c5.39-5.76,12.69-9.16,20.45-9.56l31.83,24.07c-.1.22-.25.4-.36.58Z"/>
      <polygon class="cls-2" points="724.55 472.15 723.62 474.27 671.96 438.77 673.57 436.84 724.55 472.15"/>
    </g>
    <line x1="720.14" y1="460.79" x2="684.97" y2="439.31"/>
    <g>
      <path d="m749.9,298.73c-20.54-99.45-108.6-174.21-214.14-174.21s-197.83,78.37-215.51,181.38c14.66-6.45,30.01-11.58,45.96-15.24,22.41-72.35,89.81-124.91,169.55-124.91s143.73,49.91,167.75,119.42c4.88,14.13,8.03,29.04,9.21,44.49.32,4.48.5,9,.5,13.55,0,9.9-.82,19.58-2.37,29-2.26,13.84-6.13,27.14-11.4,39.69-4.05,9.57-8.89,18.75-14.48,27.39l35.17,21.48c5.99-9.32,11.26-19.11,15.74-29.33,5.77-13.01,10.29-26.67,13.41-40.84,3.19-14.38,4.95-29.29,5.13-44.56.04-.93.04-1.9.04-2.83,0-15.24-1.58-30.12-4.55-44.49Z"/>
      <path d="m754.45,343.23c0,.93,0,1.9-.04,2.83-.18,15.27-1.94,30.19-5.13,44.56-3.12,14.16-7.64,27.82-13.41,40.84-4.48,10.22-9.75,20.01-15.74,29.33l-35.17-21.48c5.59-8.64,10.43-17.82,14.48-27.39,5.27-12.55,9.14-25.85,11.4-39.69,1.54-9.43,2.37-19.11,2.37-29,0-4.55-.18-9.07-.5-13.55-1.18-15.45-4.34-30.37-9.21-44.49-24.02-69.52-90.06-119.42-167.75-119.42s-147.14,52.56-169.55,124.91c-15.95,3.66-31.3,8.78-45.96,15.24,17.67-103,107.45-181.38,215.51-181.38s193.6,74.75,214.14,174.21c2.98,14.38,4.55,29.26,4.55,44.49Z"/>
    </g>
    <g>
      <path d="m499.65,749.47c-23.41,8.57-48.69,13.23-75.04,13.23-5.7,0-11.33-.22-16.89-.65-14.02-1.08-27.64-3.44-40.76-7.06-13.52-3.66-26.49-8.6-38.83-14.7-13.3-6.53-25.85-14.41-37.46-23.41-16.71-12.94-31.41-28.22-43.78-45.39v-.04c-8.6-11.97-16.06-24.88-22.12-38.51v-.04c-8.46-19-14.3-39.37-17.06-60.73-1.18-9.21-1.79-18.64-1.79-28.18,0-5.34.18-10.68.57-15.92,1-14.05,3.33-27.71,6.88-40.91v-.04c3.62-13.48,8.5-26.42,14.52-38.76,12.44-25.6,29.76-48.4,50.73-67.15,11.79-10.65,24.77-19.97,38.68-27.82,12.94-7.31,26.71-13.34,41.16-17.93,13.52-4.27,27.61-7.28,42.09-8.86,7.92-.9,15.92-1.33,24.06-1.33,5.95,0,11.87.25,17.71.72-1.04,5.59-1.58,11.33-1.58,17.21,0,8.43,1.11,16.6,3.15,24.38-6.35-.72-12.76-1.08-19.29-1.08-7.74,0-15.38.5-22.87,1.47-13.95,1.79-27.35,5.2-40.05,10-13.44,5.09-26.1,11.8-37.75,19.86-12.55,8.64-23.95,18.86-33.84,30.4-9.11,10.58-16.99,22.23-23.45,34.78-6.27,12.19-11.15,25.2-14.45,38.83-3.3,13.52-5.06,27.61-5.06,42.13,0,.68,0,1.36.04,2.04v.04c.22,22.8,4.81,44.53,12.87,64.5,6.09,15.06,14.23,29.11,24.02,41.77,13.44,17.46,30.12,32.34,49.08,43.78,12.62,7.6,26.28,13.7,40.69,17.96,13.05,3.91,26.71,6.35,40.8,7.13,3.3.14,6.63.25,9.97.25,13.37,0,26.39-1.47,38.93-4.3,10.97,11.87,23.05,22.69,36.1,32.3Z"/>
      <path d="m499.65,749.47c-23.41,8.57-48.69,13.23-75.04,13.23-5.7,0-11.33-.22-16.89-.65-14.02-1.08-27.64-3.44-40.76-7.06-13.52-3.66-26.49-8.6-38.83-14.7-13.3-6.53-25.85-14.41-37.46-23.41-16.71-12.94-31.41-28.22-43.78-45.39.04-.04,0-.04,0-.04-8.6-11.97-16.06-24.88-22.12-38.51.04-.04,0-.04,0-.04-8.46-19-14.3-39.37-17.06-60.73-1.18-9.21-1.79-18.64-1.79-28.18,0-5.34.18-10.68.57-15.92,1-14.05,3.33-27.71,6.88-40.91v-.04c3.62-13.48,8.5-26.42,14.52-38.76,12.44-25.6,29.76-48.4,50.73-67.15,11.79-10.65,24.77-19.97,38.68-27.82,12.94-7.31,26.71-13.34,41.16-17.93,13.52-4.27,27.61-7.28,42.09-8.86,7.92-.9,15.92-1.33,24.06-1.33,5.95,0,11.87.25,17.71.72-1.04,5.59-1.58,11.33-1.58,17.21,0,8.43,1.11,16.6,3.15,24.38-6.35-.72-12.76-1.08-19.29-1.08-7.74,0-15.38.5-22.87,1.47-13.95,1.79-27.35,5.2-40.05,10-13.44,5.09-26.1,11.8-37.75,19.86-12.55,8.64-23.95,18.86-33.84,30.4-9.11,10.58-16.99,22.23-23.45,34.78-6.27,12.19-11.15,25.2-14.45,38.83-3.3,13.52-5.06,27.61-5.06,42.13,0,.68,0,1.36.04,2.04v.04c.22,22.8,4.81,44.53,12.87,64.5,6.09,15.06,14.23,29.11,24.02,41.77,13.44,17.46,30.12,32.34,49.08,43.78,12.62,7.6,26.28,13.7,40.69,17.96,13.05,3.91,26.71,6.35,40.8,7.13,3.3.14,6.63.25,9.97.25,13.37,0,26.39-1.47,38.93-4.3,10.97,11.87,23.05,22.69,36.1,32.3Z"/>
    </g>
    <path d="m872.76,540.41c0,10.86-.79,21.55-2.33,31.98-3.33,22.84-10.22,44.53-20.08,64.5-4.73,9.68-10.18,18.97-16.31,27.75-12.84,18.64-28.54,35.14-46.43,48.97-11.72,9.03-24.38,16.92-37.82,23.48-12.37,6.02-25.38,10.93-38.94,14.56-13.12,3.51-26.75,5.88-40.76,6.85-5.27.43-10.65.61-16.02.61-23.95,0-47-3.84-68.55-11.01-15.24-4.98-29.76-11.65-43.27-19.72-12.91-7.71-24.99-16.71-35.96-26.82-10.61-9.64-20.22-20.4-28.68-31.98-8.25-11.22-15.45-23.27-21.4-36-3.37-7.06-6.35-14.38-8.89-21.83l39.83-10.93c1.33,3.62,2.73,7.21,4.3,10.72,5.66,12.98,12.87,25.17,21.37,36.28,8.35,11.01,17.96,20.97,28.64,29.72,10.94,9,22.98,16.74,35.89,22.95,13.55,6.49,28.04,11.33,43.24,14.23,10.83,2.08,22.05,3.16,33.49,3.16,3.26,0,6.45-.07,9.68-.25,14.13-.75,27.82-3.19,40.87-7.06,14.52-4.3,28.25-10.43,40.98-18.11,20.29-12.23,37.97-28.39,51.88-47.5,6.88-9.43,12.87-19.58,17.82-30.29,9.68-20.97,15.38-44.13,16.13-68.55.07-1.9.11-3.8.11-5.7,0-13.37-1.47-26.39-4.3-38.94-3.05-13.7-7.71-26.78-13.73-39.08-7.67-15.63-17.57-29.97-29.29-42.59,4.7-15.24,8.03-31.08,9.86-47.4,24.56,20.47,44.56,46.25,58.22,75.54,5.81,12.4,10.47,25.42,13.88,38.97,3.33,13.27,5.45,27,6.24,41.09.25,4.12.36,8.25.36,12.4Z"/>
  </g>
</svg>