<svg id="Capa_1" data-name="Capa 1" xmlns="http://www.w3.org/2000/svg" viewBox="0 0 137 153"><defs><style>.cls-1{fill:#009cb7;}</style></defs><title>POSTC</title><path class="cls-1" d="M95.83,87.54V94.4l.75,0c1.33,0,2.67,0,4,0,1,0,1.5.45,1.5,1.47,0,1.73,0,3.46,0,5.18,0,1-.45,1.47-1.5,1.49-1.28,0-2.57,0-3.85,0H95.8v22.27c0,1.45-.36,1.81-1.8,1.81H88.1c-1.65,0-1.94-.29-1.94-2v-22H52.61c0,.29,0,.59,0,.89v21.27c0,1.52-.33,1.85-1.83,1.85H44.68c-1.37,0-1.75-.38-1.75-1.78V102.6H38.65c-1.72,0-2-.3-2-2,0-1.52,0-3,0-4.55,0-1.15.41-1.58,1.55-1.59,1.54,0,3.08,0,4.68,0V87.54H41.53c-2.36,0-4.72,0-7.08,0-1.14,0-1.59-.45-1.59-1.56V74.67c0-1.14.42-1.57,1.56-1.57h8.51V69.76c0-1.22.42-1.63,1.66-1.64H46.5c0-1,0-2,0-3,0-.2-.45-.42-.73-.54a5.39,5.39,0,0,1-3.54-4.86,5.28,5.28,0,0,1,2.74-5.12,5.55,5.55,0,1,1,4.75,10,.86.86,0,0,0-.68,1c0,.81,0,1.62,0,2.52.71,0,1.36,0,2,0,1.1,0,1.54.43,1.55,1.51s0,2.24,0,3.41H86.16V69.9c0-1.41.36-1.78,1.75-1.78h1.8c0-1,0-2,0-3,0-.2-.37-.45-.62-.54a5.62,5.62,0,1,1,3.89,0c-.58.21-.78.46-.74,1,.06.8,0,1.61,0,2.49.76,0,1.44,0,2.11,0a1.29,1.29,0,0,1,1.46,1.45c0,1.14,0,2.29,0,3.52h8.47c1.19,0,1.6.42,1.6,1.61V85.86c0,1.26-.41,1.67-1.71,1.68H95.83Zm-9.71.06H52.63v6.77H86.12ZM99.52,100V97H39.2v3ZM50,124.14V102.63H45.5v21.51Zm43.23,0V102.67H88.73v21.47ZM58.28,75.6c-1.75,0-3.3,0-4.86,0a1.86,1.86,0,0,0-1.14.48c-2.82,2.77-5.6,5.57-8.39,8.36-.13.13-.24.29-.46.56,1.66,0,3.17,0,4.68,0a1.64,1.64,0,0,0,1.31-.53c2.74-2.77,5.5-5.51,8.26-8.27C57.83,76.09,58,75.92,58.28,75.6Zm-5.63,9.24.08.19c1.53,0,3.07,0,4.61,0a1.82,1.82,0,0,0,1.15-.47c2.8-2.75,5.56-5.53,8.34-8.31.15-.16.28-.33.53-.62-1.72,0-3.29,0-4.85,0a1.66,1.66,0,0,0-1,.42c-2,2-4,3.95-6,5.93Zm9.11,0,.09.22c1.53,0,3.07,0,4.61,0a1.77,1.77,0,0,0,1.14-.47C70.42,81.76,73.21,79,76,76.17c.13-.14.25-.3.48-.57h-2c-1.15,0-2.42-.27-3.42.14S69.41,77.23,68.61,78Zm9,.22c1.72,0,3.24,0,4.75,0a1.91,1.91,0,0,0,1.21-.5c2.79-2.73,5.54-5.5,8.29-8.25.16-.16.31-.33.61-.65-1.72,0-3.25,0-4.78,0a2,2,0,0,0-1.21.5c-2.79,2.73-5.54,5.5-8.29,8.26C71.22,84.55,71.07,84.72,70.8,85ZM80,84.81l.09.22c1.54,0,3.07,0,4.61,0a1.82,1.82,0,0,0,1.15-.47c2.82-2.76,5.6-5.57,8.4-8.36.13-.14.25-.29.49-.57H92.88c-1.2,0-2.53-.28-3.57.14s-1.72,1.56-2.55,2.38Zm9,.23c1.86,0,3.55,0,5.24,0a1,1,0,0,0,.58-.33Q99,80.63,103,76.54a3.44,3.44,0,0,0,.44-.92c-1.6,0-3,0-4.36,0a1.89,1.89,0,0,0-1.15.47c-2.78,2.72-5.53,5.49-8.29,8.24C89.49,84.53,89.34,84.72,89.05,85ZM35.46,85c1.23,0,2.44,0,3.63,0a1.93,1.93,0,0,0,1.16-.46c2.82-2.77,5.6-5.58,8.4-8.37l.5-.57c-1.73,0-3.3,0-4.86,0a1.72,1.72,0,0,0-1.08.45c-2.43,2.38-4.81,4.81-7.24,7.19A1.58,1.58,0,0,0,35.46,85ZM50,94.41V87.58H45.5v6.83Zm38.71,0h4.52v-6.8H88.72Zm-37.91-35a3.07,3.07,0,1,0-3,2.89A3.09,3.09,0,0,0,50.81,59.39Zm40.12,2.89A3.14,3.14,0,0,0,94,59.44a3.1,3.1,0,0,0-3-2.91,2.88,2.88,0,1,0-.08,5.75Zm12.38,17.85L98.49,85h4.82ZM93.23,73.06V70.69h-4.5v2.37ZM45.47,73H50V70.68h-4.5Zm-10,7,4.38-4.33H35.42Z"/></svg>