<svg id="Capa_1" data-name="Capa 1" xmlns="http://www.w3.org/2000/svg" viewBox="0 0 137 153"><defs><style>.cls-1{fill:#009cb7;}</style></defs><title>REPAIR</title><path class="cls-1" d="M96.78,99.61c2.62,3.8,2,8.3-1.38,10.6.91,1.49.73,3.17.71,4.83a5.23,5.23,0,0,1-4.84,5.25l-1,.06a34.14,34.14,0,0,1,0,4.05,9.22,9.22,0,0,1-9.85,8.23,9.35,9.35,0,0,1-8.71-9.18c0-1,0-2,0-3.15H70.56c-2.87,0-5.75,0-8.61-.13a10.09,10.09,0,0,1-6.25-2.86c-1.29-1.16-2.57-2.34-3.89-3.46a2.38,2.38,0,0,0-1.32-.52c-1.64-.06-3.27,0-5,0,0,.71,0,1.33,0,2,0,1.21-.56,1.78-1.73,1.78q-6.78,0-13.54,0c-1.18,0-1.71-.58-1.71-1.78q0-17.91,0-35.8c0-1.25.54-1.76,1.81-1.77H43.65c1.25,0,1.78.53,1.82,1.78,0,.62,0,1.24,0,2,1.83,0,3.52,0,5.22,0,.24,0,.53-.3.7-.53,1-1.46,2.08-2.93,3.11-4.4a11.09,11.09,0,0,1,9.73-5c2.46,0,4.92,0,7.36,0,.32-.64-.06-.88-.49-1.14A19.24,19.24,0,0,1,62.35,59a19.46,19.46,0,0,1,8.91-22.17c1.52-.86,2.62-.24,2.63,1.52q0,6.72,0,13.45a1.33,1.33,0,0,0,.82,1.39c1.91,1,3.79,2,5.67,3a1.24,1.24,0,0,0,1.38,0c1.9-1.06,3.81-2.1,5.75-3.09a1.16,1.16,0,0,0,.73-1.24c0-4.48,0-9,0-13.45a2.73,2.73,0,0,1,.55-1.62c.54-.65,1.29-.48,2-.07a19,19,0,0,1,9.49,13.79A19.31,19.31,0,0,1,91.05,70.3c-.26.16-.6.48-.61.72,0,2.65,0,5.29,0,8,.54.08,1,.11,1.46.21a4.79,4.79,0,0,1,4,3.79,9.4,9.4,0,0,1-.47,6.19A5.2,5.2,0,0,1,98.24,94C98.21,96,98.48,98,96.78,99.61ZM45.54,110.26c2,0,3.83,0,5.72,0a2.59,2.59,0,0,1,2,.73c1.36,1.27,2.8,2.46,4.15,3.74A9,9,0,0,0,64,117.26c7.48,0,15,0,22.44,0,1.45,0,2.91,0,4.36,0a2.19,2.19,0,0,0,2.31-2.33q0-.95,0-1.89a2.17,2.17,0,0,0-2.17-2.28c-.88,0-1.77,0-2.65,0H81.13v-3H92.36c2.18,0,2.85-.66,2.85-2.8v-1.14c0-1.75-.79-2.55-2.53-2.56H81.13v-3H92.84a2.17,2.17,0,0,0,2.37-2.35V94.29c0-1.9-.73-2.63-2.64-2.64H82.16c-.34,0-.67,0-1,0v-3H89.3c3.42,0,3.8-.37,3.79-3.79,0-2-.79-2.74-2.76-2.74H65.51V79h6.13V74.47H63.91a7.9,7.9,0,0,0-6.65,3.38c-.9,1.22-1.74,2.48-2.63,3.71C52.15,85,53.3,84.42,49,84.47c-1.15,0-2.31,0-3.45,0ZM70.86,40.75c-.34.26-.49.36-.63.48C61.69,48.46,63.18,62.62,73,67.88a3,3,0,0,0,1.34.33q6.72,0,13.44,0a2.65,2.65,0,0,0,1.24-.31,16.39,16.39,0,0,0,5.09-24.24c-.79-1-1.75-1.92-2.63-2.87l-.27.16v.9c0,3.76,0,7.51,0,11.27a2,2,0,0,1-1.19,2q-3.94,2.06-7.83,4.2a2.24,2.24,0,0,1-2.4,0Q76,57.21,72.1,55.18a2.09,2.09,0,0,1-1.25-2.11c0-3.69,0-7.39,0-11.08Zm-28.48,40H31.59v23.4H42.38Zm32.44-9.49V79H87.31V71.29Zm10.25,49.06c.41,2,0,3.71-1.85,4.77A3.69,3.69,0,0,1,79.1,125a4,4,0,0,1-1.58-4.58H74.77c0,1.15-.06,2.22,0,3.29a6.31,6.31,0,0,0,11.72,2.85c1.17-2,.88-4,.87-6.17ZM31.55,114H42.36v-6.65H31.55Zm49.59,8.77.39,0c.22-.35.64-.73.6-1a1.27,1.27,0,0,0-.84-.86.74.74,0,0,0-.86.93C80.51,122.12,80.9,122.41,81.14,122.74Z"/><path class="cls-1" d="M36.93,108.93a1.73,1.73,0,1,1-1.7,1.75A1.71,1.71,0,0,1,36.93,108.93Z"/></svg>